<svg xmlns="http://www.w3.org/2000/svg" width="22.695" height="20.631" viewBox="0 0 22.695 20.631">
  <g id="Group_937" data-name="Group 937" transform="translate(-47.623 -147.829)">
    <path id="Path_251" data-name="Path 251" d="M65.16,149.892V148.86a1.032,1.032,0,0,0-2.063,0v1.032H54.844V148.86a1.032,1.032,0,0,0-2.063,0v1.032a5.158,5.158,0,0,0-5.158,5.158V163.3a5.158,5.158,0,0,0,5.158,5.158H65.16a5.158,5.158,0,0,0,5.158-5.158V155.05A5.158,5.158,0,0,0,65.16,149.892Zm3.095,13.41a3.1,3.1,0,0,1-3.095,3.1H52.781a3.1,3.1,0,0,1-3.095-3.1V155.05a3.1,3.1,0,0,1,3.095-3.1v1.031a1.032,1.032,0,1,0,2.063,0v-1.031H63.1v1.031a1.032,1.032,0,1,0,2.063,0v-1.031a3.1,3.1,0,0,1,3.095,3.1Z" fill="#777"/>
    <circle id="Ellipse_32" data-name="Ellipse 32" cx="1.032" cy="1.032" r="1.032" transform="translate(57.939 161.239)" fill="#777"/>
    <circle id="Ellipse_33" data-name="Ellipse 33" cx="1.032" cy="1.032" r="1.032" transform="translate(63.097 161.239)" fill="#777"/>
    <circle id="Ellipse_34" data-name="Ellipse 34" cx="1.032" cy="1.032" r="1.032" transform="translate(52.781 161.239)" fill="#777"/>
    <circle id="Ellipse_35" data-name="Ellipse 35" cx="1.032" cy="1.032" r="1.032" transform="translate(57.939 157.113)" fill="#777"/>
    <circle id="Ellipse_36" data-name="Ellipse 36" cx="1.032" cy="1.032" r="1.032" transform="translate(63.097 157.113)" fill="#777"/>
    <circle id="Ellipse_37" data-name="Ellipse 37" cx="1.032" cy="1.032" r="1.032" transform="translate(52.781 157.113)" fill="#777"/>
  </g>
</svg>
