<svg xmlns="http://www.w3.org/2000/svg" width="17.339" height="14.411" viewBox="0 0 17.339 14.411">
  <g id="Group_736" data-name="Group 736" transform="translate(-36.265 -212.892)">
    <path id="Path_901" data-name="Path 901" d="M55.408,232.929l-.192,0-.014.028a.816.816,0,0,0,.21,1.606.839.839,0,0,0,.58-.234.817.817,0,0,0,.021-1.154A.825.825,0,0,0,55.408,232.929Z" transform="translate(-6.646 -7.267)" fill="#161615"/>
    <path id="Path_902" data-name="Path 902" d="M53.944,212.892h0a4.8,4.8,0,0,0-2.639.788.827.827,0,0,0,.906,1.384,3.182,3.182,0,0,1,4.923,2.667c0,2.09-2.177,4.457-3.187,5.441a16.08,16.08,0,0,1-1.9-2.2.826.826,0,1,0-1.352.95,17.767,17.767,0,0,0,2.717,3.012.834.834,0,0,0,.53.189.847.847,0,0,0,.537-.193c.44-.377,4.3-3.777,4.3-7.2A4.854,4.854,0,0,0,53.944,212.892Z" transform="translate(-5.178)" fill="#161615"/>
    <path id="Path_903" data-name="Path 903" d="M43.074,218.342l-.25.006-.005.024a1.356,1.356,0,0,0-.7,2.305,1.4,1.4,0,0,0,1.927,0,1.356,1.356,0,0,0,.042-1.916A1.4,1.4,0,0,0,43.074,218.342Z" transform="translate(-1.973 -1.977)" fill="#161615"/>
    <path id="Path_904" data-name="Path 904" d="M41.1,212.892h0a4.854,4.854,0,0,0-4.839,4.839c0,3.426,3.863,6.821,4.31,7.2a.833.833,0,0,0,.528.187.849.849,0,0,0,.538-.192c.44-.375,4.3-3.77,4.3-7.2A4.854,4.854,0,0,0,41.1,212.892Zm3.187,4.838c0,2.086-2.178,4.455-3.19,5.443-.831-.808-3.182-3.287-3.182-5.443a3.186,3.186,0,0,1,6.373,0Z" fill="#161615"/>
    <path id="Path_905" data-name="Path 905" d="M43.39,232.933h-.261l-.009.045a.819.819,0,1,0,1.1.771A.819.819,0,0,0,43.39,232.933Z" transform="translate(-2.284 -7.268)" fill="#161615"/>
    <path id="Path_906" data-name="Path 906" d="M51.4,232.929l-.192,0-.014.028a.811.811,0,0,0-.367,1.373.837.837,0,0,0,1.157,0,.816.816,0,0,0,.021-1.154A.827.827,0,0,0,51.4,232.929Z" transform="translate(-5.193 -7.267)" fill="#161615"/>
    <path id="Path_907" data-name="Path 907" d="M47.4,232.93l-.161,0-.015.021a.813.813,0,0,0-.448,1.336l.082.081a.833.833,0,0,0,1.118-.034A.816.816,0,0,0,48,233.181.783.783,0,0,0,47.4,232.93Z" transform="translate(-3.74 -7.267)" fill="#161615"/>
    <path id="Path_908" data-name="Path 908" d="M56.062,220.686l0,0a1.358,1.358,0,0,0,.028-1.92,1.412,1.412,0,0,0-1.962-.029,1.366,1.366,0,0,0,.006,1.945,1.407,1.407,0,0,0,1.923.008Z" transform="translate(-6.334 -1.979)" fill="#161615"/>
  </g>
</svg>
