<svg xmlns="http://www.w3.org/2000/svg" width="14.229" height="17.587" viewBox="0 0 14.229 17.587">
  <g id="Group_255" data-name="Group 255" transform="translate(0 0)">
    <g id="Group_252" data-name="Group 252">
      <g id="Group_251" data-name="Group 251">
        <path id="Path_324" data-name="Path 324" d="M929.454,593.908a7.1,7.1,0,0,0-11.674,0,7.1,7.1,0,0,0-.827,6.544,5.609,5.609,0,0,0,1.03,1.7l5.167,6.067a.614.614,0,0,0,.935,0l5.164-6.066a5.622,5.622,0,0,0,1.032-1.7A7.108,7.108,0,0,0,929.454,593.908Zm-.325,6.118a4.4,4.4,0,0,1-.811,1.328l0,0-4.7,5.517-4.7-5.521a4.387,4.387,0,0,1-.813-1.332,5.877,5.877,0,0,1,.687-5.413,5.871,5.871,0,0,1,9.652,0A5.88,5.88,0,0,1,929.129,600.026Z" transform="translate(-916.502 -590.851)" fill="#828282"/>
      </g>
    </g>
    <g id="Group_254" data-name="Group 254" transform="translate(3.671 3.648)">
      <g id="Group_253" data-name="Group 253">
        <path id="Path_325" data-name="Path 325" d="M922.461,593.351a3.444,3.444,0,1,0,3.445,3.444A3.448,3.448,0,0,0,922.461,593.351Zm0,5.659a2.214,2.214,0,1,1,2.215-2.215A2.217,2.217,0,0,1,922.461,599.009Z" transform="translate(-919.018 -593.351)" fill="#828282"/>
      </g>
    </g>
  </g>
</svg>
