<svg xmlns="http://www.w3.org/2000/svg" width="18.159" height="18.463" viewBox="0 0 18.159 18.463">
  <path id="Path_164" data-name="Path 164" d="M171.584,86.465h-1.265v-.957a.668.668,0,0,0-1.337,0v.957h-6.925v-.957a.668.668,0,0,0-1.336,0v.957h-1.266a3.018,3.018,0,0,0-3.015,3.015v10.807a3.019,3.019,0,0,0,3.015,3.015h12.128a3.019,3.019,0,0,0,3.016-3.015V89.48A3.019,3.019,0,0,0,171.584,86.465Zm1.679,7.233v6.59a1.68,1.68,0,0,1-1.679,1.678H159.456a1.68,1.68,0,0,1-1.678-1.678V93.7Zm-11.87-3.685a.669.669,0,0,0,.668-.669V87.8h6.921v1.544a.668.668,0,1,0,1.337,0V87.8h1.265a1.681,1.681,0,0,1,1.679,1.679v2.881H157.778V89.48a1.681,1.681,0,0,1,1.678-1.679h1.268v1.544A.67.67,0,0,0,161.393,90.014Z" transform="translate(-156.441 -84.84)" fill="#9f9f9f"/>
</svg>
