<svg xmlns="http://www.w3.org/2000/svg" width="16.017" height="17.562" viewBox="0 0 16.017 17.562">
  <g id="Group_1545" data-name="Group 1545" transform="translate(-6.593 -5.855)">
    <g id="Group_1529" data-name="Group 1529" transform="translate(4.991 4.991)">
      <path id="Path_1037" data-name="Path 1037" d="M35.518,22.8A6.054,6.054,0,0,0,31.2,24.453l-5.518,5.226a.941.941,0,0,0,1.3,1.363L32.5,25.816a4.108,4.108,0,0,1,2.986-1.136,4.173,4.173,0,0,1,2.759,7.206l-6.232,5.875a2.64,2.64,0,1,1-3.635-3.83l5.94-5.615a1.051,1.051,0,0,1,.811-.292,1.037,1.037,0,0,1,.779.357,1.126,1.126,0,0,1-.032,1.59L33.7,31.983A.941.941,0,1,0,35,33.346L37.174,31.3a2.988,2.988,0,0,0,.1-4.252,3.032,3.032,0,0,0-2.11-.941,2.908,2.908,0,0,0-2.142.811l-5.94,5.648a4.517,4.517,0,0,0-.162,6.394,4.446,4.446,0,0,0,3.278,1.4,4.622,4.622,0,0,0,3.116-1.233l6.2-5.875a6.056,6.056,0,0,0,.227-8.569A6.126,6.126,0,0,0,35.518,22.8Z" transform="translate(-23.785 -21.932)" fill="currentColor"/>
    </g>
  </g>
</svg>
