<svg xmlns="http://www.w3.org/2000/svg" width="141.249" height="121.527" viewBox="0 0 141.249 121.527">
  <g id="Group_757" data-name="Group 757" transform="translate(-4183.778 -761.535)">
    <g id="Group_755" data-name="Group 755" transform="translate(4213.759 761.535)">
      <path id="Path_641" data-name="Path 641" d="M4313.757,768.714a3.989,3.989,0,0,1,3.989-3.989h45.871l29.916,23.933v79.776a3.989,3.989,0,0,1-3.989,3.989h-71.8a3.989,3.989,0,0,1-3.989-3.989Z" transform="translate(-4313.003 -763.971)" fill="#fff"/>
      <path id="Path_642" data-name="Path 642" d="M4390.344,842.066V866a3.234,3.234,0,0,1-3.234,3.234h-71.8a3.234,3.234,0,0,1-3.233-3.234V766.279a3.233,3.233,0,0,1,3.234-3.234h45.606l29.426,23.541v32.645a.755.755,0,0,0,1.51,0V786.223a.756.756,0,0,0-.283-.59L4361.655,761.7a.754.754,0,0,0-.472-.166h-45.871a4.744,4.744,0,0,0-4.744,4.744V866a4.744,4.744,0,0,0,4.744,4.743h71.8a4.744,4.744,0,0,0,4.744-4.743V842.066a.755.755,0,1,0-1.51,0Z" transform="translate(-4310.568 -761.535)" fill="#545454"/>
      <path id="Path_643" data-name="Path 643" d="M4524.616,764.728l29.916,23.933h-25.927a3.989,3.989,0,0,1-3.989-3.989Z" transform="translate(-4474.001 -763.973)" fill="#aaa"/>
      <path id="Path_644" data-name="Path 644" d="M4522.936,770.268v-6.407l27.009,21.607H4526.17a3.233,3.233,0,0,1-3.234-3.234V780.24a.755.755,0,0,0-1.51,0v1.994a4.744,4.744,0,0,0,4.744,4.744H4552.1a.755.755,0,0,0,.471-1.344L4522.652,761.7a.755.755,0,0,0-1.227.59v7.978a.755.755,0,0,0,1.51,0Z" transform="translate(-4471.565 -761.536)" fill="#545454"/>
      <circle id="Ellipse_41" data-name="Ellipse 41" cx="8.941" cy="8.941" r="8.941" transform="translate(11.786 11.13) rotate(-3.579)" fill="#c7ceff"/>
      <path id="Path_645" data-name="Path 645" d="M4369.2,820.863a8.186,8.186,0,1,1,8.186-8.186,7.342,7.342,0,0,1-1.272,4.4.755.755,0,0,0,1.132,1,9,9,0,0,0,1.65-5.4,9.7,9.7,0,1,0-9.7,9.7.755.755,0,0,0,0-1.51Z" transform="translate(-4347.934 -793.18)" fill="#545454"/>
      <path id="Path_646" data-name="Path 646" d="M4384.95,823.606a4.819,4.819,0,1,0,4.819,4.819A4.821,4.821,0,0,0,4384.95,823.606Zm0,1.51a3.309,3.309,0,1,1-3.31,3.309A3.311,3.311,0,0,1,4384.95,825.116Z" transform="translate(-4363.682 -808.929)" fill="#545454"/>
      <path id="Path_647" data-name="Path 647" d="M4415.375,852.454a1.7,1.7,0,0,1-2.727-2,.755.755,0,1,0-1.312-.747,3.214,3.214,0,0,0,5.141,3.784.755.755,0,1,0-1.1-1.032Z" transform="translate(-4387.188 -828.563)" fill="#545454"/>
    </g>
    <g id="Group_756" data-name="Group 756" transform="translate(4220.362 811.579)">
      <path id="Path_648" data-name="Path 648" d="M4477.393,988.351a14.375,14.375,0,0,0-19.636-5.262l-14.365,8.293a14.376,14.376,0,0,0-5.262,19.637l1.106,1.915a14.375,14.375,0,0,0,19.637,5.262l14.364-8.293a14.375,14.375,0,0,0,5.262-19.637l-1.106-1.915Zm-5.746,3.317,1.106,1.915a7.741,7.741,0,0,1-2.833,10.573l-14.365,8.293a7.741,7.741,0,0,1-10.574-2.833l-1.105-1.915a7.74,7.74,0,0,1,2.833-10.574l14.364-8.293a7.74,7.74,0,0,1,10.573,2.833Z" transform="translate(-4413.098 -979.273)" fill="#c7ceff"/>
      <path id="Path_649" data-name="Path 649" d="M4382.829,983.553a14.375,14.375,0,0,0-19.637-5.262l-14.364,8.293a14.375,14.375,0,0,0-5.262,19.637l1.106,1.915a14.375,14.375,0,0,0,19.637,5.262l14.364-8.293a14.375,14.375,0,0,0,5.262-19.636l-1.106-1.915Zm-5.746,3.317,1.106,1.915a7.741,7.741,0,0,1-2.833,10.573l-14.364,8.293a7.741,7.741,0,0,1-10.574-2.833l-1.105-1.915a7.74,7.74,0,0,1,2.833-10.573l14.364-8.293a7.74,7.74,0,0,1,10.574,2.833Z" transform="translate(-4340.896 -975.61)" fill="#fff"/>
      <path id="Path_650" data-name="Path 650" d="M4488.323,993.981l-9.576,5.529,3.317,5.746,9.576-5.529Z" transform="translate(-4445.581 -989.06)" fill="#c7ceff"/>
      <path id="Path_651" data-name="Path 651" d="M4382.818,978.727a15.13,15.13,0,0,0-19.282-3.53l-14.364,8.294a15.129,15.129,0,0,0-6.533,7.612.755.755,0,0,0,1.407.548,13.619,13.619,0,0,1,5.881-6.852l14.365-8.293a13.62,13.62,0,0,1,17.357,3.178.755.755,0,0,0,1.169-.955Z" transform="translate(-4341.618 -973.17)" fill="#545454"/>
      <path id="Path_652" data-name="Path 652" d="M4338.49,1046.415a15.129,15.129,0,0,0,2.016,6.98l1.106,1.915a15.131,15.131,0,0,0,20.668,5.538l14.364-8.293a15.129,15.129,0,0,0,7.525-14.2.755.755,0,1,0-1.506.11,13.621,13.621,0,0,1-6.774,12.783l-14.364,8.293a13.62,13.62,0,0,1-18.605-4.985l-1.106-1.915a13.619,13.619,0,0,1-1.814-6.284.755.755,0,0,0-1.509.058Z" transform="translate(-4338.49 -1022.406)" fill="#545454"/>
      <path id="Path_653" data-name="Path 653" d="M4397.281,1010.094a6.984,6.984,0,0,1-3.319,7.6l-14.364,8.293a6.985,6.985,0,0,1-9.542-2.557l-1.105-1.915a6.985,6.985,0,0,1,2.557-9.542l14.364-8.293a6.985,6.985,0,0,1,4.109-.909.755.755,0,1,0,.133-1.5,8.5,8.5,0,0,0-5,1.1l-14.364,8.293a8.5,8.5,0,0,0-3.109,11.6l1.105,1.915a8.5,8.5,0,0,0,11.6,3.109l14.364-8.293a8.5,8.5,0,0,0,4.037-9.237.755.755,0,0,0-1.473.334Z" transform="translate(-4359.879 -994.594)" fill="#545454"/>
      <path id="Path_654" data-name="Path 654" d="M4462.754,1024.36a6.983,6.983,0,0,1,3.32-7.6l14.364-8.293a6.984,6.984,0,0,1,9.542,2.557l1.106,1.915a6.985,6.985,0,0,1-2.557,9.542l-14.364,8.294a6.985,6.985,0,0,1-3.964.92.755.755,0,0,0-.1,1.506,8.494,8.494,0,0,0,4.821-1.119l14.364-8.293a8.5,8.5,0,0,0,3.11-11.6l-1.106-1.915a8.495,8.495,0,0,0-11.6-3.109l-14.365,8.293a8.495,8.495,0,0,0-4.037,9.237.755.755,0,1,0,1.472-.334Z" transform="translate(-4432.085 -998.257)" fill="#545454"/>
      <path id="Path_655" data-name="Path 655" d="M4451.677,1021.58a15.131,15.131,0,0,0,19.257,3.5l14.364-8.293a15.129,15.129,0,0,0,5.538-20.668l-1.105-1.915a15.129,15.129,0,0,0-4.3-4.74.755.755,0,0,0-.878,1.228,13.614,13.614,0,0,1,3.871,4.267l1.106,1.915a13.621,13.621,0,0,1-4.985,18.605l-14.364,8.294a13.621,13.621,0,0,1-17.335-3.151.755.755,0,0,0-1.167.958Z" transform="translate(-4424.781 -985.503)" fill="#545454"/>
      <path id="Path_656" data-name="Path 656" d="M4466.42,978.485A15.13,15.13,0,0,0,4454.939,980l-14.364,8.293a15.129,15.129,0,0,0-7.546,13.857.755.755,0,1,0,1.508-.075,13.621,13.621,0,0,1,6.793-12.474l14.364-8.293a13.621,13.621,0,0,1,10.335-1.361.755.755,0,0,0,.391-1.458Z" transform="translate(-4410.66 -976.835)" fill="#545454"/>
    </g>
    <ellipse id="Ellipse_42" data-name="Ellipse 42" cx="70.625" cy="3.338" rx="70.625" ry="3.338" transform="translate(4183.778 876.385)" fill="#c7ceff"/>
  </g>
</svg>
