<svg xmlns="http://www.w3.org/2000/svg" width="18.689" height="19.304" fill="#17499e" viewBox="0 0 18.689 19.304">
  <g id="Group_758" data-name="Group 758" transform="translate(-365 -101)">
    <path id="Path_168" data-name="Path 168" d="M253.6,99.869a5.345,5.345,0,0,1-4.08-1.917,6.306,6.306,0,0,1-1.5-4.336,6.243,6.243,0,0,1,1.766-4.218l3.22-3.49a2.973,2.973,0,0,1,4.443,0,3.607,3.607,0,0,1,0,4.813l-2.762,2.991a3.3,3.3,0,0,1-.958-1.038l2.762-2.992a2.062,2.062,0,0,0,0-2.748,1.7,1.7,0,0,0-2.536,0l-3.207,3.474a4.85,4.85,0,0,0,0,6.426,4.018,4.018,0,0,0,6,.082l7.568-8.2.012-.016a4.2,4.2,0,0,0,0-5.178,3.518,3.518,0,0,0-2.732-1.342,3.469,3.469,0,0,0-2.389.974l-.027.027-.14.152a3.3,3.3,0,0,1-.958-1.039l.14-.151a4.7,4.7,0,0,1,7.012-.02l.02.021a5.706,5.706,0,0,1,0,7.615l-7.554,8.179c-.1.111-.185.206-.274.3a5.342,5.342,0,0,1-3.816,1.633Z" transform="translate(116.99 20.435)" fill="currentColor"/>
  </g>
</svg>
