<svg xmlns="http://www.w3.org/2000/svg" width="17.427" height="18" viewBox="0 0 17.427 18">
  <path id="Path_966" data-name="Path 966" d="M253.22,98.565a4.984,4.984,0,0,1-3.8-1.787,5.88,5.88,0,0,1-1.4-4.043A5.821,5.821,0,0,1,249.66,88.8l3-3.254a2.772,2.772,0,0,1,4.142,0,3.364,3.364,0,0,1,0,4.488l-2.575,2.789a3.081,3.081,0,0,1-.894-.968l2.575-2.79a1.923,1.923,0,0,0,0-2.562,1.583,1.583,0,0,0-2.365,0l-2.99,3.239a4.522,4.522,0,0,0,0,5.992,3.747,3.747,0,0,0,5.6.077l7.056-7.646.011-.014a3.911,3.911,0,0,0,0-4.828,3.28,3.28,0,0,0-2.548-1.252,3.235,3.235,0,0,0-2.227.908l-.025.025-.131.142a3.077,3.077,0,0,1-.894-.969l.131-.141a4.386,4.386,0,0,1,6.539-.019l.018.02a5.321,5.321,0,0,1,0,7.1l-7.043,7.626c-.09.1-.172.193-.256.278a4.981,4.981,0,0,1-3.558,1.523Z" transform="translate(-248.01 -80.565)" fill="#252525"/>
</svg>
