<svg xmlns="http://www.w3.org/2000/svg" width="77.239" height="88.273" viewBox="0 0 77.239 88.273">
  <g id="Group_1293" data-name="Group 1293" transform="translate(-1753.088)">
    <g id="Group_1267" data-name="Group 1267" transform="translate(1753.088)">
      <path id="Path_1000" data-name="Path 1000" d="M1822.605,0a5.533,5.533,0,0,0-5.517,5.517V82.756a5.533,5.533,0,0,0,5.517,5.517h55.171a5.533,5.533,0,0,0,5.517-5.517V22.068L1861.225,0Z" transform="translate(-1806.054)" fill="#e2e5e7"/>
      <path id="Path_1001" data-name="Path 1001" d="M2078.6,22.068h16.552L2073.088,0V16.551A5.533,5.533,0,0,0,2078.6,22.068Z" transform="translate(-2017.917)" fill="#b0b7bd"/>
      <path id="Path_1002" data-name="Path 1002" d="M2121.639,144.551,2105.088,128h16.551Z" transform="translate(-2044.4 -105.932)" fill="#cad1d8"/>
      <path id="Path_1003" data-name="Path 1003" d="M1819.293,350.344a2.767,2.767,0,0,1-2.759,2.759h-60.688a2.767,2.767,0,0,1-2.759-2.759V322.758a2.767,2.767,0,0,1,2.759-2.759h60.688a2.767,2.767,0,0,1,2.759,2.759Z" transform="translate(-1753.088 -264.829)" fill="#7d6599"/>
    </g>
    <path id="Path_1004" data-name="Path 1004" d="M1925.5,62.451a15.192,15.192,0,0,0-2.969-3.024c-5.035-4.028-6.119-8.074-6.255-8.668V49.606a1.286,1.286,0,1,0-2.573,0V73.29h-4.767c-4.994,0-8.1,2.523-8.1,6.582,0,4.459,2.881,7.34,7.34,7.34a8.1,8.1,0,0,0,8.1-8.1V64.358l.383.313a19.4,19.4,0,0,0,1.957,1.55c2.982,2.2,7.976,5.875,6.72,10.025a1.311,1.311,0,0,0-.055.374,1.286,1.286,0,0,0,2.518.373A16.369,16.369,0,0,0,1925.5,62.451Zm-11.8,16.665a5.529,5.529,0,0,1-5.524,5.524c-3.029,0-4.767-1.738-4.767-4.767,0-3.314,3-4.01,5.524-4.01h4.767Zm6.438-14.964a19.762,19.762,0,0,1-1.763-1.391l-2.1-1.724V56.57a23.86,23.86,0,0,0,4.647,4.866,12.735,12.735,0,0,1,2.481,2.508,13.936,13.936,0,0,1,2.3,5.117A30.655,30.655,0,0,0,1920.142,64.152Z" transform="translate(-122.278 -39.988)" fill="#c8bdb8"/>
    <text id="AUDIO" transform="translate(1761.36 78.449)" fill="#fff" font-size="16" font-family="Cairo-Bold, Cairo" font-weight="700" letter-spacing="0.05em"><tspan x="0" y="0">AUDIO</tspan></text>
  </g>
</svg>
