<svg xmlns="http://www.w3.org/2000/svg" width="26.647" height="26.646" viewBox="0 0 26.647 26.646">
  <g id="Group_162" data-name="Group 162" transform="translate(0.43 1.284)">
    <g id="Group_1344" data-name="Group 1344" transform="translate(-410.745 -154.664)">
      <path id="Path_1025" data-name="Path 1025" d="M430.795,160.035H416.483a6.175,6.175,0,0,0-6.168,6.168v7.576a6.174,6.174,0,0,0,6.168,6.167h7a.905.905,0,1,0,0-1.81h-7a4.361,4.361,0,0,1-4.356-4.356V166.2a4.361,4.361,0,0,1,4.356-4.356h14.312a4.36,4.36,0,0,1,4.355,4.356v.684a.906.906,0,1,0,1.811,0V166.2A6.174,6.174,0,0,0,430.795,160.035Z" transform="translate(0 0.08)" fill="#fff"/>
      <path id="Path_1026" data-name="Path 1026" d="M419.593,157.77a.907.907,0,0,0,.906-.906,1.674,1.674,0,0,1,1.672-1.673h2.736a1.675,1.675,0,0,1,1.673,1.673.906.906,0,1,0,1.811,0,3.488,3.488,0,0,0-3.484-3.484H422.17a3.487,3.487,0,0,0-3.483,3.484A.907.907,0,0,0,419.593,157.77Z" transform="translate(0.1)" fill="#fff"/>
      <path id="Path_1027" data-name="Path 1027" d="M432.682,167.953a5.84,5.84,0,0,0-5.883.539v-1.417H425.21l.012,4.149,4.149.011v-1.589h-1.445a4.245,4.245,0,0,1,5.118,6.734,4.247,4.247,0,0,1-6.843-1.707l-.086-.237-1.491.536.086.238a5.834,5.834,0,1,0,7.971-7.258Z" transform="translate(0.171 0.164)" fill="#fff"/>
    </g>
  </g>
</svg>
