<svg xmlns="http://www.w3.org/2000/svg" width="27.813" height="21.343" viewBox="0 0 27.813 21.343">
  <g id="Group_168" data-name="Group 168" transform="translate(-491.086 -116.988)">
    <path id="Path_265" data-name="Path 265" d="M509.306,139.375H492.054a.967.967,0,1,0,0,1.934h17.252a.967.967,0,0,0,0-1.934Z" transform="translate(0 -1.489)" fill="#17499E"/>
    <path id="Path_266" data-name="Path 266" d="M517.931,128.182H492.054a.967.967,0,1,0,0,1.934h25.878a.967.967,0,1,0,0-1.934Z" transform="translate(0 -1.489)" fill="#17499E"/>
    <path id="Path_267" data-name="Path 267" d="M492.054,118.923h17.252a.968.968,0,0,0,0-1.935H492.054a.968.968,0,1,0,0,1.935Z" fill="#17499E"/>
  </g>
</svg>