<svg xmlns="http://www.w3.org/2000/svg" width="16.186" height="16.186" viewBox="0 0 16.186 16.186">
  <path id="Path_887" data-name="Path 887" d="M4460.354,1853.952h-2.176v-1.493a.56.56,0,1,0-1.12,0v1.493h-7.1v-1.493a.56.56,0,1,0-1.12,0v1.493h-2.176a1.25,1.25,0,0,0-1.248,1.248v11.636a1.25,1.25,0,0,0,1.248,1.248h13.69a1.25,1.25,0,0,0,1.248-1.248V1855.2A1.25,1.25,0,0,0,4460.354,1853.952Zm.126,12.182c0,.83,0,.83-.126.83H4448.8c-2.265,0-2.265,0-2.265-.127l0-7.655h13.945Zm0-8.073h-13.945v-2.088c0-.9,0-.9.126-.9h2.176v.808a.56.56,0,1,0,1.12,0v-.808h7.1v.807a.56.56,0,1,0,1.12,0v-.806h.125c2.179,0,2.179,0,2.179.126Z" transform="translate(-4445.416 -1851.898)" fill="#777"/>
</svg>
