<svg xmlns="http://www.w3.org/2000/svg" width="22.695" height="25.631" viewBox="0 0 22.695 25.631">
  <path id="Path_251" data-name="Path 251" d="M65.16,149.892V148.86a1.032,1.032,0,0,0-2.063,0v1.032H54.844V148.86a1.032,1.032,0,0,0-2.063,0v1.032a5.158,5.158,0,0,0-5.158,5.158V168.3a5.158,5.158,0,0,0,5.158,5.158H65.16a5.158,5.158,0,0,0,5.158-5.158V155.05A5.158,5.158,0,0,0,65.16,149.892Zm3.095,18.41a3.1,3.1,0,0,1-3.095,3.1H52.781a3.1,3.1,0,0,1-3.095-3.1V155.05a3.1,3.1,0,0,1,3.095-3.1v1.031a1.032,1.032,0,1,0,2.063,0v-1.031H63.1v1.031a1.032,1.032,0,1,0,2.063,0v-1.031a3.1,3.1,0,0,1,3.095,3.1Z" transform="translate(-47.623 -147.829)" fill="currentColor"/>
</svg>
