<svg id="Group_1194" data-name="Group 1194" xmlns="http://www.w3.org/2000/svg" width="24.328" height="19.766" viewBox="0 0 24.328 19.766">
  <g id="Group_1195" data-name="Group 1195">
    <g id="Group_1194-2" data-name="Group 1194">
      <path id="Path_964" data-name="Path 964" d="M12.164,5.322a5.322,5.322,0,1,0,5.322,5.322A5.322,5.322,0,0,0,12.164,5.322Zm0,9.123a3.8,3.8,0,1,1,3.8-3.8A3.8,3.8,0,0,1,12.164,14.445Zm9.883-11.4H19.006C18.284,3.041,16.725,0,15.965,0h-7.6C7.542,0,6.013,3.041,5.322,3.041H2.281A2.281,2.281,0,0,0,0,5.322V17.485a2.281,2.281,0,0,0,2.281,2.281H22.047a2.281,2.281,0,0,0,2.281-2.281V5.322A2.281,2.281,0,0,0,22.047,3.041Zm.76,13.684a1.52,1.52,0,0,1-1.52,1.52H3.041a1.52,1.52,0,0,1-1.52-1.52V6.082a1.52,1.52,0,0,1,1.52-1.52H6.082c.7,0,2.227-3.041,3.041-3.041H15.2c.76,0,2.281,3.041,3,3.041h3.087a1.52,1.52,0,0,1,1.52,1.52Z" fill="currentColor"/>
    </g>
  </g>
</svg>
