<svg xmlns="http://www.w3.org/2000/svg" width="14.084" height="14.084" viewBox="0 0 14.084 14.084">
  <g id="Group_182" data-name="Group 182" transform="translate(-233.167 -162.333)">
    <path id="Path_280" data-name="Path 280" d="M243.73,172.03H239.5V167.8a.666.666,0,0,0-.7-.7,5.634,5.634,0,1,0,5.633,5.633A.665.665,0,0,0,243.73,172.03Zm-4.93,4.929a4.237,4.237,0,0,1-4.225-4.225,4.182,4.182,0,0,1,3.521-4.155v4.155a.666.666,0,0,0,.7.7h4.155A4.181,4.181,0,0,1,238.8,176.958Z" transform="translate(0 -1.95)" fill="#17338d"/>
    <path id="Path_281" data-name="Path 281" d="M246.979,162.333a.666.666,0,0,0-.7.7v4.93a.665.665,0,0,0,.7.7h4.929a.665.665,0,0,0,.7-.7A5.65,5.65,0,0,0,246.979,162.333Zm.7,4.93v-3.45a4.187,4.187,0,0,1,3.45,3.45Z" transform="translate(-5.362 0)" fill="#17338d"/>
  </g>
</svg>
