<svg xmlns="http://www.w3.org/2000/svg" width="22.701" height="21.282" viewBox="0 0 22.701 21.282">
  <g id="Group_185" data-name="Group 185" transform="translate(-411.398 -116.238)">
    <circle id="Ellipse_38" data-name="Ellipse 38" cx="1.421" cy="1.421" r="1.421" transform="translate(417.067 122.508)" fill="#17499e"/>
    <circle id="Ellipse_39" data-name="Ellipse 39" cx="1.421" cy="1.421" r="1.421" transform="translate(421.329 122.508)" fill="#17499e"/>
    <circle id="Ellipse_40" data-name="Ellipse 40" cx="1.421" cy="1.421" r="1.421" transform="translate(425.589 122.508)" fill="#17499e"/>
    <path id="Path_264" data-name="Path 264" d="M431.971,116.238H413.527a2.135,2.135,0,0,0-2.129,2.129v11.35a2.135,2.135,0,0,0,2.129,2.129.711.711,0,0,1,.709.709v4.256a.7.7,0,0,0,.426.639.425.425,0,0,0,.284.071.7.7,0,0,0,.5-.213l4.683-4.683a3.269,3.269,0,0,1,1.915-.78h8.513a.709.709,0,1,0,0-1.419h-8.513a4.657,4.657,0,0,0-2.908,1.206l-3.476,3.476v-2.554a2.135,2.135,0,0,0-2.129-2.128.712.712,0,0,1-.71-.71v-11.35a.711.711,0,0,1,.71-.709h18.444a.711.711,0,0,1,.71.709V128.3a.709.709,0,1,0,1.419,0v-9.931A2.135,2.135,0,0,0,431.971,116.238Z" fill="#17499e"/>
  </g>
</svg>
