<svg id="chat-right-dots" xmlns="http://www.w3.org/2000/svg" width="23" height="21.983" viewBox="0 0 23 21.983">
  <path id="Path_569" data-name="Path 569" d="M2.875,1.438h17.25a1.438,1.438,0,0,1,1.438,1.438V19.53l-2.875-2.875a2.875,2.875,0,0,0-2.032-.843H2.875a1.437,1.437,0,0,1-1.437-1.437V2.875A1.437,1.437,0,0,1,2.875,1.438ZM20.125,0A2.875,2.875,0,0,1,23,2.875v18.39a.719.719,0,0,1-1.227.507l-4.1-4.1a1.438,1.438,0,0,0-1.016-.421H2.875A2.875,2.875,0,0,1,0,14.375V2.875A2.875,2.875,0,0,1,2.875,0Z" fill="#17499e"/>
  <path id="Path_570" data-name="Path 570" d="M9.625,12.688A1.438,1.438,0,1,1,8.188,11.25,1.437,1.437,0,0,1,9.625,12.688Zm5.75,0a1.438,1.438,0,1,1-1.437-1.437A1.438,1.438,0,0,1,15.375,12.688Zm5.75,0a1.438,1.438,0,1,1-1.437-1.437A1.437,1.437,0,0,1,21.125,12.688Z" transform="translate(-2.438 -4.063)" fill="#17499e"/>
</svg>
