<svg xmlns="http://www.w3.org/2000/svg" width="17.201" height="9.644" viewBox="0 0 17.201 9.644">
  <g id="Group_278" data-name="Group 278" transform="translate(0 0)">
    <path id="Path_324" data-name="Path 324" d="M20.371,24.029a3.3,3.3,0,1,0,2.686-3.242A3.334,3.334,0,0,0,20.371,24.029Zm5.4,0a2.1,2.1,0,1,1-1.687-2.059A2.116,2.116,0,0,1,25.771,24.029Z" transform="translate(-15.07 -17.685)" fill="#777"/>
    <path id="Path_325" data-name="Path 325" d="M19.705,16.867A8.723,8.723,0,0,0,14.8,11.3a8.934,8.934,0,0,0-8.239.647A8.62,8.62,0,0,0,3.5,15.35a9.28,9.28,0,0,0-.522,1.108,2.864,2.864,0,0,0-.268,1.128.7.7,0,0,0,.021.069.6.6,0,0,0,.788.371.694.694,0,0,0,.371-.447c.052-.143.089-.3.137-.438a8.014,8.014,0,0,1,.417-.993c.1-.2.212-.39.328-.577l0,0A7.286,7.286,0,0,1,7.7,12.722a7.872,7.872,0,0,1,8.067.546,7.29,7.29,0,0,1,2.5,3.181A7.869,7.869,0,0,1,18.6,17.47c.082.321.1.706.393.891a.5.5,0,0,0,.044.029.6.6,0,0,0,.815-.311.644.644,0,0,0,.026-.067A2.852,2.852,0,0,0,19.705,16.867Z" transform="translate(-2.703 -10.583)" fill="#777"/>
  </g>
</svg>
