<svg xmlns="http://www.w3.org/2000/svg" width="16.81" height="16.81" viewBox="0 0 16.81 16.81">
  <g id="noun_Time_4150952" transform="translate(-57 6.81)">
    <g id="_01" data-name="01" transform="translate(53 -10.81)">
      <path id="Path_888" data-name="Path 888" d="M12.405,4a8.405,8.405,0,1,0,8.405,8.405A8.405,8.405,0,0,0,12.405,4Zm0,15.409a7,7,0,1,1,7-7,7,7,0,0,1-7,7Zm2.949-5.05a.7.7,0,1,1-.988.988L11.915,12.9a.7.7,0,0,1-.21-.49V7.5a.7.7,0,0,1,1.4,0v4.616Z" fill="#00008B"/>
    </g>
  </g>
</svg>
