<svg xmlns="http://www.w3.org/2000/svg" width="17.297" height="20" viewBox="0 0 17.297 20">
  <g id="Group_271" data-name="Group 271" transform="translate(-11.05 -5)">
    <path id="Path_315" data-name="Path 315" d="M43.606,6.248a.625.625,0,0,0,0-1.248h-3.45a.625.625,0,0,0,0,1.248Z" transform="translate(-22.194)" fill="#17499e"/>
    <path id="Path_316" data-name="Path 316" d="M11.05,24.236a8.648,8.648,0,1,0,14.625-6.22l.534-.532.39.39a.621.621,0,0,0,.444.182.612.612,0,0,0,.444-.182.623.623,0,0,0,.006-.881l-.006-.006-1.643-1.632a.627.627,0,0,0-.887.887l.37.37-.612.612A8.631,8.631,0,0,0,11.05,24.236Zm8.637-7.391A7.391,7.391,0,1,1,12.3,24.236h0A7.4,7.4,0,0,1,19.687,16.845Z" transform="translate(0 -7.916)" fill="#17499e"/>
    <path id="Path_317" data-name="Path 317" d="M47.813,42.532a.623.623,0,0,0,.623-.623h0V37.875a.623.623,0,0,0-1.246,0v4.034A.623.623,0,0,0,47.813,42.532Z" transform="translate(-28.126 -25.1)" fill="#17499e"/>
  </g>
</svg>
