<svg
  xmlns="http://www.w3.org/2000/svg"
  width="15.639"
  height="15.587"
  viewBox="0 0 15.639 15.587"
  fill="#17499e">
  <g
    id="Group_1608"
    data-name="Group 1608"
    transform="translate(-375.332 -79.504)">
    <path
      id="Icon_ionic-ios-arrow-back"
      data-name="Icon ionic-ios-arrow-back"
      d="M2.686,7.792,8.584,1.9A1.114,1.114,0,0,0,7.006.325L.324,7A1.112,1.112,0,0,0,.292,8.539L7,15.262a1.114,1.114,0,1,0,1.578-1.573Z"
      transform="translate(384.244 95.091) rotate(180)"
      fill="#17499e"
    />
    <path
      id="Icon_ionic-ios-arrow-back-2"
      data-name="Icon ionic-ios-arrow-back"
      d="M2.686,7.8l5.9,5.893a1.114,1.114,0,0,1-1.578,1.573L.324,8.585A1.112,1.112,0,0,1,.292,7.049L7,.325A1.114,1.114,0,0,1,8.579,1.9Z"
      transform="translate(382.06 79.504)"
      fill="#17499e"
    />
  </g>
</svg>
