<svg id="Group_4" data-name="Group 4" xmlns="http://www.w3.org/2000/svg" width="24.782" height="24.526" viewBox="0 0 24.782 24.526">
  <path id="Path_9" data-name="Path 9" d="M139.542,429.2v13.787a2.72,2.72,0,0,1-2.717,2.721h-1.988a.907.907,0,1,1,0-1.813h1.985a.908.908,0,0,0,.906-.906V429.2a.91.91,0,0,0-.471-.8l-9.671-5.292a.9.9,0,0,0-.906,0l-9.636,5.3a.906.906,0,0,0-.471.8v13.779a.907.907,0,0,0,.906.906h9.762a.906.906,0,0,1,0,1.813h-9.762a2.719,2.719,0,0,1-2.719-2.719V429.2a2.717,2.717,0,0,1,1.414-2.384l9.671-5.3a2.718,2.718,0,0,1,2.61,0l9.671,5.3A2.719,2.719,0,0,1,139.542,429.2Z" transform="translate(-114.76 -421.186)" fill="#fff"/>
</svg>
