<svg xmlns="http://www.w3.org/2000/svg" width="19.226" height="23.142" viewBox="0 0 19.226 23.142">
  <g id="download_11_" data-name="download (11)" transform="translate(-246.957 -220.715)">
    <path id="Path_1879" data-name="Path 1879" d="M263.617,243.857h-14.1a2.573,2.573,0,0,1-2.565-2.565v-15a2.565,2.565,0,0,1,2.565-2.565h3.521a3.572,3.572,0,0,1,7.055,0h3.52a2.565,2.565,0,0,1,2.565,2.565v15a2.572,2.572,0,0,1-2.565,2.565Zm-14.1-19.027a1.47,1.47,0,0,0-1.47,1.47v14.992a1.47,1.47,0,0,0,1.47,1.47h14.1a1.47,1.47,0,0,0,1.47-1.47v-15a1.47,1.47,0,0,0-1.47-1.47H259.59a.559.559,0,0,1-.551-.551,2.469,2.469,0,1,0-4.939,0,.559.559,0,0,1-.551.551Z" transform="translate(0 0)" fill="#e53935"/>
    <path id="Path_1880" data-name="Path 1880" d="M367.609,259.428a.735.735,0,1,1-.735-.735.735.735,0,0,1,.735.735" transform="translate(-110.305 -35.148)" fill="#e53935"/>
    <path id="Path_1881" data-name="Path 1881" d="M298.536,337.268a.735.735,0,1,1-.735-.735.735.735,0,0,1,.735.735" transform="translate(-46.376 -107.19)" fill="#e53935"/>
    <path id="Path_1882" data-name="Path 1882" d="M346.908,340.105h-7.349a.551.551,0,1,1,0-1.1h7.349a.551.551,0,1,1,0,1.1Z" transform="translate(-85.194 -109.477)" fill="#e53935"/>
    <path id="Path_1883" data-name="Path 1883" d="M298.536,396.468a.735.735,0,1,1-.735-.735.735.735,0,0,1,.735.735" transform="translate(-46.376 -161.98)" fill="#e53935"/>
    <path id="Path_1884" data-name="Path 1884" d="M346.908,399.3h-7.349a.551.551,0,0,1,0-1.1h7.349a.551.551,0,0,1,0,1.1Z" transform="translate(-85.194 -164.263)" fill="#e53935"/>
    <path id="Path_1885" data-name="Path 1885" d="M298.536,455.668a.735.735,0,1,1-.735-.735.735.735,0,0,1,.735.735" transform="translate(-46.376 -216.771)" fill="#e53935"/>
    <path id="Path_1886" data-name="Path 1886" d="M346.908,458.5h-7.349a.551.551,0,0,1,0-1.1h7.349a.551.551,0,0,1,0,1.1Z" transform="translate(-85.194 -219.053)" fill="#e53935"/>
  </g>
</svg>
