<svg xmlns="http://www.w3.org/2000/svg" width="287.445" height="182.935" viewBox="0 0 287.445 182.935">
  <g id="Group_799" data-name="Group 799" transform="translate(-63 -225.758)">
    <g id="Group_798" data-name="Group 798" transform="translate(-18.096 124.983)" opacity="0.6">
      <path id="Path_912" data-name="Path 912" d="M368.541,171.468V160.749a7.707,7.707,0,0,0-7.707-7.707h-27.2a7.707,7.707,0,0,1-7.708-7.707h0V134.615a7.707,7.707,0,0,1,7.708-7.707h.859A7.707,7.707,0,0,0,342.2,119.2h0V108.482a7.707,7.707,0,0,0-7.708-7.707H133.017a7.707,7.707,0,0,0-7.707,7.707h0V119.2a7.707,7.707,0,0,0,7.707,7.708h0a7.707,7.707,0,0,1,7.707,7.707h0v10.719a7.707,7.707,0,0,1-7.707,7.707h-29.8a7.707,7.707,0,0,0-7.707,7.707h0v10.719a7.707,7.707,0,0,0,7.707,7.707h11.694a7.707,7.707,0,0,1,7.707,7.707h0V197.6a7.707,7.707,0,0,1-7.707,7.707h-.028a7.707,7.707,0,0,0-7.707,7.707v10.719a7.707,7.707,0,0,0,7.707,7.707h1.692a7.707,7.707,0,0,1,7.707,7.707v10.72a7.707,7.707,0,0,1-7.707,7.707H88.8a7.707,7.707,0,0,0-7.707,7.707V276A7.707,7.707,0,0,0,88.8,283.71H338.626A7.707,7.707,0,0,0,346.334,276h0V265.284a7.707,7.707,0,0,0-7.708-7.707h-6.682a7.707,7.707,0,0,1-7.708-7.707V239.15a7.707,7.707,0,0,1,7.708-7.708H347.7a7.707,7.707,0,0,0,7.707-7.707h0V213.017a7.707,7.707,0,0,0-7.707-7.707h-4.78a7.707,7.707,0,0,1-7.707-7.707h0v-10.72a7.707,7.707,0,0,1,7.707-7.707h17.913a7.707,7.707,0,0,0,7.707-7.707Z" transform="translate(0 0)" fill="#f8f8f8"/>
      <rect id="Rectangle_467" data-name="Rectangle 467" width="94.187" height="85.702" transform="translate(161.509 177.981)" fill="#cfcfcf"/>
      <rect id="Rectangle_468" data-name="Rectangle 468" width="50.063" height="85.702" transform="translate(255.696 177.981)" fill="#d5d5d5"/>
      <path id="Path_913" data-name="Path 913" d="M427.464,215.349H377.4l17.148-23.389a1.768,1.768,0,0,1,1.426-.723h45.679a1.768,1.768,0,0,1,1.425,2.813Z" transform="translate(-121.705 -37.157)" fill="#d5d5d5"/>
      <path id="Path_914" data-name="Path 914" d="M206.833,215.349H256.9L239.748,191.96a1.767,1.767,0,0,0-1.425-.723H192.644a1.768,1.768,0,0,0-1.426,2.813Z" transform="translate(-45.091 -37.157)" fill="#cfcfcf"/>
      <path id="Path_915" data-name="Path 915" d="M490.605,263.388l-28.244-31.231h0V266.31h26.906a1.768,1.768,0,0,0,1.339-2.922Z" transform="translate(-156.602 -53.964)" fill="#d5d5d5"/>
      <rect id="Rectangle_469" data-name="Rectangle 469" width="74.707" height="62.813" transform="translate(174.1 118.492)" fill="#ececec"/>
      <path id="Path_916" data-name="Path 916" d="M294.105,228.246H268.089a2.861,2.861,0,0,1-2.478-4.292l13.008-22.531,13.008-22.531a2.86,2.86,0,0,1,4.955,0l13.008,22.531L322.6,223.955a2.86,2.86,0,0,1-2.477,4.292Z" transform="translate(-81.771 -52.681)" fill="#fff" stroke="#fff" stroke-width="1"/>
      <path id="Path_917" data-name="Path 917" d="M298.833,192.3h0a1.431,1.431,0,0,1,1.431,1.431v21.336a1.431,1.431,0,0,1-1.431,1.431h0a1.431,1.431,0,0,1-1.431-1.431V193.732A1.431,1.431,0,0,1,298.833,192.3Z" transform="translate(-86.499 -54.861)" fill="#cfcfcf"/>
      <ellipse id="Ellipse_77" data-name="Ellipse 77" cx="3.424" cy="3.424" rx="3.424" ry="3.424" transform="translate(208.589 170.31) rotate(-84.345)" fill="#cfcfcf"/>
      <path id="Path_918" data-name="Path 918" d="M262.036,266.31H172.519a1.767,1.767,0,0,1-1.338-2.922l26.941-31.231h94.187L263.375,265.7A1.769,1.769,0,0,1,262.036,266.31Z" transform="translate(-36.825 -53.964)" fill="#e1e1e1"/>
    </g>
  </g>
</svg>
