<svg xmlns="http://www.w3.org/2000/svg" width="29.545" height="29.545" viewBox="0 0 29.545 29.545">
  <path id="Path_659" data-name="Path 659" d="M9.233,19.809a3.5,3.5,0,0,0,7.006,0,.761.761,0,0,1,1.523,0,5.026,5.026,0,1,1-5.026-5.026h0a.761.761,0,1,1,0,1.523A3.506,3.506,0,0,0,9.233,19.809Zm-6.092,2.6,1.106.195a8.876,8.876,0,0,0,.512,1.218l-.646.914a1.965,1.965,0,0,0,.219,2.522l.941.941a1.965,1.965,0,0,0,2.522.219l.914-.646a8.935,8.935,0,0,0,1.234.512l.195,1.106a1.965,1.965,0,0,0,1.931,1.651H13.4a1.965,1.965,0,0,0,1.94-1.63l.195-1.106a8.913,8.913,0,0,0,1.218-.512l.914.646a1.968,1.968,0,0,0,2.522-.219l.956-.941a1.965,1.965,0,0,0,.219-2.522l-.646-.914a8.913,8.913,0,0,0,.512-1.218l1.106-.195a.761.761,0,0,0-.192-1.511c-.023,0-.047.007-.07.012l-1.569.274a.761.761,0,0,0-.609.551,7.385,7.385,0,0,1-.734,1.773.761.761,0,0,0,.037.816l.914,1.307a.445.445,0,0,1-.049.57l-.941.941a.445.445,0,0,1-.57.049l-1.3-.914a.761.761,0,0,0-.819-.037A7.385,7.385,0,0,1,14.658,27a.761.761,0,0,0-.551.609l-.271,1.544a.445.445,0,0,1-.439.369H12.069a.445.445,0,0,1-.439-.369l-.274-1.569a.761.761,0,0,0-.551-.609,7.4,7.4,0,0,1-1.773-.734.761.761,0,0,0-.819.037l-1.3.914a.445.445,0,0,1-.57-.049L5.4,26.2a.445.445,0,0,1-.049-.57l.914-1.3A.761.761,0,0,0,6.3,23.51a7.364,7.364,0,0,1-.737-1.754.761.761,0,0,0-.609-.551L3.385,20.93a.445.445,0,0,1-.362-.454V19.145a.445.445,0,0,1,.369-.436l1.569-.274a.761.761,0,0,0,.609-.551A7.36,7.36,0,0,1,6.3,16.111a.761.761,0,0,0-.037-.819l-.914-1.3a.445.445,0,0,1,.049-.57l.941-.941a.445.445,0,0,1,.57-.049l1.3.914a.761.761,0,0,0,.819.037,7.385,7.385,0,0,1,1.754-.74.761.761,0,0,0,.551-.609l.274-1.569a.761.761,0,0,0-1.486-.332c-.005.023-.009.046-.012.07l-.18,1.109a8.935,8.935,0,0,0-1.234.512l-.914-.646a1.965,1.965,0,0,0-2.522.219l-.941.941a1.968,1.968,0,0,0-.238,2.525l.646.914a8.9,8.9,0,0,0-.512,1.234L3.117,17.2A1.965,1.965,0,0,0,1.5,19.145v1.331a1.965,1.965,0,0,0,1.627,1.94Zm27.9-12.421V11.04a1.712,1.712,0,0,1-1.416,1.687l-.777.137a7.2,7.2,0,0,1-.338.816l.454.646a1.709,1.709,0,0,1-.192,2.193l-.743.743a1.709,1.709,0,0,1-2.193.192L25.194,17a7.2,7.2,0,0,1-.816.338l-.137.761a1.709,1.709,0,0,1-1.687,1.416H21.505A1.712,1.712,0,0,1,19.818,18.1l-.137-.777a7.2,7.2,0,0,1-.816-.338l-.646.454a1.709,1.709,0,0,1-2.193-.192l-.743-.743a1.709,1.709,0,0,1-.192-2.193l.454-.646a7.14,7.14,0,0,1-.338-.816l-.761-.122a1.709,1.709,0,0,1-1.416-1.687V9.992A1.709,1.709,0,0,1,14.445,8.3l.777-.137a7.2,7.2,0,0,1,.338-.816l-.454-.646a1.712,1.712,0,0,1,.192-2.2l.728-.725a1.709,1.709,0,0,1,2.193-.192l.646.454a7.167,7.167,0,0,1,.816-.353l.137-.777A1.712,1.712,0,0,1,21.505,1.5h1.048a1.709,1.709,0,0,1,1.687,1.416l.137.777a7.14,7.14,0,0,1,.816.338l.646-.454a1.709,1.709,0,0,1,2.193.192l.728.743a1.709,1.709,0,0,1,.192,2.193l-.454.646a7.252,7.252,0,0,1,.338.816l.777.137A1.709,1.709,0,0,1,31.045,9.992Zm-1.523,0a.189.189,0,0,0-.155-.186L28.13,9.59a.761.761,0,0,1-.609-.551,5.646,5.646,0,0,0-.563-1.358.761.761,0,0,1,.037-.819l.722-1.03a.189.189,0,0,0-.021-.244l-.743-.743a.192.192,0,0,0-.244-.021l-1.023.725a.761.761,0,0,1-.819.037,5.634,5.634,0,0,0-1.358-.563.761.761,0,0,1-.551-.609l-.213-1.237a.189.189,0,0,0-.186-.155H21.505a.189.189,0,0,0-.186.158L21.1,4.415a.761.761,0,0,1-.551.609,5.647,5.647,0,0,0-1.358.563.761.761,0,0,1-.819-.037l-1.03-.722a.189.189,0,0,0-.244.021l-.743.743a.189.189,0,0,0-.021.244l.722,1.026a.761.761,0,0,1,.037.819,5.659,5.659,0,0,0-.563,1.358.761.761,0,0,1-.609.551l-1.237.216a.189.189,0,0,0-.155.186v1.048a.189.189,0,0,0,.158.186l1.237.216a.761.761,0,0,1,.609.551,5.634,5.634,0,0,0,.563,1.358.761.761,0,0,1-.037.819L16.34,15.2a.189.189,0,0,0,.021.244l.743.743a.189.189,0,0,0,.244.021l1.03-.722a.761.761,0,0,1,.819-.037,5.669,5.669,0,0,0,1.34.557.761.761,0,0,1,.551.609l.216,1.237a.189.189,0,0,0,.186.155h1.048a.189.189,0,0,0,.186-.155l.216-1.237a.761.761,0,0,1,.551-.609,5.659,5.659,0,0,0,1.358-.563.761.761,0,0,1,.819.037l1.03.722a.189.189,0,0,0,.244-.021l.743-.743a.189.189,0,0,0,.021-.244L27,14.171a.761.761,0,0,1-.037-.816,5.652,5.652,0,0,0,.563-1.346.761.761,0,0,1,.609-.551l1.237-.228a.189.189,0,0,0,.155-.186Zm-3.9.524a3.594,3.594,0,1,1-3.594-3.594h0A3.6,3.6,0,0,1,25.623,10.516Zm-1.523,0a2.071,2.071,0,1,0-2.071,2.071A2.071,2.071,0,0,0,24.1,10.516Z" transform="translate(-1.5 -1.5)" fill="#17499e"/>
</svg>
