<svg xmlns="http://www.w3.org/2000/svg" width="12.629" height="12.653" viewBox="0 0 12.629 12.653">
  <g id="Group_1814" data-name="Group 1814" transform="translate(-1095.975 -181.57)">
    <g id="Group_42" data-name="Group 42" transform="translate(1096.475 182.07)">
      <g id="Group_40" data-name="Group 40" transform="translate(0 3.05)">
        <path id="Path_30" data-name="Path 30" d="M1099.075,204.5a2.6,2.6,0,0,1-2.6-2.6v-3.4a2.6,2.6,0,0,1,2.6-2.6h6.429a2.6,2.6,0,0,1,2.6,2.6v3.4a2.6,2.6,0,0,1-2.6,2.6Zm0-8.129a2.129,2.129,0,0,0-2.127,2.127v3.4a2.129,2.129,0,0,0,2.127,2.127h6.429a2.129,2.129,0,0,0,2.126-2.127v-3.4a2.129,2.129,0,0,0-2.126-2.127Z" transform="translate(-1096.475 -195.893)" fill="none" stroke="#000" stroke-width="1"/>
      </g>
      <g id="Group_41" data-name="Group 41" transform="translate(3.805 0)">
        <path id="Path_31" data-name="Path 31" d="M1117.5,183.7a.237.237,0,0,1-.237-.237.922.922,0,0,0-.921-.921h-1.229a.922.922,0,0,0-.921.921.237.237,0,0,1-.474,0,1.4,1.4,0,0,1,1.395-1.395h1.229a1.4,1.4,0,0,1,1.395,1.395A.239.239,0,0,1,1117.5,183.7Z" transform="translate(-1113.721 -182.07)" fill="none" stroke="#000" stroke-width="1"/>
      </g>
    </g>
  </g>
</svg>
