<svg xmlns="http://www.w3.org/2000/svg" width="16.1" height="12.523" viewBox="0 0 16.1 12.523">
  <g id="Group_1802" data-name="Group 1802" transform="translate(-117.591 -192.05)">
    <path id="Path_268" data-name="Path 268" d="M129.054,211.526a4.745,4.745,0,0,0-2.158-3.8.515.515,0,0,0-.38-.039.527.527,0,0,0-.122.966,3.413,3.413,0,0,1,1.527,2.311l.082.5h-9.361l.094-.507a3.555,3.555,0,0,1,1.553-2.319.522.522,0,0,0-.166-.951.531.531,0,0,0-.114-.012.519.519,0,0,0-.28.082,4.868,4.868,0,0,0-2.135,4.209.525.525,0,0,0,.52.537h10.426a.52.52,0,0,0,.519-.519C129.068,211.828,129.06,211.677,129.054,211.526Z" transform="translate(0 -7.971)" fill="#040506"/>
    <path id="Path_269" data-name="Path 269" d="M128.14,193.232a3.756,3.756,0,0,0-.959-.741,3.7,3.7,0,0,0-1.754-.441h-.07a3.671,3.671,0,1,0-.008,7.342h.077a3.694,3.694,0,0,0,1.618-.376,3.754,3.754,0,0,0,1.009-.715,3.581,3.581,0,0,0,.087-5.07Zm-1.056,4.552a2.647,2.647,0,0,1-1,.489,2.674,2.674,0,0,1-.7.081h-.046a2.633,2.633,0,1,1,.053-5.264h.039a2.644,2.644,0,0,1,.742.117,2.7,2.7,0,0,1,1.941,2.511A2.708,2.708,0,0,1,127.084,197.783Z" transform="translate(-2.06 0)" fill="#040506"/>
    <path id="Path_270" data-name="Path 270" d="M144.831,207.814a.529.529,0,0,0-.7.208.527.527,0,0,0,.2.719,3.413,3.413,0,0,1,1.527,2.312l.082.5h-2.271v1.039h2.808a.52.52,0,0,0,.519-.519A4.759,4.759,0,0,0,144.831,207.814Z" transform="translate(-13.31 -8.017)" fill="#040506"/>
    <path id="Path_271" data-name="Path 271" d="M139.347,193.208h-.1v.941l.008.061h.094a2.221,2.221,0,0,1,2.209,2.161,2.193,2.193,0,0,1-2.2,2.172h-.108v1.011l.07-.01h.031a3.168,3.168,0,1,0,0-6.336Z" transform="translate(-11.053 -0.591)" fill="#161615"/>
  </g>
</svg>
