<svg xmlns="http://www.w3.org/2000/svg" width="13.995" height="10.637" viewBox="0 0 13.995 10.637">
  <path id="Path_945" data-name="Path 945" d="M1506.4,137.88l3.364-3.7,3.413-3.762a1.117,1.117,0,0,1,1.188-.391,1.068,1.068,0,0,1,.807.887,1.15,1.15,0,0,1-.348,1.026q-1.188,1.3-2.372,2.612c-1.681,1.852-3.359,3.709-5.052,5.551a1.747,1.747,0,0,1-.71.471,1.03,1.03,0,0,1-1.075-.331c-1.353-1.374-2.709-2.745-4.055-4.126a1.117,1.117,0,1,1,1.591-1.566c1.017,1.018,2.021,2.049,3.03,3.076C1506.249,137.7,1506.311,137.78,1506.4,137.88Z" transform="translate(-1501.193 -129.98)" fill="#3A904E"/>
</svg>
