<svg xmlns="http://www.w3.org/2000/svg" width="274.567" height="256.715" viewBox="0 0 274.567 256.715">
  <g id="Group_383" data-name="Group 383" transform="translate(-54.334 -63.333)">
    <g id="Background_Complete" data-name="Background Complete" transform="translate(54.334 74.667)">
      <g id="Group_391" data-name="Group 391">
        <g id="Group_385" data-name="Group 385" transform="translate(16.227 119.646)">
          <g id="Group_383-2" data-name="Group 383" transform="translate(33.953)">
            <path id="Path_484" data-name="Path 484" d="M175.172,281.941h-46.8l-2.841-32.774h46.8Z" transform="translate(-125.53 -249.167)" fill="#e6e6e6"/>
            <path id="Path_485" data-name="Path 485" d="M178.611,281.941h-46.8l-2.841-32.774h46.8Z" transform="translate(-126.545 -249.167)" fill="#f0f0f0"/>
            <path id="Path_486" data-name="Path 486" d="M141.423,277.85l-1.56-18.7h32.724l1.56,18.7Z" transform="translate(-129.761 -252.114)" fill="#fff"/>
          </g>
          <g id="Group_384" data-name="Group 384" transform="translate(0 32.774)">
            <rect id="Rectangle_251" data-name="Rectangle 251" width="5.491" height="61.129" transform="translate(88.626)" fill="#e6e6e6"/>
            <rect id="Rectangle_252" data-name="Rectangle 252" width="3.814" height="61.129" transform="translate(92.036)" fill="#f0f0f0"/>
            <rect id="Rectangle_253" data-name="Rectangle 253" width="53.15" height="6.747" transform="translate(95.85 6.747) rotate(180)" fill="#f0f0f0"/>
            <rect id="Rectangle_254" data-name="Rectangle 254" width="5.491" height="54.382" transform="translate(39.088 6.747)" fill="#e6e6e6"/>
            <rect id="Rectangle_255" data-name="Rectangle 255" width="3.814" height="54.382" transform="translate(42.498 6.747)" fill="#f0f0f0"/>
            <rect id="Rectangle_256" data-name="Rectangle 256" width="5.491" height="54.382" transform="translate(0 6.747)" fill="#e6e6e6"/>
            <rect id="Rectangle_257" data-name="Rectangle 257" width="3.814" height="54.382" transform="translate(3.411 6.747)" fill="#f0f0f0"/>
            <rect id="Rectangle_258" data-name="Rectangle 258" width="5.491" height="54.382" transform="translate(53.875 6.747)" fill="#e6e6e6"/>
            <rect id="Rectangle_259" data-name="Rectangle 259" width="3.814" height="54.382" transform="translate(57.286 6.747)" fill="#f0f0f0"/>
            <rect id="Rectangle_260" data-name="Rectangle 260" width="42.7" height="6.747" fill="#e6e6e6"/>
          </g>
        </g>
        <g id="Group_387" data-name="Group 387" transform="translate(52.985)">
          <g id="Group_386" data-name="Group 386">
            <rect id="Rectangle_261" data-name="Rectangle 261" width="165.161" height="91.948" fill="#e0e0e0"/>
            <rect id="Rectangle_262" data-name="Rectangle 262" width="173.397" height="91.948" transform="translate(0.834)" fill="#f5f5f5"/>
            <rect id="Rectangle_263" data-name="Rectangle 263" width="86.282" height="167.73" transform="translate(171.397 2.833) rotate(90)" fill="#fff"/>
            <path id="Path_487" data-name="Path 487" d="M209.178,169.715l31.668-86.282H188.583l-31.667,86.282Z" transform="translate(-137.599 -80.6)" fill="#f5f5f5"/>
            <path id="Path_488" data-name="Path 488" d="M285.929,169.715,317.6,83.433H278.172L246.5,169.715Z" transform="translate(-164.043 -80.6)" fill="#f5f5f5"/>
          </g>
        </g>
        <g id="Group_389" data-name="Group 389" transform="translate(127.009 125.733)">
          <g id="Group_388" data-name="Group 388">
            <rect id="Rectangle_264" data-name="Rectangle 264" width="14.039" height="87.817" transform="translate(129.445)" fill="#e6e6e6"/>
            <path id="Path_489" data-name="Path 489" d="M431.252,379.567h3.692V372.8h-7.562Z" transform="translate(-291.459 -291.749)" fill="#fafafa"/>
            <rect id="Rectangle_265" data-name="Rectangle 265" width="14.039" height="87.817" fill="#e6e6e6"/>
            <rect id="Rectangle_266" data-name="Rectangle 266" width="132.667" height="85.993" transform="translate(10.818)" fill="#fafafa"/>
            <path id="Path_490" data-name="Path 490" d="M381.09,287H253.446V262.711H381.09Zm-126.94-.7H380.386V263.416H254.151Z" transform="translate(-240.117 -259.252)" fill="#e6e6e6"/>
            <path id="Path_491" data-name="Path 491" d="M364.846,275.776H284.622c-3.726,0-7.313-3.005-9.839-8.245l-.244-.505H374.93l-.244.505C372.159,272.771,368.573,275.776,364.846,275.776Zm-89.178-8.046c2.384,4.674,5.627,7.341,8.954,7.341h80.224c3.327,0,6.57-2.667,8.955-7.341Z" transform="translate(-246.343 -260.526)" fill="#e6e6e6"/>
            <path id="Path_492" data-name="Path 492" d="M253.575,379.567h-3.692V372.8h7.562Z" transform="translate(-239.065 -291.749)" fill="#fafafa"/>
            <path id="Path_493" data-name="Path 493" d="M381.09,325.864H253.446V301.577H381.09Zm-126.94-.7H380.386V302.282H254.151Z" transform="translate(-240.117 -270.724)" fill="#e6e6e6"/>
            <path id="Path_494" data-name="Path 494" d="M364.846,314.642H284.622c-3.726,0-7.313-3-9.839-8.245l-.244-.505H374.93l-.244.505C372.159,311.638,368.573,314.642,364.846,314.642ZM275.668,306.6c2.384,4.674,5.627,7.341,8.954,7.341h80.224c3.327,0,6.57-2.667,8.955-7.341Z" transform="translate(-246.343 -271.998)" fill="#e6e6e6"/>
            <path id="Path_495" data-name="Path 495" d="M381.09,364.73H253.446V340.443H381.09Zm-126.94-.7H380.386V341.148H254.151Z" transform="translate(-240.117 -282.197)" fill="#e6e6e6"/>
            <path id="Path_496" data-name="Path 496" d="M364.846,353.508H284.622c-3.726,0-7.313-3-9.839-8.244l-.244-.506H374.93l-.244.506C372.159,350.5,368.573,353.508,364.846,353.508Zm-89.178-8.046c2.384,4.674,5.627,7.341,8.954,7.341h80.224c3.327,0,6.57-2.667,8.955-7.341Z" transform="translate(-246.343 -283.47)" fill="#e6e6e6"/>
          </g>
        </g>
        <g id="Group_390" data-name="Group 390" transform="translate(0 88.773)">
          <path id="Path_497" data-name="Path 497" d="M113.755,274.283v1.7h-1.091l-.9,13.367H98.488l-.9-13.367H96.5v-1.7Z" transform="translate(-66.78 -225.708)" fill="#e6e6e6"/>
          <path id="Path_498" data-name="Path 498" d="M96.94,220.762C95.849,212.8,85.1,210.526,71.467,210.234c-12.976-.277-17.133-4.869-17.133-4.869s.041,18.592,18.739,25.324C90.828,237.081,98.034,228.739,96.94,220.762Z" transform="translate(-54.334 -205.365)" fill="#e6e6e6"/>
          <path id="Path_499" data-name="Path 499" d="M105.366,248.932c.228-3.275,5.457-9.294,18.034-6.558,9.094,1.978,12.476-2.736,12.476-2.736s-.842,13.306-14.521,17.307C108.368,260.744,104.965,254.692,105.366,248.932Z" transform="translate(-69.388 -215.482)" fill="#e6e6e6"/>
          <path id="Path_500" data-name="Path 500" d="M107.953,264.615a.484.484,0,0,0,.371-.172c.912-1.078.166-3.658-.866-7.23-1.325-4.584-2.974-10.289-1.577-14.431a58.2,58.2,0,0,1,2.706-6.395c1.974-4.175,3.679-7.781,2.258-11.546a.485.485,0,1,0-.908.343c1.276,3.38-.269,6.65-2.227,10.789a59.778,59.778,0,0,0-2.748,6.5c-1.494,4.431.2,10.3,1.564,15.011.8,2.78,1.634,5.653,1.058,6.334a.485.485,0,0,0,.37.8Z" transform="translate(-69.106 -211.021)" fill="#e6e6e6"/>
        </g>
      </g>
    </g>
    <g id="Shadow" transform="translate(55.587 304.087)">
      <ellipse id="_Path_" data-name="&lt;Path&gt;" cx="136.657" cy="7.981" rx="136.657" ry="7.981" fill="#f5f5f5"/>
    </g>
    <g id="Login" transform="translate(86.652 107.216)">
      <g id="Group_394" data-name="Group 394" transform="translate(0 0)">
        <path id="Path_501" data-name="Path 501" d="M205.75,293.639H105.666l-5.478-160.958H200.272Z" transform="translate(-100.188 -127.686)" fill="#407bff"/>
        <g id="Group_392" data-name="Group 392" transform="translate(4.995)">
          <path id="Path_502" data-name="Path 502" d="M212.837,286.552H112.753l-5.478-160.958H207.359Z" transform="translate(-107.274 -125.594)" fill="#407bff"/>
          <path id="Path_503" data-name="Path 503" d="M212.837,286.552H112.753l-5.478-160.958H207.359Z" transform="translate(-107.274 -125.594)" fill="#fff" opacity="0.3"/>
        </g>
        <g id="Group_393" data-name="Group 393" transform="translate(16.784 6.352)">
          <ellipse id="Ellipse_31" data-name="Ellipse 31" cx="27.678" cy="28.636" rx="27.678" ry="28.636" transform="matrix(0.701, -0.713, 0.713, 0.701, 0, 39.473)" fill="#407bff"/>
          <path id="Path_504" data-name="Path 504" d="M194,181.358a22.552,22.552,0,0,1-2.432,11.068,22.274,22.274,0,0,1-20.013,12.167,24.168,24.168,0,0,1-20.842-12.167,23.665,23.665,0,0,1-3.184-11.068,22.3,22.3,0,0,1,22.444-23.235A24.214,24.214,0,0,1,194,181.358Z" transform="translate(-130.942 -141.548)" fill="#fff"/>
          <path id="Path_505" data-name="Path 505" d="M192.909,204.2A22.274,22.274,0,0,1,172.9,216.367,24.168,24.168,0,0,1,152.055,204.2a35.633,35.633,0,0,1,20.217-6.189A37.656,37.656,0,0,1,192.909,204.2Z" transform="translate(-132.282 -153.322)" fill="#407bff" opacity="0.6"/>
          <ellipse id="Ellipse_32" data-name="Ellipse 32" cx="10.175" cy="10.528" rx="10.175" ry="10.528" transform="matrix(0.701, -0.713, 0.713, 0.701, 24.913, 31.736)" fill="#407bff" opacity="0.6"/>
        </g>
        <path id="Path_506" data-name="Path 506" d="M201.6,265.948H137.759l-.432-12.687h63.846Z" transform="translate(-111.15 -163.279)" fill="#fff"/>
        <path id="Path_507" data-name="Path 507" d="M202.7,298.121H138.854l-.432-12.687h63.846Z" transform="translate(-111.474 -172.776)" fill="#fff"/>
        <path id="Path_508" data-name="Path 508" d="M187.817,287.9,172.433,290a1.074,1.074,0,0,0-.928,1.274l2.02,10.31a1.235,1.235,0,0,0,1.367.962l15.385-2.093a1.072,1.072,0,0,0,.928-1.274l-2.02-10.31A1.237,1.237,0,0,0,187.817,287.9ZM183.4,298.348l-2.785.379-.281-3.328a1.961,1.961,0,0,1-1.143-1.406,1.751,1.751,0,0,1,1.517-2.083,2.016,2.016,0,0,1,2.23,1.573,1.715,1.715,0,0,1-.547,1.637Z" transform="translate(-121.233 -173.501)" fill="#407bff"/>
        <path id="Path_509" data-name="Path 509" d="M186.564,283.56h0a1.094,1.094,0,0,1-1.212-.854l-.2-1.009a5.8,5.8,0,0,0-6.075-4.624,4.962,4.962,0,0,0-4.559,5.916l.228,1.159a.949.949,0,0,1-.824,1.13h0a1.093,1.093,0,0,1-1.212-.853l-.192-.984a6.942,6.942,0,0,1,5.62-8.278,7.89,7.89,0,0,1,9.021,6.107l.227,1.159A.95.95,0,0,1,186.564,283.56Z" transform="translate(-121.498 -169.71)" fill="#407bff"/>
        <path id="Path_510" data-name="Path 510" d="M197.144,325.18H155.586l-.281-8.258h41.559Z" transform="translate(-116.457 -182.07)" fill="#407bff"/>
        <path id="Path_511" data-name="Path 511" d="M184.274,261.289a2.228,2.228,0,0,1-2.241,2.32,2.419,2.419,0,0,1-2.4-2.32,2.228,2.228,0,0,1,2.242-2.32A2.418,2.418,0,0,1,184.274,261.289Z" transform="translate(-123.638 -164.964)" fill="#263238"/>
        <path id="Path_512" data-name="Path 512" d="M170.1,261.289a2.228,2.228,0,0,1-2.241,2.32,2.419,2.419,0,0,1-2.4-2.32,2.228,2.228,0,0,1,2.241-2.32A2.419,2.419,0,0,1,170.1,261.289Z" transform="translate(-119.454 -164.964)" fill="#263238"/>
        <path id="Path_513" data-name="Path 513" d="M155.928,261.289a2.228,2.228,0,0,1-2.242,2.32,2.418,2.418,0,0,1-2.4-2.32,2.228,2.228,0,0,1,2.241-2.32A2.419,2.419,0,0,1,155.928,261.289Z" transform="translate(-115.27 -164.964)" fill="#263238"/>
        <path id="Path_514" data-name="Path 514" d="M198.447,261.289a2.228,2.228,0,0,1-2.241,2.32,2.418,2.418,0,0,1-2.4-2.32,2.228,2.228,0,0,1,2.241-2.32A2.418,2.418,0,0,1,198.447,261.289Z" transform="translate(-127.821 -164.964)" fill="#263238"/>
        <path id="Path_515" data-name="Path 515" d="M212.621,261.289a2.228,2.228,0,0,1-2.242,2.32,2.418,2.418,0,0,1-2.4-2.32,2.228,2.228,0,0,1,2.241-2.32A2.419,2.419,0,0,1,212.621,261.289Z" transform="translate(-132.005 -164.964)" fill="#263238"/>
      </g>
    </g>
    <g id="Character" transform="translate(210.814 108.596)">
      <g id="Group_399" data-name="Group 399" transform="translate(0 0)">
        <path id="Path_516" data-name="Path 516" d="M331.216,174.28c.94,1.5,1.717,2.95,2.523,4.449s1.529,3.011,2.241,4.55a65.474,65.474,0,0,1,3.595,9.678c.125.418.221.86.326,1.293l.154.653.077.326.091.538a9.42,9.42,0,0,1-.22,3.63,20.558,20.558,0,0,1-2.193,5.256,41.953,41.953,0,0,1-6.263,8.227l-2.968-2.247a78.87,78.87,0,0,0,3.973-8.484,17.9,17.9,0,0,0,1.076-3.97,3.137,3.137,0,0,0-.058-1.245l-.279-.861c-.116-.354-.218-.706-.358-1.062a77.925,77.925,0,0,0-3.714-8.517c-1.386-2.806-2.923-5.663-4.435-8.329Z" transform="translate(-290.645 -141.345)" fill="#ff8b7b"/>
        <path id="Path_517" data-name="Path 517" d="M329.88,224.425l-3.236,1.718,3.721,4.356a5.769,5.769,0,0,0,2.427-3.97Z" transform="translate(-291.194 -156.147)" fill="#ff8b7b"/>
        <path id="Path_518" data-name="Path 518" d="M320.466,229.548l3.987,3.163,4.088-1.492-3.72-4.356Z" transform="translate(-289.37 -156.866)" fill="#ff8b7b"/>
        <path id="Path_519" data-name="Path 519" d="M300.753,141.226c-.08.392-.352.667-.608.615s-.4-.412-.319-.8.352-.667.608-.615S300.833,140.834,300.753,141.226Z" transform="translate(-283.271 -131.349)" fill="#263238"/>
        <path id="Path_520" data-name="Path 520" d="M299.634,142.522a14.311,14.311,0,0,1-2.554,2.971,2.3,2.3,0,0,0,1.8.732Z" transform="translate(-282.467 -131.971)" fill="#ff5652"/>
        <path id="Path_521" data-name="Path 521" d="M298.9,160.2l.03-4.619,6.118.739s-.1,3.972-3.521,5.14Z" transform="translate(-283.005 -135.826)" fill="#ff8b7b"/>
        <path id="Path_522" data-name="Path 522" d="M300.672,150.864l4.308,1.238.082,2.828-6.118-.739Z" transform="translate(-283.017 -134.433)" fill="#ff8b7b"/>
        <path id="Path_523" data-name="Path 523" d="M305.355,152.1l-4.306-1.24-.839,1.607a6.86,6.86,0,0,0,3.975,5.977,6.738,6.738,0,0,0,1.248-3.517Z" transform="translate(-283.391 -134.432)" opacity="0.2"/>
        <path id="Path_524" data-name="Path 524" d="M302.968,138.394a.231.231,0,0,0,.159-.063.234.234,0,0,0,.013-.331,2.33,2.33,0,0,0-2-.777.235.235,0,0,0,.078.463h0a1.863,1.863,0,0,1,1.575.633A.235.235,0,0,0,302.968,138.394Z" transform="translate(-283.609 -130.402)" fill="#263238"/>
        <path id="Path_525" data-name="Path 525" d="M312.028,151.683c-.711,3.627-1.14,8.652,1.4,11.072,0,0-.992,3.679-7.73,3.679-7.41,0-3.565-3.229-3.565-3.229,3.08-.956,3.053-4.465,2.349-7.283Z" transform="translate(-283.663 -134.675)" fill="#ff8b7b"/>
        <path id="Path_526" data-name="Path 526" d="M314.916,168.716c.66-.935.633-3.887-.071-4.408-1.138-.842-6-1.035-12.557.473a4.623,4.623,0,0,1-.806,4.359Z" transform="translate(-283.767 -138.21)" fill="#407bff"/>
        <path id="Path_527" data-name="Path 527" d="M351.217,407.8a1.6,1.6,0,0,1-1.234-.068.479.479,0,0,1-.113-.546.544.544,0,0,1,.3-.345c.67-.319,2.207.307,2.273.334a.119.119,0,0,1,.073.105.117.117,0,0,1-.066.109A6.24,6.24,0,0,1,351.217,407.8Zm-.806-.792a.636.636,0,0,0-.138.046.314.314,0,0,0-.178.2c-.063.211.016.278.042.3.266.227,1.256.018,1.954-.261A3.872,3.872,0,0,0,350.41,407.005Z" transform="translate(-298.039 -209.965)" fill="#407bff"/>
        <path id="Path_528" data-name="Path 528" d="M352.741,406.832a.113.113,0,0,1-.057,0c-.56-.164-1.76-1.016-1.775-1.577a.384.384,0,0,1,.3-.38.639.639,0,0,1,.52.042c.663.338,1.081,1.711,1.1,1.769a.119.119,0,0,1-.029.117A.121.121,0,0,1,352.741,406.832Zm-1.4-1.752a.461.461,0,0,0-.051.014c-.145.051-.143.122-.142.152.008.333.8,1,1.38,1.271a2.833,2.833,0,0,0-.9-1.395A.417.417,0,0,0,351.338,405.08Z" transform="translate(-298.356 -209.4)" fill="#407bff"/>
        <path id="Path_529" data-name="Path 529" d="M299.223,408.917c-.636,0-1.25-.087-1.456-.374a.444.444,0,0,1,.01-.513.584.584,0,0,1,.372-.274c.825-.225,2.557.763,2.631.8a.118.118,0,0,1-.036.217A8.734,8.734,0,0,1,299.223,408.917Zm-.786-.961a.875.875,0,0,0-.227.027.355.355,0,0,0-.23.164c-.083.146-.053.219-.023.26.231.32,1.484.328,2.406.2A5.3,5.3,0,0,0,298.437,407.956Z" transform="translate(-282.648 -210.253)" fill="#407bff"/>
        <path id="Path_530" data-name="Path 530" d="M301.258,408.283a.116.116,0,0,1-.048-.011c-.6-.269-1.784-1.341-1.693-1.9.021-.132.115-.3.437-.328a.856.856,0,0,1,.651.2,3.352,3.352,0,0,1,.77,1.91.117.117,0,0,1-.048.106A.122.122,0,0,1,301.258,408.283Zm-1.209-2.01a.6.6,0,0,0-.07,0c-.211.021-.225.1-.229.132-.054.336.751,1.179,1.362,1.546a2.753,2.753,0,0,0-.655-1.529A.624.624,0,0,0,300.048,406.273Z" transform="translate(-283.185 -209.755)" fill="#407bff"/>
        <path id="Path_531" data-name="Path 531" d="M307.441,404.248h-4.957l-.494-11.481h4.957Z" transform="translate(-283.916 -205.838)" fill="#ff8b7b"/>
        <path id="Path_532" data-name="Path 532" d="M357.283,401.322l-4.845,1.049-4.865-10.693,4.845-1.049Z" transform="translate(-297.372 -205.207)" fill="#ff8b7b"/>
        <path id="Path_533" data-name="Path 533" d="M350.866,406.1l5.443-1.178a.432.432,0,0,1,.484.242l1.89,4.1a.729.729,0,0,1-.523,1.016c-1.907.378-2.855.467-5.249.985-1.472.319-4.8,1.128-6.831,1.569-1.989.431-2.735-1.513-1.941-1.875,3.556-1.625,5.042-3.055,6-4.389A1.205,1.205,0,0,1,350.866,406.1Z" transform="translate(-296.266 -209.423)" fill="#263238"/>
        <path id="Path_534" data-name="Path 534" d="M297.722,408.242h5.414a.432.432,0,0,1,.422.338l.98,4.407a.721.721,0,0,1-.713.882c-1.953-.033-4.775-.147-7.229-.147-2.871,0-5.35.156-8.715.156-2.035,0-2.6-2.057-1.748-2.244,3.878-.848,7.045-.939,10.4-3.005A2.292,2.292,0,0,1,297.722,408.242Z" transform="translate(-279.122 -210.406)" fill="#263238"/>
        <g id="Group_395" data-name="Group 395" transform="translate(32.37 29.067)">
          <path id="Path_535" data-name="Path 535" d="M328.542,168.926c4.646,1.066,8.477,12.927,8.477,12.927l-9.33,7.112a20.359,20.359,0,0,1-4.949-9.162C321.143,173.586,323.791,167.837,328.542,168.926Z" transform="translate(-322.274 -168.793)" fill="#407bff"/>
          <path id="Path_536" data-name="Path 536" d="M328.542,168.926c4.646,1.066,8.477,12.927,8.477,12.927l-9.33,7.112a20.359,20.359,0,0,1-4.949-9.162C321.143,173.586,323.791,167.837,328.542,168.926Z" transform="translate(-322.274 -168.793)" opacity="0.4"/>
        </g>
        <path id="Path_537" data-name="Path 537" d="M290.553,180.223c-1.16,1.251-2.316,2.364-3.514,3.51q-.891.853-1.823,1.675l-.936.82-.236.2c-.114.1-.253.214-.4.328a5.914,5.914,0,0,1-1.362.8,4.482,4.482,0,0,1-1.714.355,4.158,4.158,0,0,1-1.48-.263,4.114,4.114,0,0,1-1.41-.9,4.257,4.257,0,0,1-1.105-1.825,5.1,5.1,0,0,1-.2-1.048,6.791,6.791,0,0,1,.014-1.26c.033-.338.079-.631.131-.907a17.732,17.732,0,0,1,.818-2.841,26.439,26.439,0,0,1,1.1-2.548c.447-.9.88-1.548,1.31-2.3a57.526,57.526,0,0,1,5.957-8.075,54.394,54.394,0,0,1,7.226-6.849l2.594,2.67c-1.822,2.437-3.614,5.051-5.27,7.627a82.932,82.932,0,0,0-4.509,7.926c-.3.664-.679,1.391-.891,1.947a19.508,19.508,0,0,0-.661,1.9,13.485,13.485,0,0,0-.4,1.78,2.576,2.576,0,0,0-.023.278c0,.055.013.085.006-.065a2,2,0,0,0-.091-.462,3.056,3.056,0,0,0-.813-1.31,3.376,3.376,0,0,0-2.348-.952,2.973,2.973,0,0,0-1.137.217,2.917,2.917,0,0,0-.349.174l.271-.247.846-.776,1.685-1.578c1.116-1.051,2.237-2.172,3.3-3.211Z" transform="translate(-276.347 -136.865)" fill="#ff8b7b"/>
        <path id="Path_538" data-name="Path 538" d="M324.652,181.358c2.524,2.5,3.347,7.045,3.542,11l-.412.317a20.376,20.376,0,0,1-4.953-9.164c-.094-.371-.175-.743-.243-1.107Z" transform="translate(-289.996 -143.434)" opacity="0.2"/>
        <g id="Group_396" data-name="Group 396" transform="translate(8.43 27.915)">
          <path id="Path_539" data-name="Path 539" d="M289.154,173.414c-1.013,5.356-1.647,16.354,1.295,38.134h26.516c.183-4.07-2.375-23.927,1.551-43.105a69.166,69.166,0,0,0-8.876-1.121,97.4,97.4,0,0,0-11.272,0c-1.243.114-2.463.293-3.551.486A7.017,7.017,0,0,0,289.154,173.414Z" transform="translate(-288.307 -167.157)" fill="#407bff"/>
          <path id="Path_540" data-name="Path 540" d="M289.154,173.414c-1.013,5.356-1.647,16.354,1.295,38.134h26.516c.183-4.07-2.375-23.927,1.551-43.105a69.166,69.166,0,0,0-8.876-1.121,97.4,97.4,0,0,0-11.272,0c-1.243.114-2.463.293-3.551.486A7.017,7.017,0,0,0,289.154,173.414Z" transform="translate(-288.307 -167.157)" opacity="0.4"/>
        </g>
        <path id="Path_541" data-name="Path 541" d="M293.212,186.785l-4.791-1.147c-.148,2.9-.161,6.5.054,10.946C290.682,194.073,293.5,190.159,293.212,186.785Z" transform="translate(-279.879 -144.698)" opacity="0.2"/>
        <g id="Group_397" data-name="Group 397" transform="translate(18.074 185.424)">
          <path id="Path_542" data-name="Path 542" d="M301.991,392.772l.254,5.918h4.96l-.254-5.918Z" transform="translate(-301.991 -391.264)" opacity="0.2"/>
          <path id="Path_543" data-name="Path 543" d="M352.421,390.632l-4.847,1.049,2.51,5.511,4.847-1.049Z" transform="translate(-315.446 -390.632)" opacity="0.2"/>
        </g>
        <path id="Path_544" data-name="Path 544" d="M313.738,140.584c-1.274,4.753-1.778,7.6-4.71,9.575-4.411,2.972-9.9-.439-10.075-5.476-.155-4.533,1.954-11.544,7.054-12.5A6.71,6.71,0,0,1,313.738,140.584Z" transform="translate(-283.018 -128.882)" fill="#ff8b7b"/>
        <path id="Path_545" data-name="Path 545" d="M303.839,141.306c-.235-.638-1.334-5.549-.3-6.823s12.765-.358,14.5,1.35c2.878,2.833.882,5.361-2.27,8.623-2.37,2.452-2.461,5.217-3.657,5.623-2.095.711-5.343.043-5.995-2.193S303.839,141.306,303.839,141.306Z" transform="translate(-284.245 -129.422)" fill="#263238"/>
        <path id="Path_546" data-name="Path 546" d="M315.517,128.377c-4.148-1.766-11.924.187-16.123-.825a6.469,6.469,0,0,0,5.361,6.6,55.3,55.3,0,0,0,10.572.975C319.939,134.938,319.039,129.876,315.517,128.377Z" transform="translate(-283.147 -127.552)" fill="#263238"/>
        <path id="Path_547" data-name="Path 547" d="M323.194,136.509a7.868,7.868,0,0,0,4.386-.842C328.358,137.541,324.095,138.056,323.194,136.509Z" transform="translate(-290.175 -129.947)" fill="#263238"/>
        <path id="Path_548" data-name="Path 548" d="M305.749,143.827a5.561,5.561,0,0,1-1.393,3.288c-1.08,1.191-2.209.45-2.4-1-.173-1.305.182-3.5,1.5-4.154C304.761,141.313,305.836,142.356,305.749,143.827Z" transform="translate(-283.894 -131.747)" fill="#ff8b7b"/>
        <path id="Path_549" data-name="Path 549" d="M304.69,230.14s5.627,37.887,8.715,52.08c3.382,15.543,21.519,66.968,21.519,66.968l8.874-1.921s-12.682-41.907-15.521-63.637c-2.18-16.692-6.477-53.49-6.477-53.49Z" transform="translate(-284.713 -157.834)" fill="#407bff"/>
        <path id="Path_550" data-name="Path 550" d="M344.571,394.023c-.038.008,1.654,3.209,1.654,3.209l9.984-2.162-.842-3Z" transform="translate(-296.485 -205.632)" fill="#263238"/>
        <path id="Path_551" data-name="Path 551" d="M309.122,249.271c6.505,1.276,5.818,25.536,5.035,38.014-1.876-8.82-4.623-25.792-6.5-37.838A2.223,2.223,0,0,1,309.122,249.271Z" transform="translate(-285.59 -163.466)" opacity="0.3"/>
        <path id="Path_552" data-name="Path 552" d="M291.2,230.14s-.683,37.067-.144,52.185c.561,15.725,6.054,67.213,6.054,67.213h8.4s.309-50.569.682-66.014c.407-16.836,2.44-53.385,2.44-53.385Z" transform="translate(-280.627 -157.834)" fill="#407bff"/>
        <path id="Path_553" data-name="Path 553" d="M297.436,394.8c-.039,0,.474,3.487.474,3.487h10.216l.276-3.112Z" transform="translate(-282.572 -206.437)" fill="#263238"/>
        <g id="Group_398" data-name="Group 398" transform="translate(2.033 28.602)">
          <path id="Path_554" data-name="Path 554" d="M296.867,175.328c2.377,6.406-11.589,13.952-11.589,13.952l-6.046-7.773s4.033-8.029,8.983-11.647C294.33,165.39,295.057,170.452,296.867,175.328Z" transform="translate(-279.232 -168.133)" fill="#407bff"/>
          <path id="Path_555" data-name="Path 555" d="M296.867,175.328c2.377,6.406-11.589,13.952-11.589,13.952l-6.046-7.773s4.033-8.029,8.983-11.647C294.33,165.39,295.057,170.452,296.867,175.328Z" transform="translate(-279.232 -168.133)" opacity="0.4"/>
        </g>
      </g>
    </g>
    <g id="Thinking" transform="translate(247.755 63.333)">
      <g id="Group_400" data-name="Group 400">
        <ellipse id="Ellipse_33" data-name="Ellipse 33" cx="25.435" cy="16.211" rx="25.435" ry="16.211" transform="translate(12.001)" fill="#407bff"/>
        <path id="Path_556" data-name="Path 556" d="M365.874,91.918a7.128,7.128,0,0,1-7-5.916,7.2,7.2,0,0,1,5.433-8.151h0a7.089,7.089,0,0,1,7.628,3.183l16.329-3.37a2.555,2.555,0,0,1,2.993,1.76,2.459,2.459,0,0,1-1.882,3.034l-.429.089a.428.428,0,0,0-.295.217.433.433,0,0,0-.025.366l.288.749a1.118,1.118,0,0,1-.434,1.355,1.374,1.374,0,0,0-.633,1,1.09,1.09,0,0,1-.849.978l-.336.069a1.1,1.1,0,0,1-1.166-.561,1.371,1.371,0,0,0-2.544.525,1.093,1.093,0,0,1-.849.977l-.329.068a1.1,1.1,0,0,1-1.166-.561,1.377,1.377,0,0,0-.981-.664,1.118,1.118,0,0,1-.937-1.073l-.032-.8a.425.425,0,0,0-.166-.326.429.429,0,0,0-.357-.084l-5.2,1.074a7.1,7.1,0,0,1-5.6,5.916A7.2,7.2,0,0,1,365.874,91.918Zm-1.408-13.38a6.489,6.489,0,0,0-4.894,7.344,6.415,6.415,0,0,0,12.7-.364l.029-.254,5.7-1.176a1.141,1.141,0,0,1,1.371,1.071l.032.8a.418.418,0,0,0,.335.4,2.064,2.064,0,0,1,1.487,1.007.4.4,0,0,0,.414.225l.329-.068a.4.4,0,0,0,.292-.371,2.076,2.076,0,0,1,3.854-.8.4.4,0,0,0,.414.224l.336-.069a.4.4,0,0,0,.29-.369,2.056,2.056,0,0,1,.961-1.514.417.417,0,0,0,.148-.5l-.288-.749a1.141,1.141,0,0,1,.835-1.527l.429-.089a1.753,1.753,0,0,0,1.343-2.166,1.842,1.842,0,0,0-2.169-1.247l-16.823,3.472-.126-.222a6.383,6.383,0,0,0-6.993-3.067Zm1.417,10.774a4.524,4.524,0,1,1,.921-.094h0A4.59,4.59,0,0,1,365.883,89.312Zm.021-8.326a3.892,3.892,0,0,0-.783.081,3.809,3.809,0,0,0,1.541,7.461h0a3.81,3.81,0,0,0-.758-7.542Z" transform="translate(-337.62 -67.548)" fill="#fff"/>
        <ellipse id="Ellipse_34" data-name="Ellipse 34" cx="8.36" cy="5.328" rx="8.36" ry="5.328" transform="translate(8.369 31.269)" fill="#407bff" opacity="0.6"/>
        <ellipse id="Ellipse_35" data-name="Ellipse 35" cx="3.432" cy="2.187" rx="3.432" ry="2.187" transform="translate(0 39.738)" fill="#407bff" opacity="0.3"/>
      </g>
    </g>
  </g>
</svg>
