<svg xmlns="http://www.w3.org/2000/svg" width="16.465" height="16.465" viewBox="0 0 16.465 16.465">
  <g id="Group_45" data-name="Group 45" transform="translate(-1499.27 -559.603)">
    <path id="Path_32" data-name="Path 32" d="M1507.5,576.068a8.233,8.233,0,1,1,8.232-8.232A8.244,8.244,0,0,1,1507.5,576.068Zm0-15.148a6.915,6.915,0,1,0,6.916,6.916A6.923,6.923,0,0,0,1507.5,560.92Z" fill="#252525"/>
    <g id="Group_44" data-name="Group 44" transform="translate(1506.844 564.477)">
      <path id="Path_33" data-name="Path 33" d="M1511.336,570.961a.661.661,0,0,1-.659-.658v-2.7a.659.659,0,0,1,1.317,0v2.042h1.581a.658.658,0,1,1,0,1.317Z" transform="translate(-1510.677 -566.944)" fill="#252525"/>
    </g>
  </g>
</svg>
