<svg xmlns="http://www.w3.org/2000/svg" width="213.438" height="53.229" viewBox="0 0 213.438 53.229">
  <g id="Group_372" data-name="Group 372" transform="translate(1330.421 75.639)">
    <g id="Group_374" data-name="Group 374" transform="translate(-1270.59 -63.87)">
      <path id="Path_470" data-name="Path 470" d="M-1238.45-36.693v8.384h-6.788v-23.76h16.666v5.77h-9.877v3.836h8.588v5.77Z" transform="translate(1245.238 56.855)" fill="#1e2c5a"/>
      <path id="Path_471" data-name="Path 471" d="M-1206.1-42.99c5.94,1.663,7.671,3.972,7.671,7.57,0,5.465-4.616,7.366-10.692,7.366a18.984,18.984,0,0,1-10.217-2.682l2.308-5.227a14.912,14.912,0,0,0,7.569,2.138c2.987,0,4.005-.339,4.005-1.324,0-1.12-.848-1.663-5.736-3.055-5.159-1.46-7.026-3.8-7.026-7.365,0-4.549,3.428-7.128,9.945-7.128a16.4,16.4,0,0,1,9.165,2.512l-2.58,4.82a12.363,12.363,0,0,0-6.279-1.7c-2.444,0-3.225.441-3.225,1.527C-1211.187-44.551-1210.135-44.144-1206.1-42.99Z" transform="translate(1237.528 57.042)" fill="#1e2c5a"/>
      <path id="Path_472" data-name="Path 472" d="M-1159.255-52.069v23.76h-6.652V-42.158l-4.956,7.433h-2.919l-4.922-7.433v13.848h-6.652v-23.76h6.415l6.653,9.673,6.687-9.673Z" transform="translate(1227.416 56.855)" fill="#1e2c5a"/>
      <path id="Path_473" data-name="Path 473" d="M-1111.24-39.324h5.4V-28.5h-5.465v-2.987c-.95,1.9-3.225,3.428-6.891,3.428a12.553,12.553,0,0,1-12.592-12.321c0-7.6,6.076-12.321,13.746-12.321a14.178,14.178,0,0,1,10.115,4.378l-4.242,4.277a7.835,7.835,0,0,0-5.873-2.545c-3.971,0-6.449,2.41-6.449,6.212,0,3.869,2.614,6.211,6.347,6.211A5.669,5.669,0,0,0-1111.24-39.324Z" transform="translate(1211.177 57.042)" fill="#1e2c5a"/>
      <path id="Path_474" data-name="Path 474" d="M-1075.908-42.125l-2.715,5.363a5.377,5.377,0,0,0-2.308-.543c-2,0-3.327,1.527-3.327,5.227v6.415h-6.177V-42.736h6.042v2.477a6.378,6.378,0,0,1,4.887-2.918A6.225,6.225,0,0,1-1075.908-42.125Z" transform="translate(1199.167 54.209)" fill="#1e2c5a"/>
      <path id="Path_475" data-name="Path 475" d="M-1061.123-52.208a3.287,3.287,0,0,1-3.564,3.293,3.287,3.287,0,0,1-3.564-3.293,3.268,3.268,0,0,1,3.564-3.292A3.268,3.268,0,0,1-1061.123-52.208Zm-.475,5.8v17.073h-6.178V-46.4Z" transform="translate(1192.564 57.876)" fill="#1e2c5a"/>
      <path id="Path_476" data-name="Path 476" d="M-1046.392-47.851a6.7,6.7,0,0,1,5.227,2.512V-58.883h6.177v28.546h-6.177v-3.632a6.674,6.674,0,0,1-5.227,2.478c-5.057,0-8.52-3.292-8.52-8.18C-1054.912-44.526-1051.449-47.851-1046.392-47.851Zm1.6,11.438c1.9,0,3.6-1.018,3.9-2.749v-.985c-.306-1.764-2-2.783-3.9-2.783-2.138,0-3.734,1.188-3.734,3.258C-1048.531-37.567-1046.935-36.413-1044.8-36.413Z" transform="translate(1188.594 58.883)" fill="#1e2c5a"/>
    </g>
    <g id="Group_375" data-name="Group 375" transform="translate(-1330.421 -75.639)">
      <path id="Path_477" data-name="Path 477" d="M-1320.585-29.017l-5.92-7.339a17.658,17.658,0,0,1,2.419-24.638l12.609-10.536a17.654,17.654,0,0,1,17.251-3.083h0A17.532,17.532,0,0,1-1283.11-62.6c2.649,10.106,3.225,26.287-14.41,37.5a17.584,17.584,0,0,1-23.064-3.912" transform="translate(1330.421 75.639)" fill="#0655a3"/>
    </g>
    <path id="Path_478" data-name="Path 478" d="M-1302.751-55.68h-7.08a2.153,2.153,0,0,0-2.151,2.151v7.081a2.153,2.153,0,0,0,2.151,2.15h7.08a2.154,2.154,0,0,0,2.151-2.15v-7.081a2.153,2.153,0,0,0-2.151-2.151" transform="translate(-5.488 -5.94)" fill="#fff"/>
    <path id="Path_479" data-name="Path 479" d="M-1283.092-55.68h-7.081a2.152,2.152,0,0,0-2.15,2.151v7.081a2.152,2.152,0,0,0,2.15,2.15h7.081a2.153,2.153,0,0,0,2.151-2.15v-7.081a2.153,2.153,0,0,0-2.151-2.151" transform="translate(-11.339 -5.94)" fill="#fff"/>
    <path id="Path_480" data-name="Path 480" d="M-1302.751-36.021h-7.08a2.153,2.153,0,0,0-2.151,2.151v7.081a2.153,2.153,0,0,0,2.151,2.151h7.08a2.154,2.154,0,0,0,2.151-2.151V-33.87a2.154,2.154,0,0,0-2.151-2.151" transform="translate(-5.488 -11.791)" fill="#fff"/>
    <path id="Path_481" data-name="Path 481" d="M-1283.092-36.021h-7.081a2.152,2.152,0,0,0-2.15,2.151v7.081a2.152,2.152,0,0,0,2.15,2.151h7.081a2.154,2.154,0,0,0,2.151-2.151V-33.87a2.154,2.154,0,0,0-2.151-2.151" transform="translate(-11.339 -11.791)" fill="#fff"/>
  </g>
</svg>
