<svg xmlns="http://www.w3.org/2000/svg" width="33.077" height="23.188" viewBox="0 0 33.077 23.188">
  <g id="Group_734" data-name="Group 734" transform="translate(-301.203 -153.554)">
    <g id="Group_732" data-name="Group 732" transform="translate(301.203 154.257)">
      <path id="Path_889" data-name="Path 889" d="M321.858,172.982c0-.077,0-.156,0-.233a8.642,8.642,0,0,0-1.521-4.536c-.123-.16-.244-.323-.367-.488a8.37,8.37,0,0,0-2-1.824.933.933,0,0,0-.686-.071.943.943,0,0,0-.574.445.845.845,0,0,0-.034.105.938.938,0,0,0,.387,1.19,7,7,0,0,1,2.255,2.629,6.033,6.033,0,0,1,.5,1.536l.149.9H303.1l.17-.913a6.4,6.4,0,0,1,2.8-4.178.94.94,0,1,0-1.009-1.587,8.77,8.77,0,0,0-3.845,7.583.944.944,0,0,0,.935.967h18.786a.937.937,0,0,0,.935-.937C321.877,173.372,321.867,173.177,321.858,172.982Z" transform="translate(-301.203 -152.02)" fill="#fff"/>
      <path id="Path_890" data-name="Path 890" d="M317.411,158.79a6.631,6.631,0,0,0-1.064-2c-.132-.17-.252-.351-.4-.509a6.752,6.752,0,0,0-1.728-1.336,6.661,6.661,0,0,0-3.16-.794h-.125a6.615,6.615,0,1,0-.013,13.229h.138a6.657,6.657,0,0,0,2.915-.678,6.951,6.951,0,0,0,1.03-.626,6.689,6.689,0,0,0,.788-.662,6.81,6.81,0,0,0,.821-.992,6.661,6.661,0,0,0,1.153-3.659A6.528,6.528,0,0,0,317.411,158.79Zm-2.944,5.274a4.819,4.819,0,0,1-.422.415,4.765,4.765,0,0,1-1.8.88,4.849,4.849,0,0,1-1.265.147h-.083a4.744,4.744,0,1,1,.1-9.485h.07a5.032,5.032,0,0,1,3.082,1.141,4.96,4.96,0,0,1,1.107,1.348,4.675,4.675,0,0,1,.646,2.245A4.853,4.853,0,0,1,314.467,164.064Z" transform="translate(-300.653 -154.148)" fill="#fff"/>
    </g>
    <path id="Path_891" data-name="Path 891" d="M322.335,163.312a2.107,2.107,0,0,0-2.973-2.984l0,0a2.093,2.093,0,0,0,0,2.973A2.163,2.163,0,0,0,322.335,163.312Z" transform="translate(3.203 1.131)" fill="#fff"/>
    <g id="Group_733" data-name="Group 733" transform="translate(319.259 153.554)">
      <path id="Path_892" data-name="Path 892" d="M322.448,153.554a8.991,8.991,0,0,0-5.978,2.284,2.884,2.884,0,0,1,.475.63l.785.98a6.937,6.937,0,0,1,4.718-1.862,7.018,7.018,0,0,1,7.011,7.011c0,4.53-4.693,9.535-6.711,11.477l-.307.3-.308-.294c-.26-.251-.637-.63-1.054-1.069l-.693,1.876c0,.034.009.069.012.1,0,.077,0,.156,0,.233.764.752,1.3,1.217,1.387,1.288a1.041,1.041,0,0,0,1.318,0c.343-.291,8.385-7.2,8.385-13.908A9.055,9.055,0,0,0,322.448,153.554Z" transform="translate(-316.47 -153.554)" fill="#fff"/>
    </g>
  </g>
</svg>
