<svg xmlns="http://www.w3.org/2000/svg" width="18.999" height="19" viewBox="0 0 18.999 19">
  <g id="Group_1224" data-name="Group 1224" transform="translate(-400.609 -202.103)">
    <rect id="Rectangle_567" data-name="Rectangle 567" width="3.12" height="3.12" transform="translate(402.878 204.371)" fill="none"/>
    <rect id="Rectangle_568" data-name="Rectangle 568" width="3.12" height="3.12" transform="translate(414.22 204.371)" fill="none"/>
    <path id="Path_970" data-name="Path 970" d="M407.084,202.1h-5.293a1.184,1.184,0,0,0-1.182,1.182v5.293a1.184,1.184,0,0,0,1.182,1.182h5.293a1.184,1.184,0,0,0,1.182-1.182v-5.293A1.184,1.184,0,0,0,407.084,202.1Zm-.426,6.049h-4.44v-4.441h4.44Z" fill="#040506"/>
    <path id="Path_971" data-name="Path 971" d="M407.084,214.985h-5.293a1.184,1.184,0,0,0-1.182,1.182v5.293a1.184,1.184,0,0,0,1.182,1.182h5.293a1.184,1.184,0,0,0,1.182-1.182v-5.293A1.184,1.184,0,0,0,407.084,214.985Zm-.426,6.049h-4.44v-4.441h4.44Z" transform="translate(0 -1.54)" fill="#040506"/>
    <path id="Path_972" data-name="Path 972" d="M419.967,202.1h-5.293a1.184,1.184,0,0,0-1.183,1.182v5.293a1.184,1.184,0,0,0,1.183,1.182h5.293a1.182,1.182,0,0,0,1.181-1.182v-5.293A1.182,1.182,0,0,0,419.967,202.1Zm-.427,6.049H415.1v-4.441h4.441Z" transform="translate(-1.54)" fill="#040506"/>
    <rect id="Rectangle_569" data-name="Rectangle 569" width="2.268" height="2.268" transform="translate(414.646 216.14)" fill="#040506"/>
    <path id="Path_973" data-name="Path 973" d="M421.4,216.036a.567.567,0,0,0-.567-.568h-1.7v2.269H421.4Z" transform="translate(-2.213 -1.597)" fill="#040506"/>
    <path id="Path_974" data-name="Path 974" d="M414.542,215.468a.567.567,0,0,0-.567.568v1.7h2.268v-2.269Z" transform="translate(-1.597 -1.597)" fill="#040506"/>
    <path id="Path_975" data-name="Path 975" d="M420.829,222.89a.567.567,0,0,0,.567-.567v-1.7h-2.268v2.269Z" transform="translate(-2.213 -2.213)" fill="#040506"/>
    <path id="Path_976" data-name="Path 976" d="M413.975,222.323a.567.567,0,0,0,.567.567h1.7v-2.269h-2.268Z" transform="translate(-1.597 -2.213)" fill="#040506"/>
  </g>
</svg>
