<svg xmlns="http://www.w3.org/2000/svg" width="25.5" height="21.279" viewBox="0 0 25.5 21.279">
  <g id="Group_1813" data-name="Group 1813" transform="translate(0.25 0.25)">
    <path id="Path_901" data-name="Path 901" d="M55.832,232.929l-.292.006-.021.043a1.238,1.238,0,0,0,.318,2.437,1.273,1.273,0,0,0,.88-.355,1.24,1.24,0,0,0,.032-1.751A1.252,1.252,0,0,0,55.832,232.929Z" transform="translate(-37.843 -214.64)" fill="currentColor" stroke="#fff" stroke-width="0.5"/>
    <path id="Path_902" data-name="Path 902" d="M55.7,212.892H55.7a7.286,7.286,0,0,0-4,1.2,1.255,1.255,0,0,0,1.374,2.1,4.828,4.828,0,0,1,7.469,4.047c0,3.172-3.3,6.762-4.836,8.255a24.4,24.4,0,0,1-2.877-3.338,1.253,1.253,0,1,0-2.051,1.441,26.956,26.956,0,0,0,4.122,4.57,1.266,1.266,0,0,0,.8.286,1.285,1.285,0,0,0,.815-.293c.668-.571,6.53-5.731,6.53-10.919A7.365,7.365,0,0,0,55.7,212.892Z" transform="translate(-38.044 -212.892)" fill="currentColor" stroke="#fff" stroke-width="0.5"/>
    <path id="Path_903" data-name="Path 903" d="M43.782,218.342l-.379.009-.008.036a2.058,2.058,0,0,0-1.069,3.5,2.125,2.125,0,0,0,2.923,0,2.058,2.058,0,0,0,.064-2.907A2.13,2.13,0,0,0,43.782,218.342Z" transform="translate(-36.755 -213.395)" fill="currentColor" stroke="#fff" stroke-width="0.5"/>
    <path id="Path_904" data-name="Path 904" d="M43.607,212.892h0a7.365,7.365,0,0,0-7.341,7.342c0,5.2,5.862,10.348,6.539,10.925a1.264,1.264,0,0,0,.8.284,1.289,1.289,0,0,0,.816-.291c.668-.57,6.53-5.721,6.53-10.919A7.364,7.364,0,0,0,43.607,212.892Zm4.835,7.34c0,3.165-3.3,6.759-4.841,8.259-1.261-1.226-4.828-4.987-4.828-8.259a4.834,4.834,0,0,1,9.669,0Z" transform="translate(-36.265 -212.892)" fill="currentColor" stroke="#fff" stroke-width="0.5"/>
    <path id="Path_905" data-name="Path 905" d="M43.818,232.933h-.4l-.014.069a1.243,1.243,0,1,0,1.662,1.169A1.242,1.242,0,0,0,43.818,232.933Z" transform="translate(-36.808 -214.641)" fill="currentColor" stroke="#fff" stroke-width="0.5"/>
    <path id="Path_906" data-name="Path 906" d="M51.825,232.929l-.292.006-.021.043a1.231,1.231,0,0,0-.557,2.084,1.27,1.27,0,0,0,1.755,0,1.238,1.238,0,0,0,.032-1.751A1.255,1.255,0,0,0,51.825,232.929Z" transform="translate(-37.498 -214.64)" fill="currentColor" stroke="#fff" stroke-width="0.5"/>
    <path id="Path_907" data-name="Path 907" d="M47.828,232.93l-.245,0-.022.032a1.233,1.233,0,0,0-.68,2.027l.125.123a1.264,1.264,0,0,0,1.7-.052,1.239,1.239,0,0,0,.036-1.752A1.188,1.188,0,0,0,47.828,232.93Z" transform="translate(-37.153 -214.64)" fill="currentColor" stroke="#fff" stroke-width="0.5"/>
    <path id="Path_908" data-name="Path 908" d="M57.269,221.894l.007-.007a2.061,2.061,0,0,0,.043-2.912,2.143,2.143,0,0,0-2.976-.044,2.072,2.072,0,0,0,.009,2.951,2.134,2.134,0,0,0,2.918.013Z" transform="translate(-37.839 -213.395)" fill="currentColor" stroke="#fff" stroke-width="0.5"/>
  </g>
</svg>
