<svg xmlns="http://www.w3.org/2000/svg" width="24.116" height="22.488" viewBox="0 0 24.116 22.488">
  <g id="Group_42" data-name="Group 42" transform="translate(-279.935 -510.354)">
    <g id="Group_2132" data-name="Group 2132" transform="translate(279.935 516.704)">
      <path id="Path_1869" data-name="Path 1869" d="M284.788,532.183a4.872,4.872,0,0,1-4.853-4.852V520.9a4.871,4.871,0,0,1,4.851-4.854l12.154.006a4.871,4.871,0,0,1,4.853,4.85.837.837,0,0,1-.836.839h0a.837.837,0,0,1-.837-.835,3.194,3.194,0,0,0-3.182-3.181l-12.15-.006a3.193,3.193,0,0,0-3.179,3.181v6.429a3.193,3.193,0,0,0,3.181,3.181h12.15a3.193,3.193,0,0,0,3.18-3.183.837.837,0,0,1,.837-.835h0a.837.837,0,0,1,.836.839,4.872,4.872,0,0,1-4.852,4.852Z" transform="translate(-279.935 -516.045)" fill="#3c37ff"/>
    </g>
    <g id="Group_41" data-name="Group 41" transform="translate(286.233 510.354)">
      <g id="Path_31" data-name="Path 31">
        <path id="Path_1870" data-name="Path 1870" d="M294.013,514.665a.837.837,0,0,1-.837-.837,1.8,1.8,0,0,0-1.8-1.8h-2.322a1.8,1.8,0,0,0-1.8,1.8.837.837,0,0,1-.837.837h0a.836.836,0,0,1-.836-.837,3.479,3.479,0,0,1,3.472-3.474h2.324a3.48,3.48,0,0,1,3.473,3.474.837.837,0,0,1-.837.837Z" transform="translate(-285.58 -510.354)" fill="#3c37ff"/>
      </g>
    </g>
    <g id="Group_2133" data-name="Group 2133" transform="translate(296.284 524.02)">
      <path id="Path_1871" data-name="Path 1871" d="M301.518,524.276h-6.093a.837.837,0,0,1,0-1.674h6.093a.837.837,0,1,1,0,1.674Z" transform="translate(-294.588 -522.602)" fill="#3c37ff"/>
    </g>
    <g id="Group_2134" data-name="Group 2134" transform="translate(295.781 521.914)">
      <path id="Path_1872" data-name="Path 1872" d="M296.474,526.111a.831.831,0,0,1-.6-.255l-1.344-1.388a1.4,1.4,0,0,1,.017-1.963c.889-.887,1.312-1.321,1.416-1.439a.837.837,0,0,1,1.459.8c-.075.187-.094.233-1.5,1.637l1.156,1.194a.837.837,0,0,1-.6,1.419Z" transform="translate(-294.137 -520.715)" fill="#3c37ff"/>
    </g>
  </g>
</svg>
