<svg xmlns="http://www.w3.org/2000/svg" width="23.771" height="23.521" viewBox="0 0 23.771 23.521">
  <g id="Group_2182" data-name="Group 2182" transform="translate(13640.36 4592.582)">
    <g id="Group_2057" data-name="Group 2057" transform="translate(-13640.011 -4592.231)">
      <path id="Path_1817" data-name="Path 1817" d="M372.732,270.007l-4.511,5.111a.456.456,0,0,1-.647.037l-2.372-2.142a.456.456,0,0,0-.645.034h0a.456.456,0,0,0,.034.643l3.063,2.769a.456.456,0,0,0,.3.117H368a.46.46,0,0,0,.3-.151l5.123-5.806a.455.455,0,0,0-.039-.642l-.008-.008A.455.455,0,0,0,372.732,270.007Z" transform="translate(-357.663 -261.953)" fill="#18be12" stroke="#18be12" stroke-width="0.7"/>
      <circle id="Ellipse_151" data-name="Ellipse 151" cx="0.458" cy="0.458" r="0.458" transform="translate(0 10.953)" fill="#18be12" stroke="#18be12" stroke-width="0.7"/>
      <path id="Path_1818" data-name="Path 1818" d="M350.5,293.542a.458.458,0,1,0,.458.458A.458.458,0,0,0,350.5,293.542Z" transform="translate(-348.467 -277.081)" fill="#18be12" stroke="#18be12" stroke-width="0.7"/>
      <path id="Path_1819" data-name="Path 1819" d="M350.5,263.059a.458.458,0,1,0,.458.458A.458.458,0,0,0,350.5,263.059Z" transform="translate(-348.467 -257.614)" fill="#18be12" stroke="#18be12" stroke-width="0.7"/>
      <path id="Path_1820" data-name="Path 1820" d="M361.387,253.086a.458.458,0,1,0-.458-.458A.458.458,0,0,0,361.387,253.086Z" transform="translate(-355.421 -250.661)" fill="#18be12" stroke="#18be12" stroke-width="0.7"/>
      <path id="Path_1821" data-name="Path 1821" d="M388.65,253.666a11.512,11.512,0,0,0-8.7-5.67.459.459,0,0,0-.513.453v.005a.457.457,0,0,0,.414.452,10.559,10.559,0,0,1,0,20.995.457.457,0,0,0-.414.452v0a.459.459,0,0,0,.513.453,11.474,11.474,0,0,0,8.7-17.145Z" transform="translate(-367.239 -247.993)" fill="#18be12" stroke="#18be12" stroke-width="0.7"/>
      <circle id="Ellipse_152" data-name="Ellipse 152" cx="0.458" cy="0.458" r="0.458" transform="translate(5.508 20.396)" fill="#18be12" stroke="#18be12" stroke-width="0.7"/>
    </g>
  </g>
</svg>
