<svg xmlns="http://www.w3.org/2000/svg" width="25.742" height="25.654" viewBox="0 0 25.742 25.654">
  <g id="Group_2189" data-name="Group 2189" transform="translate(-255.297 -244.824)">
    <path id="Path_1824" data-name="Path 1824" d="M302.636,292.02a3.864,3.864,0,1,0-.486.47l2.359,2.359a.338.338,0,0,0,.478-.478Zm-6.123-2.547a3.2,3.2,0,1,1,3.2,3.2A3.207,3.207,0,0,1,296.513,289.473Z" transform="translate(-24.781 -24.922)" fill="#fbac04" stroke="#fbac04" stroke-width="0.8"/>
    <path id="Path_1825" data-name="Path 1825" d="M278.361,247.381h-2.834v-.535a1.622,1.622,0,1,0-3.244,0v.535h-8.346v-.535a1.622,1.622,0,1,0-3.243,0v.535h-2.718a2.281,2.281,0,0,0-2.279,2.279V267.8a2.281,2.281,0,0,0,2.279,2.279h11.338a.338.338,0,1,0,0-.677H257.976a1.6,1.6,0,0,1-1.6-1.6V254.279h23.559V253.6H256.373v-3.943a1.6,1.6,0,0,1,1.6-1.6h2.718v1.176a.652.652,0,0,0,.652.652h1.94a.652.652,0,0,0,.652-.652v-1.176h8.346v1.176a.652.652,0,0,0,.652.652h1.94a.652.652,0,0,0,.652-.652v-1.176h2.834a1.6,1.6,0,0,1,1.6,1.6v9.748a.338.338,0,0,0,.677,0v-9.748A2.282,2.282,0,0,0,278.361,247.381Zm-15.1,1.828H261.37v-2.362a.945.945,0,1,1,1.891,0Zm11.589,0h-1.891v-2.362a.945.945,0,1,1,1.891,0Z" transform="translate(0)" fill="#fbac04" stroke="#fbac04" stroke-width="0.8"/>
  </g>
</svg>
