<svg xmlns="http://www.w3.org/2000/svg" width="16.628" height="17.027" viewBox="0 0 16.628 17.027">
  <g id="Group_2097" data-name="Group 2097" transform="translate(-192.34 -381.312)">
    <g id="Group_2081" data-name="Group 2081" transform="translate(192.84 381.812)">
      <g id="Group_2080" data-name="Group 2080" transform="translate(0 0)">
        <g id="Group_2076" data-name="Group 2076" transform="translate(0 1.352)">
          <path id="Path_1839" data-name="Path 1839" d="M246.989,538.529h-12.71a1.562,1.562,0,0,1-1.459-1.645V525.5a1.562,1.562,0,0,1,1.459-1.645h12.71a1.562,1.562,0,0,1,1.459,1.645v11.385A1.562,1.562,0,0,1,246.989,538.529Zm-12.71-14.182a1.093,1.093,0,0,0-1.021,1.151v11.385a1.093,1.093,0,0,0,1.021,1.151h12.71a1.093,1.093,0,0,0,1.021-1.151V525.5a1.093,1.093,0,0,0-1.021-1.151Z" transform="translate(-232.82 -523.854)" fill="#008eff" stroke="#008eff" stroke-width="1"/>
        </g>
        <g id="Group_2077" data-name="Group 2077" transform="translate(3.897 0)">
          <path id="Path_1840" data-name="Path 1840" d="M268.635,514.572a.219.219,0,0,1-.219-.219v-2.628a.219.219,0,0,1,.438,0v2.628A.219.219,0,0,1,268.635,514.572Z" transform="translate(-268.416 -511.506)" fill="#008eff" stroke="#008eff" stroke-width="1"/>
        </g>
        <g id="Group_2078" data-name="Group 2078" transform="translate(11.81 0)">
          <path id="Path_1841" data-name="Path 1841" d="M340.9,514.572a.219.219,0,0,1-.219-.219v-2.628a.219.219,0,0,1,.438,0v2.628A.219.219,0,0,1,340.9,514.572Z" transform="translate(-340.686 -511.506)" fill="#008eff" stroke="#008eff" stroke-width="1"/>
        </g>
        <g id="Group_2079" data-name="Group 2079" transform="translate(0.266 5.594)">
          <path id="Path_1842" data-name="Path 1842" d="M250.369,557.595h-14.9a.219.219,0,0,1,0-.438h14.9a.219.219,0,0,1,0,.438Z" transform="translate(-235.247 -557.157)" fill="#008eff" stroke="#008eff" stroke-width="1"/>
        </g>
      </g>
    </g>
  </g>
</svg>
