<svg xmlns="http://www.w3.org/2000/svg" width="27.856" height="26.116" viewBox="0 0 27.856 26.116">
  <g id="Group_163" data-name="Group 163" transform="translate(-411.398 -116.238)">
    <circle id="Ellipse_38" data-name="Ellipse 38" cx="1.743" cy="1.743" r="1.743" transform="translate(418.355 123.932)" fill="#fff"/>
    <circle id="Ellipse_39" data-name="Ellipse 39" cx="1.743" cy="1.743" r="1.743" transform="translate(423.585 123.932)" fill="#fff"/>
    <circle id="Ellipse_40" data-name="Ellipse 40" cx="1.743" cy="1.743" r="1.743" transform="translate(428.812 123.932)" fill="#fff"/>
    <path id="Path_264" data-name="Path 264" d="M436.643,116.238H414.01a2.62,2.62,0,0,0-2.612,2.612v13.928a2.62,2.62,0,0,0,2.612,2.612.872.872,0,0,1,.87.87v5.223a.861.861,0,0,0,.523.784.522.522,0,0,0,.348.087.858.858,0,0,0,.609-.261l5.746-5.746a4.011,4.011,0,0,1,2.35-.957H434.9a.87.87,0,1,0,0-1.741H424.456a5.714,5.714,0,0,0-3.569,1.48l-4.265,4.265V136.26a2.62,2.62,0,0,0-2.612-2.611.874.874,0,0,1-.871-.871V118.85a.873.873,0,0,1,.871-.87h22.633a.873.873,0,0,1,.871.87v12.187a.87.87,0,1,0,1.741,0V118.85A2.62,2.62,0,0,0,436.643,116.238Z" fill="#fff"/>
  </g>
</svg>
