<svg xmlns="http://www.w3.org/2000/svg" width="13.474" height="16.689" viewBox="0 0 13.474 16.689">
  <g id="Group_2205" data-name="Group 2205" transform="translate(-87.23 -201.331)">
    <path id="Path_1890" data-name="Path 1890" d="M104.74,211.672l-.065-.17-.151.065h0l.134-.1a.582.582,0,0,0-.072-.086l-3.105-3.106a.573.573,0,0,0-.81.81l2.129,2.129H94.935a.573.573,0,1,0,0,1.145H102.8l-2.13,2.129a.573.573,0,0,0,.81.81l3.14-3.14,0-.006c.014-.016.026-.033.038-.05s.015-.027.028-.053a.342.342,0,0,0,.022-.041l.033-.11a.328.328,0,0,0,.006-.038l.029-.009Z" transform="translate(-6.982 -2.108)" fill="#fff" stroke="#fff" stroke-width="0.3"/>
    <path id="Path_1891" data-name="Path 1891" d="M87.953,213.637a.573.573,0,0,1,.573.572v2.167a.349.349,0,0,0,.348.348h6.937a.349.349,0,0,0,.348-.348v-13.4a.349.349,0,0,0-.348-.349H88.874a.35.35,0,0,0-.348.349v2.043a.573.573,0,1,1-1.145,0v-2.043a1.5,1.5,0,0,1,1.494-1.494h6.937a1.5,1.5,0,0,1,1.495,1.494v13.4a1.5,1.5,0,0,1-1.495,1.494H88.874a1.5,1.5,0,0,1-1.494-1.494v-2.167A.573.573,0,0,1,87.953,213.637Z" transform="translate(3.248)" fill="#fff" stroke="#fff" stroke-width="0.3"/>
  </g>
</svg>
