<svg xmlns="http://www.w3.org/2000/svg" width="24" height="24" viewBox="0 0 24 24">
  <g id="help-line" transform="translate(-2 -2)">
    <path id="Path_585" data-name="Path 585" d="M14,2A12,12,0,1,0,26,14,12,12,0,0,0,14,2Zm0,22.5A10.5,10.5,0,1,1,24.5,14,10.5,10.5,0,0,1,14,24.5Z" fill="#17499e"/>
    <path id="Path_586" data-name="Path 586" d="M16.78,8.92a5.535,5.535,0,0,0-4.29,1.927.75.75,0,0,0-.24.533.69.69,0,0,0,.712.69.81.81,0,0,0,.532-.218,4.275,4.275,0,0,1,3.248-1.5,2.616,2.616,0,0,1,2.873,2.558v.038c0,1.657-1.32,2.58-3.405,2.737a.6.6,0,0,0-.57.69v2.063a.75.75,0,0,0,.75.675h.082a.75.75,0,0,0,.675-.75V16.817c2.25-.315,4.073-1.5,4.073-3.96V12.82c-.023-2.25-1.778-3.9-4.44-3.9Z" transform="translate(-2.563 -1.73)" fill="#17499e"/>
    <path id="Path_587" data-name="Path 587" d="M18.405,25.888a.938.938,0,1,1-.937-.937A.938.938,0,0,1,18.405,25.888Z" transform="translate(-3.633 -5.738)" fill="#17499e"/>
  </g>
</svg>
