<svg xmlns="http://www.w3.org/2000/svg" width="22.689" height="20.787" viewBox="0 0 22.689 20.787">
  <g id="Group_759" data-name="Group 759" transform="translate(-3 -3.09)">
    <path id="Path_272" data-name="Path 272" d="M22.2,3.09H6.491A3.491,3.491,0,0,0,3,6.581H3V20.386a3.491,3.491,0,0,0,3.491,3.491H22.2a3.491,3.491,0,0,0,3.491-3.491V6.581A3.491,3.491,0,0,0,22.2,3.09Zm1.745,17.3A1.745,1.745,0,0,1,22.2,22.132H6.491a1.745,1.745,0,0,1-1.745-1.745V6.581A1.745,1.745,0,0,1,6.491,4.835H22.2a1.745,1.745,0,0,1,1.745,1.745ZM22.9,13.832a.873.873,0,0,1-1.4,1.047l-1.972-2.618-2.566,2.967,1.571,2.094a.873.873,0,0,1-1.4,1.047l-4.59-6.109-5.4,6.161a.875.875,0,0,1-1.318-1.152l6.109-6.981a.844.844,0,0,1,1.326.052l2.618,3.43,3.054-3.491a.834.834,0,0,1,1.309.061ZM7.8,10.865A2.182,2.182,0,1,0,5.618,8.684,2.181,2.181,0,0,0,7.8,10.865Zm0-2.618a.436.436,0,1,1-.436.436A.436.436,0,0,1,7.8,8.247Z" fill="currentColor"/>
  </g>
</svg>
