<svg id="Group_779" data-name="Group 779" xmlns="http://www.w3.org/2000/svg" width="22.028" height="24.844" viewBox="0 0 22.028 24.844">
  <g id="Group_83" data-name="Group 83">
    <path id="Path_66" data-name="Path 66" d="M248.9,94.274v23.034a.9.9,0,1,0,1.809,0V95.178h2.3v-.9a1.645,1.645,0,0,1,.272-.9h-3.481A.906.906,0,0,0,248.9,94.274Z" transform="translate(-248.903 -93.369)" fill="#17499e"/>
    <path id="Path_67" data-name="Path 67" d="M270.026,93.369H254.67a.905.905,0,0,0-.9.9v16.764a.9.9,0,0,0,1.809,0V95.179h13.547V116.4H254.67a.9.9,0,0,0,0,1.81h15.356a.906.906,0,0,0,.9-.9V94.274A.906.906,0,0,0,270.026,93.369Z" transform="translate(-248.903 -93.369)" fill="#17499e"/>
  </g>
  <path id="Path_68" data-name="Path 68" d="M259.277,101.321h6.142a.9.9,0,1,0,0-1.809h-6.142a.9.9,0,0,0,0,1.809Z" transform="translate(-248.903 -93.369)" fill="#17499e"/>
  <path id="Path_69" data-name="Path 69" d="M259.277,105.928h6.142a.905.905,0,0,0,0-1.81h-6.142a.905.905,0,0,0,0,1.81Z" transform="translate(-248.903 -93.369)" fill="#17499e"/>
  <path id="Path_70" data-name="Path 70" d="M259.277,110.535h6.142a.905.905,0,0,0,0-1.81h-6.142a.905.905,0,0,0,0,1.81Z" transform="translate(-248.903 -93.369)" fill="#17499e"/>
</svg>
