<svg id="Group_74" data-name="Group 74" xmlns="http://www.w3.org/2000/svg" width="19.525" height="19.525" fill="#17499e" viewBox="0 0 19.525 19.525">
  <path id="Path_47" data-name="Path 47" d="M252.121,69.336l-4.658,4.659a1.006,1.006,0,0,1-1.717-.711,1.013,1.013,0,0,1,.295-.711l4.935-4.936a.7.7,0,0,0-.994-.994l-4.935,4.936a2.411,2.411,0,1,0,3.409,3.41l4.659-4.659a.7.7,0,1,0-.994-.993Z" transform="translate(-244.341 -56.169)" fill="#17499e"/>
  <path id="Path_48" data-name="Path 48" d="M259.058,63.512A2.014,2.014,0,0,0,257.1,63l-.341.095-6.2-6.258-.062-.1-.19-.543a2.527,2.527,0,0,0-.98-1.265l-2.056-1.371a.7.7,0,0,0-.887.087l-1.709,1.709a.7.7,0,0,0-.088.886l1.371,2.057a2.53,2.53,0,0,0,1.265.98l.538.188a.209.209,0,0,1,.079.049l6.208,6.273-.107.365a2,2,0,0,0,.506,1.987l3.869,3.87a3.265,3.265,0,0,0,4.618-4.618Zm-3.766,3.037.224-.763a.7.7,0,0,0-.175-.693l-6.5-6.567a1.608,1.608,0,0,0-.614-.388l-.54-.188a1.115,1.115,0,0,1-.558-.432l-1.052-1.577.893-.894L248.55,56.1a1.111,1.111,0,0,1,.432.557l.19.544a1.64,1.64,0,0,0,.376.6l6.5,6.569a.7.7,0,0,0,.687.183l.739-.2a.605.605,0,0,1,.588.155l3.88,3.88a1.86,1.86,0,0,1-2.631,2.63l-3.869-3.87A.6.6,0,0,1,255.292,66.549Z" transform="translate(-244.368 -53.44)" fill="#17499e"/>
  <path id="Path_49" data-name="Path 49" d="M257.544,60.076a.7.7,0,0,0,.994,0l.23-.23a.708.708,0,0,0,.168-.727,3.207,3.207,0,0,1,2.684-4.256l.211.212-1.638,1.638a.7.7,0,0,0,0,.994l2.135,2.136a.719.719,0,0,0,.994,0L264.96,58.2l.212.212a3.208,3.208,0,0,1-4.255,2.684.7.7,0,1,0-.46,1.328,4.7,4.7,0,0,0,1.538.261,4.616,4.616,0,0,0,4.6-4.532.71.71,0,0,0-.206-.51l-.932-.933a.7.7,0,0,0-.994,0l-1.639,1.639-1.142-1.142,1.639-1.638a.7.7,0,0,0,0-.993l-.933-.933a.718.718,0,0,0-.51-.205,4.613,4.613,0,0,0-4.4,5.713A.7.7,0,0,0,257.544,60.076Z" transform="translate(-247.07 -53.44)" fill="#17499e"/>
  <path id="Path_50" data-name="Path 50" d="M259.952,70.358a1.506,1.506,0,0,0,1.306-1.307.7.7,0,0,0-1.388-.155.559.559,0,0,1-.071.073.7.7,0,0,0,.153,1.389Z" transform="translate(-247.472 -56.571)" fill="#17499e"/>
</svg>
