<svg xmlns="http://www.w3.org/2000/svg" width="22.258" height="19.115" fill="#17499e"  viewBox="0 0 22.258 19.115">
  <path id="Path_592" data-name="Path 592" d="M21.47,6.567H17.241v-2.3a.59.59,0,0,0-.59-.59H8.919a.59.59,0,0,0-.59.59v2.3H4.1A2.447,2.447,0,0,0,1.657,9.012V20.351A2.446,2.446,0,0,0,4.1,22.8h17.37a2.447,2.447,0,0,0,2.444-2.445V9.013A2.448,2.448,0,0,0,21.47,6.567ZM9.509,4.861h6.552V6.567H9.509ZM4.1,7.747h17.37a1.267,1.267,0,0,1,1.265,1.265v5.08H14.768v-.515a1.982,1.982,0,0,0-3.965,0v.515H2.836V9.013A1.266,1.266,0,0,1,4.1,7.747Zm9.488,5.83v2.21a.8.8,0,0,1-1.606,0v-2.21a.8.8,0,0,1,1.606,0Zm7.881,8.04H4.1a1.266,1.266,0,0,1-1.265-1.265v-5.08H10.8v.515a1.982,1.982,0,1,0,3.965,0v-.515h7.968v5.08A1.27,1.27,0,0,1,21.47,21.617Z" transform="translate(-1.657 -3.681)" fill="#17499e"/>
</svg>
