<svg xmlns="http://www.w3.org/2000/svg" width="16.932" height="16.933" viewBox="0 0 16.932 16.933">
  <g id="Group_1517" data-name="Group 1517" transform="translate(-400.609 -202.103)">
    <path id="Path_970" data-name="Path 970" d="M406.38,202.1h-4.717a1.055,1.055,0,0,0-1.054,1.053v4.717a1.055,1.055,0,0,0,1.054,1.053h4.717a1.055,1.055,0,0,0,1.054-1.053v-4.717A1.055,1.055,0,0,0,406.38,202.1Zm-.38,5.391h-3.957v-3.958H406Z" transform="translate(0 0)" fill="#777"/>
    <path id="Path_971" data-name="Path 971" d="M406.38,214.985h-4.717a1.055,1.055,0,0,0-1.054,1.053v4.717a1.056,1.056,0,0,0,1.054,1.054h4.717a1.056,1.056,0,0,0,1.054-1.054v-4.717A1.055,1.055,0,0,0,406.38,214.985Zm-.38,5.391h-3.957v-3.958H406Z" transform="translate(0 -2.774)" fill="#777"/>
    <path id="Path_972" data-name="Path 972" d="M419.262,202.1h-4.717a1.055,1.055,0,0,0-1.054,1.053v4.717a1.055,1.055,0,0,0,1.054,1.053h4.717a1.054,1.054,0,0,0,1.052-1.053v-4.717A1.054,1.054,0,0,0,419.262,202.1Zm-.381,5.391h-3.958v-3.958h3.958Z" transform="translate(-2.774 0)" fill="#777"/>
    <rect id="Rectangle_569" data-name="Rectangle 569" width="2.022" height="2.022" transform="translate(413.119 214.612)" fill="#777"/>
    <path id="Path_973" data-name="Path 973" d="M421.149,215.974a.506.506,0,0,0-.505-.506h-1.516v2.022h2.021Z" transform="translate(-3.988 -2.878)" fill="#777"/>
    <path id="Path_974" data-name="Path 974" d="M414.48,215.468a.506.506,0,0,0-.505.506v1.516H416v-2.022Z" transform="translate(-2.878 -2.878)" fill="#777"/>
    <path id="Path_975" data-name="Path 975" d="M420.644,222.643a.506.506,0,0,0,.505-.505v-1.517h-2.021v2.022Z" transform="translate(-3.988 -3.987)" fill="#777"/>
    <path id="Path_976" data-name="Path 976" d="M413.975,222.138a.506.506,0,0,0,.505.505H416v-2.022h-2.021Z" transform="translate(-2.878 -3.987)" fill="#777"/>
  </g>
</svg>
