<svg id="Group_7" data-name="Group 7" xmlns="http://www.w3.org/2000/svg" width="29.552" height="23.188" viewBox="0 0 29.552 23.188">
  <path id="Path_14" data-name="Path 14" d="M189.086,421.184a4.774,4.774,0,1,0,4.774,4.774A4.774,4.774,0,0,0,189.086,421.184Zm0,7.638a2.864,2.864,0,1,1,2.864-2.864h0a2.835,2.835,0,0,1-2.8,2.864Z" transform="translate(-184.312 -421.184)" fill="#fff"/>
  <path id="Path_15" data-name="Path 15" d="M198.325,426.913h14.6a.955.955,0,0,0,.023-1.909H198.227a.957.957,0,0,0,.1,1.911Z" transform="translate(-184.312 -421.184)" fill="#fff"/>
  <path id="Path_16" data-name="Path 16" d="M212.944,438.642H198.227a.957.957,0,0,0,.1,1.911h14.6a.955.955,0,0,0,.023-1.909Z" transform="translate(-184.312 -421.184)" fill="#fff"/>
  <path id="Path_17" data-name="Path 17" d="M189.086,434.823a4.778,4.778,0,0,0-4.774,4.774.957.957,0,0,0,.936.977h.005a1,1,0,0,0,.968-.941,2.864,2.864,0,1,1,2.9,2.828h-.09a.957.957,0,0,0-.081,1.909.828.828,0,0,0,.1,0,4.774,4.774,0,0,0,.037-9.548Z" transform="translate(-184.312 -421.184)" fill="#fff"/>
</svg>
