<svg id="Group_8" data-name="Group 8" xmlns="http://www.w3.org/2000/svg" width="17.775" height="22.08" viewBox="0 0 17.775 22.08">
  <path id="Path_18" data-name="Path 18" d="M25.677,29.5a8.87,8.87,0,0,0-8.86,8.86c0,4.836,8.258,12.629,8.34,12.7l.548.516.547-.514c.083-.077,8.34-7.861,8.34-12.707A8.97,8.97,0,0,0,25.677,29.5Zm7.306,8.86c0,3.069-4.736,8.528-7.306,11.054-2.748-2.7-7.306-7.989-7.306-11.054a7.306,7.306,0,1,1,14.612,0Z" transform="translate(-16.817 -29.501)" fill="#252525"/>
  <path id="Path_19" data-name="Path 19" d="M31.043,38.206a.715.715,0,0,0-.559-.153.754.754,0,0,0-.528.284.706.706,0,0,0-.153.547,1.662,1.662,0,0,0,.014.181,1.243,1.243,0,0,1,.014.156,3.265,3.265,0,1,1-3.265-3.265,3.159,3.159,0,0,1,1.847.57A.754.754,0,0,0,29,36.66a.769.769,0,0,0,.291-1.4,4.706,4.706,0,0,0-2.754-.861,4.818,4.818,0,1,0,4.818,4.818,2.8,2.8,0,0,0-.028-.485A.756.756,0,0,0,31.043,38.206Z" transform="translate(-17.678 -30.362)" fill="#252525"/>
</svg>
