<svg xmlns="http://www.w3.org/2000/svg" width="20.241" height="20.171" viewBox="0 0 20.241 20.171">
  <g id="Group_456" data-name="Group 456" transform="translate(-1395.792 -1.504)">
    <path id="Path_628" data-name="Path 628" d="M1545.162,92.469a4.415,4.415,0,0,1-.44.617c-1.6,1.59-3.209,3.163-4.8,4.757a.858.858,0,1,1-1.184-1.21c1.129-1.088,2.235-2.2,3.354-3.3a.722.722,0,0,1,.192-.1l-.069-.09H1532.6a.848.848,0,0,1-.932-.675.832.832,0,0,1,.744-.992c.092-.007.184-.006.277-.006h9.576c-.081-.086-.129-.141-.182-.192q-1.687-1.666-3.376-3.331a.882.882,0,0,1-.309-.866.833.833,0,0,1,1.323-.48,2.054,2.054,0,0,1,.191.171q2.448,2.415,4.891,4.835a3.665,3.665,0,0,1,.361.5Z" transform="translate(-129.129 -80.721)" fill="#777"/>
    <path id="Path_629" data-name="Path 629" d="M1397.474,11.595q0,3.706,0,7.411a1.014,1.014,0,0,0,.171.654.932.932,0,0,0,.8.338q3.607,0,7.214,0c.092,0,.185,0,.276.007a.834.834,0,0,1-.017,1.665c-.191.009-.382,0-.573,0q-3.489,0-6.977,0a2.5,2.5,0,0,1-2.517-1.982,2.764,2.764,0,0,1-.061-.607q-.005-7.49,0-14.98a2.514,2.514,0,0,1,2.591-2.6c2.477,0,4.954,0,7.431,0a.825.825,0,0,1,.825.5.8.8,0,0,1-.127.887.765.765,0,0,1-.545.283c-.1.007-.2.009-.3.009H1398.5a2.046,2.046,0,0,0-.354.026.81.81,0,0,0-.655.7,2.833,2.833,0,0,0-.014.315Q1397.474,7.909,1397.474,11.595Z" transform="translate(0 0)" fill="#777"/>
  </g>
</svg>
