<svg xmlns="http://www.w3.org/2000/svg" width="18.011" height="13.509" viewBox="0 0 18.011 13.509">
  <path id="Path_323" data-name="Path 323" d="M931.431,562.161H916.8a1.693,1.693,0,0,0-1.69,1.69v10.131a1.691,1.691,0,0,0,1.69,1.688h14.633a1.69,1.69,0,0,0,1.688-1.688V563.851A1.691,1.691,0,0,0,931.431,562.161Zm0,1.126a.559.559,0,0,1,.216.044l-7.533,6.528-7.532-6.528a.553.553,0,0,1,.216-.044h14.633Zm0,11.257H916.8a.564.564,0,0,1-.563-.563V564.52l7.512,6.509a.556.556,0,0,0,.368.137.563.563,0,0,0,.369-.137l7.512-6.509v9.461A.564.564,0,0,1,931.431,574.545Z" transform="translate(-915.108 -562.161)" fill="#7b7b7b"/>
</svg>
