<svg xmlns="http://www.w3.org/2000/svg" width="22.146" height="15.819" viewBox="0 0 22.146 15.819">
  <g id="Group_1448" data-name="Group 1448" transform="translate(-2 83.286)">
    <path id="Path_1031" data-name="Path 1031" d="M21.964-83.286H4.183A2.191,2.191,0,0,0,2-81.1V-69.65a2.191,2.191,0,0,0,2.183,2.183H21.964a2.191,2.191,0,0,0,2.183-2.183V-81.1A2.191,2.191,0,0,0,21.964-83.286ZM21.291-81.7l-7.72,6.146a.791.791,0,0,1-1,0L4.855-81.7Zm.672,12.655H4.183a.6.6,0,0,1-.6-.6h0V-80.723l8,6.375a2.373,2.373,0,0,0,2.974,0l8-6.343v11.073A.6.6,0,0,1,21.964-69.049Z" transform="translate(0 0)" fill="currentColor"/>
  </g>
</svg>
