<svg xmlns="http://www.w3.org/2000/svg" width="22.041" height="22.041" viewBox="0 0 22.041 22.041" fill="#17499e">
  <g id="Group_421" data-name="Group 421" transform="translate(-64.89 -64.89)">
    <path id="Path_588" data-name="Path 588" d="M72.243,65.14H67.454a2.317,2.317,0,0,0-2.314,2.314v4.789a2.314,2.314,0,0,0,2.314,2.314h4.789a2.314,2.314,0,0,0,2.314-2.314h0V67.454A2.314,2.314,0,0,0,72.243,65.14Zm1.411,7.1a1.411,1.411,0,0,1-1.411,1.411H67.454a1.411,1.411,0,0,1-1.411-1.411V67.454a1.411,1.411,0,0,1,1.411-1.411h4.789a1.411,1.411,0,0,1,1.411,1.411Z" fill="#17499e" stroke="#17499e" stroke-width="0.5"/>
    <path id="Path_589" data-name="Path 589" d="M287.1,65.14h-4.789A2.314,2.314,0,0,0,280,67.454v4.789a2.314,2.314,0,0,0,2.314,2.314H287.1a2.314,2.314,0,0,0,2.314-2.314h0V67.454A2.317,2.317,0,0,0,287.1,65.14Zm1.411,7.1a1.411,1.411,0,0,1-1.411,1.411h-4.789a1.411,1.411,0,0,1-1.411-1.411V67.454a1.411,1.411,0,0,1,1.411-1.411H287.1a1.411,1.411,0,0,1,1.411,1.411Z" transform="translate(-202.735)" fill="#17499e" stroke="#17499e" stroke-width="0.5"/>
    <path id="Path_590" data-name="Path 590" d="M72.243,280H67.454a2.314,2.314,0,0,0-2.314,2.314h0V287.1a2.317,2.317,0,0,0,2.314,2.314h4.789a2.314,2.314,0,0,0,2.314-2.314v-4.789A2.314,2.314,0,0,0,72.243,280Zm1.411,7.1a1.411,1.411,0,0,1-1.411,1.411H67.454a1.411,1.411,0,0,1-1.411-1.411h0v-4.789a1.411,1.411,0,0,1,1.411-1.411h4.789a1.411,1.411,0,0,1,1.411,1.411Z" transform="translate(0 -202.735)" fill="#17499e" stroke="#17499e" stroke-width="0.5"/>
    <path id="Path_591" data-name="Path 591" d="M287.1,280h-4.789A2.314,2.314,0,0,0,280,282.314h0V287.1a2.314,2.314,0,0,0,2.314,2.314H287.1a2.317,2.317,0,0,0,2.314-2.314v-4.789A2.314,2.314,0,0,0,287.1,280Zm1.411,7.1a1.411,1.411,0,0,1-1.411,1.411h-4.789A1.411,1.411,0,0,1,280.9,287.1h0v-4.789a1.411,1.411,0,0,1,1.411-1.411H287.1a1.411,1.411,0,0,1,1.411,1.411Z" transform="translate(-202.735 -202.735)" fill="#17499e" stroke="#17499e" stroke-width="0.5"/>
  </g>
</svg>
