<svg xmlns="http://www.w3.org/2000/svg" width="10.525" height="16.964" viewBox="0 0 10.525 16.964">
  <g id="Group_982" data-name="Group 982" transform="translate(-110.131 -20.875)">
    <g id="Group_983" data-name="Group 983">
      <g id="Group_984" data-name="Group 984">
        <path id="Path_932" data-name="Path 932" d="M118.753,21h-6.719a1.78,1.78,0,0,0-1.778,1.778V35.936a1.78,1.78,0,0,0,1.778,1.778H119.1a1.447,1.447,0,0,0,1.033-.437,1.4,1.4,0,0,0,.4-1.016V22.778A1.78,1.78,0,0,0,118.753,21Zm-6.719.711h6.719a1.068,1.068,0,0,1,1.067,1.067v.579h-8.852v-.579A1.068,1.068,0,0,1,112.034,21.711Zm7.785,2.357v9.486h-8.852V24.068Zm-.2,12.714A.722.722,0,0,1,119.1,37h-7.066a1.068,1.068,0,0,1-1.067-1.067V34.265h8.852v2s0,.007,0,.011A.689.689,0,0,1,119.622,36.782Z" fill="#7b7b7b" stroke="#707070" stroke-width="0.25"/>
        <path id="Path_933" data-name="Path 933" d="M238.311,419.953h-.91a.356.356,0,1,0,0,.711h.91a.356.356,0,1,0,0-.711Z" transform="translate(-122.281 -384.765)" fill="#7b7b7b" stroke="#707070" stroke-width="0.25"/>
      </g>
    </g>
  </g>
</svg>
