<svg xmlns="http://www.w3.org/2000/svg" width="27.285" height="19.127" viewBox="0 0 27.285 19.127">
  <g id="Group_779" data-name="Group 779" transform="translate(-301.203 -153.554)">
    <g id="Group_732" data-name="Group 732" transform="translate(301.203 154.133)">
      <path id="Path_889" data-name="Path 889" d="M318.241,171.724c0-.063,0-.129,0-.192a7.129,7.129,0,0,0-1.255-3.741c-.1-.132-.2-.266-.3-.4a6.9,6.9,0,0,0-1.65-1.5.77.77,0,0,0-.566-.059.778.778,0,0,0-.473.367.7.7,0,0,0-.028.087.774.774,0,0,0,.319.981,5.771,5.771,0,0,1,1.86,2.169,4.976,4.976,0,0,1,.41,1.267l.123.74H302.764l.14-.753a5.282,5.282,0,0,1,2.308-3.447.776.776,0,1,0-.832-1.309,7.234,7.234,0,0,0-3.172,6.255.779.779,0,0,0,.772.8h15.5a.773.773,0,0,0,.772-.773C318.257,172.046,318.248,171.885,318.241,171.724Z" transform="translate(-301.203 -154.433)" fill="#17499e"/>
      <path id="Path_890" data-name="Path 890" d="M315.1,157.977a5.47,5.47,0,0,0-.878-1.653c-.109-.141-.208-.29-.33-.419a5.57,5.57,0,0,0-1.425-1.1,5.494,5.494,0,0,0-2.607-.655h-.1a5.457,5.457,0,1,0-.011,10.913h.114a5.491,5.491,0,0,0,2.4-.559,5.736,5.736,0,0,0,.85-.516,5.519,5.519,0,0,0,.65-.546,5.615,5.615,0,0,0,.677-.818,5.5,5.5,0,0,0,.951-3.018A5.385,5.385,0,0,0,315.1,157.977Zm-2.428,4.35a3.978,3.978,0,0,1-.348.342,3.93,3.93,0,0,1-1.488.726,4,4,0,0,1-1.044.121h-.068a3.913,3.913,0,1,1,.079-7.824h.058a4.151,4.151,0,0,1,2.542.941,4.092,4.092,0,0,1,.913,1.112,3.856,3.856,0,0,1,.533,1.852A4,4,0,0,1,312.671,162.327Z" transform="translate(-301.277 -154.148)" fill="#17499e"/>
    </g>
    <path id="Path_891" data-name="Path 891" d="M321.706,162.687a1.738,1.738,0,0,0-2.453-2.461l0,0a1.726,1.726,0,0,0,0,2.453A1.784,1.784,0,0,0,321.706,162.687Z" transform="translate(-0.428 -0.151)" fill="#17499e"/>
    <g id="Group_733" data-name="Group 733" transform="translate(316.097 153.554)">
      <path id="Path_892" data-name="Path 892" d="M321.4,153.554a7.417,7.417,0,0,0-4.931,1.884,2.379,2.379,0,0,1,.392.52l.648.809a5.722,5.722,0,0,1,3.892-1.536,5.789,5.789,0,0,1,5.783,5.783c0,3.736-3.871,7.865-5.535,9.467l-.254.244-.254-.243c-.215-.207-.526-.52-.869-.882l-.572,1.547c0,.028.008.057.01.085,0,.063,0,.129,0,.192.63.62,1.076,1,1.144,1.062a.858.858,0,0,0,1.087,0c.283-.24,6.917-5.938,6.917-11.473A7.469,7.469,0,0,0,321.4,153.554Z" transform="translate(-316.47 -153.554)" fill="#17499e"/>
    </g>
  </g>
</svg>
