<svg xmlns="http://www.w3.org/2000/svg" width="22.506" height="22.34" viewBox="0 0 22.506 22.34">
  <g id="Group_178" data-name="Group 178" transform="translate(-152.494 -162.248)">
    <path id="Path_276" data-name="Path 276" d="M174.209,178.463H172.8v-7.174a9.062,9.062,0,0,0-1.365-4.75,9.237,9.237,0,0,0-3.526-3.265,8.947,8.947,0,0,0-4.758-1,9.225,9.225,0,0,0-4.106,1.3,9.342,9.342,0,0,0-2.984,2.95,9.022,9.022,0,0,0-1.342,4.082c-.035.4-.033.8-.031,1.226v6.631h-1.367a.864.864,0,0,0-.6.233.821.821,0,0,0-.228.531.787.787,0,0,0,.791.817l17.366,0c.444,0,.887,0,1.328,0h2.19a.862.862,0,0,0,.6-.232.812.812,0,0,0,.228-.533h0a.846.846,0,0,0-.216-.571A.837.837,0,0,0,174.209,178.463Zm-2.988,0-14.95,0v-6.571a14.393,14.393,0,0,1,.056-1.573l0-.027a8.889,8.889,0,0,1,.5-1.845,7.48,7.48,0,0,1,7.9-4.558,8.849,8.849,0,0,1,1.875.508,9.11,9.11,0,0,1,1.7.985,7.575,7.575,0,0,1,2.345,3.038,8.874,8.874,0,0,1,.514,1.858,9.03,9.03,0,0,1,.058,1.016Z" transform="translate(0)" fill="#fff"/>
    <path id="Path_277" data-name="Path 277" d="M166.6,184.547l-.006.017h0l-.019-.008c-.024.042-.047.083-.072.123l.014.011,0,0h0l-.2.264,0,0-.014-.011c-.042.044-.086.088-.131.13l.011.015-.271.208-.013-.017c-.042.026-.085.051-.129.075l.008.019h0l-.314.132-.008-.018c-.047.014-.095.027-.144.04l0,.022H165.3l-.35.047,0-.018c-.065,0-.131,0-.2,0l0,.018-.349-.047h-.008l0-.022c-.047-.011-.092-.025-.139-.038l-.007.018-.006,0,0,0-.31-.13h0l0,0,.007-.018c-.042-.023-.083-.047-.125-.072l-.012.015,0,0h0l-.267-.206.011-.014c-.046-.043-.09-.087-.133-.132l-.013.01-.191-.246-.017-.022v0l.016-.012c-.026-.042-.052-.085-.076-.128l-.02.009h0l-.131-.313.015-.007c-.018-.057-.034-.115-.049-.173a.829.829,0,0,0-.362-.466.872.872,0,0,0-.421-.108.549.549,0,0,0-.163.022.818.818,0,0,0-.572.99,3.538,3.538,0,0,0,5.863,1.69,3.5,3.5,0,0,0,.994-1.689.849.849,0,0,0-.075-.619.836.836,0,0,0-.448-.359.825.825,0,0,0-.612.06.87.87,0,0,0-.372.477v0c-.015.056-.03.112-.047.167l.016.006Z" transform="translate(-1.078 -2.576)" fill="#fff"/>
  </g>
</svg>
