<svg xmlns="http://www.w3.org/2000/svg" width="25.354" height="25.355" viewBox="0 0 25.354 25.355">
  <g id="Group_1906" data-name="Group 1906" transform="translate(-20.003 -1)">
    <g id="Group_784" data-name="Group 784" transform="translate(29.727 5.457)">
      <path id="Path_273" data-name="Path 273" d="M135.249,169.027a1.223,1.223,0,1,0-1.224-1.223A1.225,1.225,0,0,0,135.249,169.027Z" transform="translate(-132.366 -166.581)" fill="#17499e"/>
      <path id="Path_274" data-name="Path 274" d="M138.225,180.585H136.5v-7.679a.83.83,0,0,0-.829-.828h-2.561a.829.829,0,0,0,0,1.658h1.733v7.678a.829.829,0,0,0,.828.828h2.557a.828.828,0,1,0,0-1.657Z" transform="translate(-132.279 -166.855)" fill="#17499e"/>
    </g>
    <path id="Path_272" data-name="Path 272" d="M143.669,161.41H126.29A3.993,3.993,0,0,0,122.3,165.4v17.377a3.993,3.993,0,0,0,3.988,3.989h17.378a3.993,3.993,0,0,0,3.987-3.989V165.4A3.992,3.992,0,0,0,143.669,161.41ZM146,182.776a2.334,2.334,0,0,1-2.33,2.331H126.29a2.334,2.334,0,0,1-2.331-2.331V165.4a2.334,2.334,0,0,1,2.331-2.331h17.378A2.334,2.334,0,0,1,146,165.4Z" transform="translate(-102.299 -160.41)" fill="#17499e"/>
  </g>
</svg>
