<svg id="Group_96" data-name="Group 96" xmlns="http://www.w3.org/2000/svg" width="15.5" height="15.5" viewBox="0 0 15.5 15.5" fill='currentColor'>
  <path id="Path_47" data-name="Path 47" d="M250.517,68.738l-3.7,3.7a.8.8,0,0,1-1.363-.564.8.8,0,0,1,.234-.564l3.918-3.918a.558.558,0,0,0-.789-.789L244.9,70.519a1.914,1.914,0,1,0,2.706,2.707l3.7-3.7a.558.558,0,0,0-.789-.788Z" transform="translate(-244.341 -58.286)"/>
  <path id="Path_48" data-name="Path 48" d="M256.051,61.436a1.6,1.6,0,0,0-1.553-.41l-.271.075-4.921-4.968-.049-.076-.151-.431a2.006,2.006,0,0,0-.778-1L246.7,53.534a.558.558,0,0,0-.7.069l-1.357,1.357a.558.558,0,0,0-.07.7l1.089,1.633a2.008,2.008,0,0,0,1,.778l.427.149a.166.166,0,0,1,.063.039l4.928,4.98-.085.29a1.591,1.591,0,0,0,.4,1.577l3.072,3.072a2.592,2.592,0,0,0,3.666-3.666Zm-2.99,2.411.178-.606a.557.557,0,0,0-.139-.55l-5.16-5.213a1.277,1.277,0,0,0-.487-.308l-.428-.149a.885.885,0,0,1-.443-.343l-.835-1.252.709-.71,1.252.835a.882.882,0,0,1,.343.442l.151.431a1.3,1.3,0,0,0,.3.479l5.162,5.215a.554.554,0,0,0,.546.146l.586-.162a.48.48,0,0,1,.467.123l3.08,3.08a1.476,1.476,0,0,1-2.088,2.088l-3.072-3.072A.477.477,0,0,1,253.061,63.846Z" transform="translate(-244.39 -53.44)"/>
  <path id="Path_49" data-name="Path 49" d="M257.5,58.708a.558.558,0,0,0,.789,0l.182-.182a.562.562,0,0,0,.133-.577,2.546,2.546,0,0,1,2.13-3.378l.167.168-1.3,1.3a.558.558,0,0,0,0,.789l1.695,1.7a.571.571,0,0,0,.789,0l1.3-1.3.168.168a2.546,2.546,0,0,1-3.378,2.131.558.558,0,1,0-.365,1.054,3.733,3.733,0,0,0,1.221.207,3.665,3.665,0,0,0,3.652-3.6.563.563,0,0,0-.164-.405l-.74-.741a.56.56,0,0,0-.789,0l-1.3,1.3-.906-.907,1.3-1.3a.558.558,0,0,0,0-.788l-.741-.741a.57.57,0,0,0-.405-.163,3.662,3.662,0,0,0-3.49,4.536A.558.558,0,0,0,257.5,58.708Z" transform="translate(-249.187 -53.44)"/>
  <path id="Path_50" data-name="Path 50" d="M259.807,69.944a1.2,1.2,0,0,0,1.037-1.037.558.558,0,0,0-1.1-.123.444.444,0,0,1-.056.058.558.558,0,0,0,.122,1.1Z" transform="translate(-249.9 -58.999)"/>
</svg>
