<svg xmlns="http://www.w3.org/2000/svg" width="13.613" height="16.761" viewBox="0 0 13.613 16.761">
  <path id="Path_256" data-name="Path 256" d="M346.264,119.138a.47.47,0,0,0-.068-.121.515.515,0,0,0-.125-.121l-6.354-3.179a1.338,1.338,0,0,0-.133-.032.371.371,0,0,0-.164,0,.572.572,0,0,0-.11.027l-.086.024-6.271,3.149a.408.408,0,0,0-.137.106.667.667,0,0,0-.089.153.474.474,0,0,0-.039.173v9.47a.493.493,0,0,0,.273.442l6.275,3.137.049.019a.442.442,0,0,0,.415,0l.053-.021,6.276-3.138a.49.49,0,0,0,.272-.441v-9.47a.471.471,0,0,0-.025-.145ZM339.5,116.71l2.053,1.028-5.21,2.605-2.053-1.027ZM339,131.145l-2.17-1.085v-1.274a.493.493,0,1,0-.986,0v.781l-2.17-1.085v-8.368l2.17,1.085v1.274a.493.493,0,1,0,.986,0v-.781l2.17,1.085Zm.493-9.224-2.053-1.027,5.21-2.606,2.053,1.028Zm5.82,6.561-5.327,2.664v-8.368l5.327-2.664Z" transform="translate(-332.69 -115.675)" fill="#040506"/>
</svg>
