<svg id="Group_938" data-name="Group 938" xmlns="http://www.w3.org/2000/svg" width="20.097" height="20.097" viewBox="0 0 20.097 20.097">
  <path id="Path_923" data-name="Path 923" d="M17.868,11.746h-6.49a.628.628,0,0,1-.628-.628V4.628a.628.628,0,0,1,1.256,0V10.49h5.862a.628.628,0,0,1,0,1.256Z" transform="translate(-1.748 -0.651)" fill="#777"/>
  <path id="Path_924" data-name="Path 924" d="M10.048,20.1A10.048,10.048,0,1,1,20.1,10.048,10.049,10.049,0,0,1,10.048,20.1Zm0-18.841a8.792,8.792,0,1,0,8.792,8.792A8.792,8.792,0,0,0,10.048,1.256Z" fill="#777"/>
</svg>
