<svg xmlns="http://www.w3.org/2000/svg" width="12.391" height="19.788" viewBox="0 0 12.391 19.788">
  <path id="Path_1829" data-name="Path 1829" d="M641.221,266.639h-.626v-5.48a.571.571,0,0,0-.234-.461l-3.639-2.663,3.639-2.664a.57.57,0,0,0,.233-.46v-5.479h.626a.57.57,0,0,0,0-1.141H630.27a.57.57,0,0,0,0,1.141h.626v5.48a.571.571,0,0,0,.233.46l3.639,2.663L631.13,260.7a.57.57,0,0,0-.234.461v5.479h-.626a.57.57,0,0,0,0,1.141h10.951a.57.57,0,0,0,0-1.141Zm-9.184-12.017v-5.19h7.417v.346h0v4.842l-3.708,2.715Zm7.417,12.017h-7.417v-5.19l3.708-2.715,3.709,2.715Z" transform="translate(-629.55 -248.142)" fill="#17338d" stroke="#17338d" stroke-width="0.3"/>
</svg>
