<svg xmlns="http://www.w3.org/2000/svg" width="17.685" height="21.775" viewBox="0 0 17.685 21.775">
  <path id="Path_1873" data-name="Path 1873" d="M350.324,120.174a.611.611,0,0,0-.088-.157.669.669,0,0,0-.162-.157l-8.254-4.13a1.74,1.74,0,0,0-.172-.042.482.482,0,0,0-.213,0,.744.744,0,0,0-.143.035l-.112.032-8.147,4.091a.53.53,0,0,0-.177.137.867.867,0,0,0-.116.2.616.616,0,0,0-.05.225v12.3a.64.64,0,0,0,.355.574l8.152,4.075.064.025a.574.574,0,0,0,.539,0l.069-.028,8.154-4.076a.636.636,0,0,0,.354-.573V120.4a.611.611,0,0,0-.033-.189Zm-8.791-3.155,2.668,1.335-6.769,3.384-2.668-1.334Zm-.641,18.753-2.819-1.41v-1.655a.641.641,0,1,0-1.282,0v1.014l-2.819-1.41V121.441l2.819,1.41v1.655a.641.641,0,1,0,1.282,0v-1.014l2.819,1.41Zm.641-11.983-2.668-1.334,6.769-3.385L348.3,120.4Zm7.561,8.523-6.92,3.46V124.9l6.92-3.46Z" transform="translate(-332.69 -115.675)" fill="#17338d"/>
</svg>
