<svg xmlns="http://www.w3.org/2000/svg" width="21.353" height="21.282" viewBox="0 0 21.353 21.282">
  <path id="Path_20" data-name="Path 20" d="M70.027,77.959a2.154,2.154,0,0,0-2.815-.22,1.181,1.181,0,0,0-.128.086l-1.4,1.4-.213-.129a15.939,15.939,0,0,1-5.617-5.623l-.112-.208,1-1a2.58,2.58,0,0,0,.845-1.765,2.448,2.448,0,0,0-.82-1.879l-3.085-3.041a2.463,2.463,0,0,0-3.024.212,6.892,6.892,0,0,0-2.038,6.5,8.357,8.357,0,0,0,.939,2.923,25.041,25.041,0,0,0,6.025,7.253,20.451,20.451,0,0,0,4.459,2.793.732.732,0,0,0,.555.014A.711.711,0,0,0,65,84.9a.735.735,0,0,0-.361-.961,18.927,18.927,0,0,1-4.135-2.594c-6.254-5.528-6.429-9.133-6.429-9.168a.254.254,0,0,0-.01-.108,5.412,5.412,0,0,1,1.545-5.205.971.971,0,0,1,1.175-.141l2.968,2.933a1.113,1.113,0,0,1,.381.773,1.186,1.186,0,0,1-.354.746l-1.434,1.434a.717.717,0,0,0-.142.821c1.735,3.926,5.6,6.422,7.186,7.312l.1.055a.709.709,0,0,0,.805-.137l1.8-1.729c.482-.24.747-.082.862.034l3.048,2.97c.449.61.45,1.079.037,1.434a.876.876,0,0,0-.165.14,4.354,4.354,0,0,1-3.934,1.426l-.092-.012a.7.7,0,0,0-.538.1.676.676,0,0,0-.3.435.735.735,0,0,0,.53.879c.014,0,.045.006.081.013a5.577,5.577,0,0,0,.981.086,5.642,5.642,0,0,0,4.35-1.926,2.445,2.445,0,0,0,.838-1.48,2.559,2.559,0,0,0-.665-2l-.053-.1L73.3,80.7h0l-.222.227Z" transform="translate(-52.461 -65.153)" fill="#777"/>
</svg>
