<svg id="Group_248" data-name="Group 248" xmlns="http://www.w3.org/2000/svg" width="15.352" height="15.352" viewBox="0 0 15.352 15.352">
  <g id="Group_247" data-name="Group 247">
    <path id="Path_322" data-name="Path 322" d="M931.132,542.794l-1.971-1.971a1.46,1.46,0,0,0-2.063,0l-.867.865a11.018,11.018,0,0,1-4.64-4.64l.867-.867a1.46,1.46,0,0,0,0-2.063l-1.971-1.971a1.46,1.46,0,0,0-2.063,0l-1.577,1.577c-.824.824-.851,2.278-.073,4.091a18.947,18.947,0,0,0,8.692,8.692,6.121,6.121,0,0,0,2.352.565,2.367,2.367,0,0,0,1.738-.638l1.577-1.577a1.458,1.458,0,0,0,0-2.063Zm-.88,1.183-1.577,1.577c-.427.426-1.445.355-2.72-.193a17.735,17.735,0,0,1-8.038-8.037c-.547-1.277-.619-2.294-.191-2.721l1.577-1.577a.214.214,0,0,1,.3,0L921.578,535a.214.214,0,0,1,0,.3l-1.494,1.493.188.4a12.263,12.263,0,0,0,5.816,5.818l.4.187,1.493-1.493a.215.215,0,0,1,.3,0l1.971,1.971a.215.215,0,0,1,0,.3Z" transform="translate(-916.208 -531.719)" fill="#7b7b7b"/>
  </g>
</svg>
