<svg xmlns="http://www.w3.org/2000/svg" width="17.03" height="14.597" fill="#17499e" viewBox="0 0 17.03 14.597">
  <g id="Group_726" data-name="Group 726" transform="translate(-2 -4)">
    <path id="Path_639" data-name="Path 639" d="M2,4.608A.608.608,0,0,1,2.608,4H15.989a.608.608,0,0,1,0,1.216H2.608A.608.608,0,0,1,2,4.608Zm.608,6.082H15.989a.608.608,0,0,0,0-1.216H2.608a.608.608,0,1,0,0,1.216Zm7.907,4.257H2.608a.608.608,0,0,0,0,1.216h7.907a.608.608,0,0,0,0-1.216Zm7.907,0H16.6V13.123a.608.608,0,1,0-1.216,0v1.825H13.556a.608.608,0,0,0,0,1.216h1.825v1.825a.608.608,0,1,0,1.216,0V16.164h1.825a.608.608,0,1,0,0-1.216Z" fill="#252525"/>
  </g>
</svg>
