<svg xmlns="http://www.w3.org/2000/svg" width="27.154" height="27.135" viewBox="0 0 27.154 27.135">
  <path id="Path_660" data-name="Path 660" d="M311.026,52.387a5.64,5.64,0,0,0-9.011,1.465.868.868,0,0,0,1.552.779,3.983,3.983,0,0,1,.737-1.022,3.876,3.876,0,0,1,2.761-1.148,3.826,3.826,0,0,1,2.765,1.139,3.907,3.907,0,0,1-2.555,6.668l-.238-3.1a.869.869,0,0,0-.806-.806l-8.732-.585a.881.881,0,0,0-.676.253L285.788,67.068a.868.868,0,0,0,0,1.223l9.337,9.337a.872.872,0,0,0,.622.259.853.853,0,0,0,.6-.257L307.389,66.6a.869.869,0,0,0,.252-.674l-.27-3.915a5.641,5.641,0,0,0,3.684-1.643h0A5.649,5.649,0,0,0,311.026,52.387Zm-6.744,6.735a.867.867,0,0,0-1.2,1.244,5.616,5.616,0,0,0,2.565,1.468l.264,3.818-10.164,10.14-8.135-8.135,10.158-10.095,7.614.5.134,1.9A3.94,3.94,0,0,1,304.282,59.122Z" transform="translate(-285.536 -50.752)" fill="#17499e"/>
</svg>
