<svg xmlns="http://www.w3.org/2000/svg" width="20.376" height="21.558" viewBox="0 0 20.376 21.558">
  <g id="Group_807" data-name="Group 807" transform="translate(0.45 0.45)">
    <path id="Path_924" data-name="Path 924" d="M118,114.458h.089a.4.4,0,0,0,.1-.012c.653-.153,9.884-2.588,9.646-16.7V97.73h0v-.064l-.012-.036h0v-.024c-.008-.012-.016-.028-.024-.04v-.012h0a.358.358,0,0,0-.177-.129,68.306,68.306,0,0,1-9.352-3.612h-.024l-.032-.012h-.193l-.036.012h-.02a70.519,70.519,0,0,1-9.376,3.62.344.344,0,0,0-.2.181v.012a.2.2,0,0,0-.016.044v.073c-.262,14.2,9.061,16.583,9.634,16.716Zm.089-19.965A70.107,70.107,0,0,0,127.167,98c.113,13.092-8.146,15.551-9.074,15.785-.927-.226-9.186-2.709-9.074-15.785a70.267,70.267,0,0,0,9.074-3.507Z" transform="translate(-108.366 -93.8)" fill="#17499e" stroke="#17499e" stroke-width="0.9"/>
    <path id="Path_925" data-name="Path 925" d="M214.392,236.613a.347.347,0,0,0,.226-.085l7.973-7.09a.342.342,0,0,0,.008-.464.338.338,0,0,0-.46-.044l-7.747,6.893-3.866-3.422a.34.34,0,0,0-.451.508l4.1,3.616a.349.349,0,0,0,.222.089Z" transform="translate(-205.866 -223.416)" fill="#17499e" stroke="#17499e" stroke-width="0.9"/>
  </g>
</svg>
