<svg xmlns="http://www.w3.org/2000/svg" width="25.086" height="17.997" viewBox="0 0 25.086 17.997">
  <g id="Group_1220" data-name="Group 1220" transform="translate(-158.461 -119.896)">
    <path id="Path_85" data-name="Path 85" d="M182.577,132.754h-2.694l-.052-.181a4.144,4.144,0,0,0-3.947-3.017,4.247,4.247,0,0,0-3.982,3.022l-.054.176H159.431a.97.97,0,0,0,0,1.94h12.421l.052.181a4.09,4.09,0,0,0,7.894,0l.052-.181h2.694a.971.971,0,0,0,.97-.97.907.907,0,0,0-.248-.679A.938.938,0,0,0,182.577,132.754Zm-6.693,3.2a2.232,2.232,0,0,1-2.229-2.229,2.229,2.229,0,0,1,4.457,0A2.231,2.231,0,0,1,175.884,135.953Z" fill="#252525"/>
    <path id="Path_86" data-name="Path 86" d="M159.431,125.034h2.793l.052.181a4.09,4.09,0,0,0,7.894,0l.052-.181h12.355a.971.971,0,0,0,.97-.97.949.949,0,0,0-.97-.97H170.222l-.052-.181a4.09,4.09,0,0,0-7.894,0l-.052.181h-2.793a.971.971,0,0,0-.97.97A.949.949,0,0,0,159.431,125.034Zm6.792-3.2a2.232,2.232,0,0,1,2.229,2.229,2.2,2.2,0,0,1-2.229,2.228,2.231,2.231,0,0,1-2.228-2.228A2.287,2.287,0,0,1,166.223,121.835Z" fill="#252525"/>
  </g>
</svg>
