<svg xmlns="http://www.w3.org/2000/svg" width="16.022" height="15.987" viewBox="0 0 16.022 15.987">
  <g id="noun_building_3560825" transform="translate(-18.875 -19.096)">
    <rect id="Rectangle_513" data-name="Rectangle 513" width="1.526" height="1.526" transform="translate(23.07 25.292)" fill="#7b7b7b" stroke="#efefef" stroke-width="0.25"/>
    <rect id="Rectangle_514" data-name="Rectangle 514" width="1.526" height="1.526" transform="translate(23.07 29.362)" fill="#7b7b7b" stroke="#efefef" stroke-width="0.25"/>
    <path id="Path_927" data-name="Path 927" d="M34.319,26.363l-2.8-1.865a1.018,1.018,0,0,0-1.129,0l-1.725,1.147V23.129a1.018,1.018,0,0,0-.407-.814l-3.816-2.862a1.018,1.018,0,0,0-1.221,0l-3.816,2.862a1.018,1.018,0,0,0-.407.814V34.958H34.772V27.21A1.018,1.018,0,0,0,34.319,26.363ZM27.14,33.432H20.526V23.384l3.307-2.48,3.307,2.48Zm6.105,0H28.667v-5.95l2.289-1.526,2.289,1.526Z" fill="#7b7b7b" stroke="#efefef" stroke-width="0.25"/>
  </g>
</svg>
