<svg xmlns="http://www.w3.org/2000/svg" width="160.24" height="23.46" viewBox="0 0 160.24 23.46">
  <g id="Group_769" data-name="Group 769" transform="translate(-1519.258 -193.648)">
    <g id="Group_773" data-name="Group 773">
      <path id="Path_901" data-name="Path 901" d="M1607.126,204.542a20.636,20.636,0,0,0-2.523-1.337,19.906,19.906,0,0,1-3.576-2.041,2.079,2.079,0,0,1-.482-2.368,1.48,1.48,0,0,1,1.514-.833s1.6.088,1.6,1.4v1.855h5.734l-.011-2.732s.441-4.475-6.754-4.671c0,0-5.658-.372-7.281,2.676,0,0-.637.679-.637,3.047v1.711a5.659,5.659,0,0,0,.944,3.246,7.473,7.473,0,0,0,1.974,1.754s2.851,1.536,4.561,2.414c0,0,1.728.986,1.5,2.554a1.691,1.691,0,0,1-1.808,1.545,1.594,1.594,0,0,1-1.525-1.648v-1.854h-6.11v2.694s-.172,5.151,7.681,5.151c0,0,7.5.153,7.851-5.287v-2.192a5.727,5.727,0,0,0-2.652-5.087Z" fill="#002b84"/>
      <path id="Path_902" data-name="Path 902" d="M1577.771,194.459l-1.92,12.032h-.449l-1.834-11.924h-9.578l-.479,21.788h5.671l.068-16.417h.446l3.006,16.413h5.966l2.969-16.407h.395l.137,16.41h5.7l-.613-21.9Z" fill="#002b84"/>
      <path id="Path_903" data-name="Path 903" d="M1544.013,194.549l-3.773,21.781h6.1l2.235-16.888h.5l2.234,16.888h6.1l-3.772-21.781Z" fill="#002b84"/>
      <path id="Path_904" data-name="Path 904" d="M1672.116,204.242v3.214h1.565V210.9a1.568,1.568,0,1,1-3.127.114v-11.93c0-1.229,1.554-1.295,1.554-1.295a1.457,1.457,0,0,1,1.5,1.466v1.814h5.748c.187-3.54-.518-4.4-.518-4.4-1.426-3.2-6.82-3.027-6.82-3.027-8.289,0-7.37,6.36-7.37,6.36v11.535c.178,5.965,8.345,5.36,8.484,5.352,3.634-.4,4.731-1.556,4.731-1.556a3.538,3.538,0,0,0,1.271-1.788,10.621,10.621,0,0,0,.36-2.534v-6.777Z" fill="#002b84"/>
      <path id="Path_905" data-name="Path 905" d="M1653.063,207.787h-.25l-5.835-13.323H1640v21.894h5.679l-.34-13.322h.253l6.043,13.322h6.769v-21.9h-5.751l.409,13.325Z" fill="#002b84"/>
      <path id="Path_906" data-name="Path 906" d="M1626.134,210.9s.083,1.8-1.583,1.8a1.643,1.643,0,0,1-1.753-1.752l-.017-16.47h-6.231v16.339s-.639,6.184,8.088,6.184c0,0,7.584.09,7.584-5.9V194.478h-6.088V210.9Z" fill="#002b84"/>
      <path id="Path_907" data-name="Path 907" d="M1532.136,204.542a20.6,20.6,0,0,0-2.522-1.337,19.742,19.742,0,0,1-3.574-2.041,2.077,2.077,0,0,1-.482-2.367,1.478,1.478,0,0,1,1.512-.833s1.6.087,1.6,1.4v1.855h5.736l-.012-2.733s.439-4.474-6.754-4.67a12.905,12.905,0,0,0-1.337.005s-4.357.234-5.915,2.624c-.008.017-.021.031-.03.047,0,0-.636.678-.636,3.047v1.711a5.651,5.651,0,0,0,.944,3.246,7.452,7.452,0,0,0,1.974,1.754s2.849,1.535,4.56,2.413c0,0,1.729.986,1.5,2.555a1.692,1.692,0,0,1-1.808,1.545,1.594,1.594,0,0,1-1.525-1.648v-1.855h-6.111v2.7s-.171,5.151,7.68,5.151c0,0,7.5.153,7.852-5.287V209.63a5.73,5.73,0,0,0-2.654-5.088Z" fill="#002b84"/>
    </g>
  </g>
</svg>
