<svg xmlns="http://www.w3.org/2000/svg" width="23" height="23.623" viewBox="0 0 23 23.623">
  <g id="settings" transform="translate(-2.715 -2.295)">
    <path id="Path_576" data-name="Path 576" d="M23.517,14.749V13.455l1.624-1.421a1.692,1.692,0,0,0,.321-2.158l-2-3.384a1.706,1.706,0,0,0-2.005-.761L19.4,6.424A9.6,9.6,0,0,0,18.3,5.789l-.432-2.132a1.692,1.692,0,0,0-1.692-1.362h-3.96a1.692,1.692,0,0,0-1.692,1.362l-.432,2.132a9.713,9.713,0,0,0-1.117.635L6.959,5.7a1.692,1.692,0,0,0-.541-.05,1.692,1.692,0,0,0-1.464.846l-2,3.384A1.692,1.692,0,0,0,3.3,12l1.6,1.464v1.294L3.3,16.179a1.692,1.692,0,0,0-.347,2.158l2,3.384a1.706,1.706,0,0,0,2.005.761l2.056-.693a9.6,9.6,0,0,0,1.109.635l.432,2.132a1.692,1.692,0,0,0,1.692,1.362h3.993a1.692,1.692,0,0,0,1.692-1.362l.432-2.132a9.713,9.713,0,0,0,1.117-.635l2.048.693a1.706,1.706,0,0,0,2.005-.761l1.929-3.384a1.692,1.692,0,0,0-.347-2.124ZM22,20.875l-2.9-.981a7.5,7.5,0,0,1-2.293,1.328l-.6,3.038H12.214l-.6-3a7.919,7.919,0,0,1-2.285-1.328l-2.91.948-2-3.384,2.3-2.031a7.53,7.53,0,0,1,0-2.648l-2.3-2.09,2-3.384,2.9.981a7.5,7.5,0,0,1,2.293-1.328l.6-3.038h3.993l.6,3a7.919,7.919,0,0,1,2.285,1.328L22,7.338l2,3.384-2.3,2.031a7.53,7.53,0,0,1,0,2.648L24,17.49Z" transform="translate(0 0)" fill="#fff"/>
    <path id="Path_577" data-name="Path 577" d="M16.326,21.4a5.026,5.026,0,1,1,3.6-1.472A5.076,5.076,0,0,1,16.326,21.4Zm0-8.461a3.308,3.308,0,1,0,2.416.968,3.308,3.308,0,0,0-2.416-.968Z" transform="translate(-2.116 -2.22)" fill="#fff"/>
  </g>
</svg>
