<svg id="Group_778" data-name="Group 778" xmlns="http://www.w3.org/2000/svg" width="23.028" height="29.545" viewBox="0 0 23.028 29.545">
  <path id="Path_54" data-name="Path 54" d="M320.723,69.095l.039-4.693.774.264a3.906,3.906,0,0,0,3.97-.926l5.2-5.253a.981.981,0,0,0,.285-.7.97.97,0,0,0-.291-.693.982.982,0,0,0-1.391.007L324.1,62.36a1.88,1.88,0,0,1-2.573.065l-1.453-1.345a1.735,1.735,0,0,1-.1-2.454l5.461-5.514a.983.983,0,0,0-1.4-1.385l-5.463,5.514a3.72,3.72,0,0,0-.922,3.459l.177.721-4.4.06a.992.992,0,0,0-.962.852,65.459,65.459,0,0,1-2.038,8.616.981.981,0,0,0,.236,1,.992.992,0,0,0,.981.251c.82-.244,4.961-1.459,8.288-2.145A.989.989,0,0,0,320.723,69.095Zm-1.96-.806-.454.1c-1.332.3-2.844.686-4.49,1.138l-.992.272.265-.993c.488-1.823.866-3.47,1.12-4.892l.086-.48,4.5-.059Z" transform="translate(-310.387 -51.438)" fill="#17499e"/>
  <path id="Path_55" data-name="Path 55" d="M329.532,74.82h-2a.984.984,0,0,0,0,1.968h2a.984.984,0,0,0,0-1.968Z" transform="translate(-307.487 -47.243)" fill="#17499e"/>
  <path id="Path_56" data-name="Path 56" d="M324.579,75.471a15.865,15.865,0,0,1-10.748-3.979.99.99,0,0,0-.709-.3.984.984,0,0,0-.7,1.669,17.663,17.663,0,0,0,12.161,4.578.984.984,0,0,0,0-1.968Z" transform="translate(-310.072 -47.894)" fill="#17499e"/>
</svg>
