<svg id="Group_1547" data-name="Group 1547" xmlns="http://www.w3.org/2000/svg" width="24.914" height="24.915" viewBox="0 0 24.914 24.915">
  <path id="Path_32" data-name="Path 32" d="M1511.727,584.518a12.457,12.457,0,1,1,12.457-12.457A12.475,12.475,0,0,1,1511.727,584.518Zm0-22.922a10.464,10.464,0,1,0,10.465,10.465A10.476,10.476,0,0,0,1511.727,561.6Z" transform="translate(-1499.27 -559.603)" fill="#17499e"/>
  <g id="Group_44" data-name="Group 44" transform="translate(11.531 9.182)">
    <path id="Path_33" data-name="Path 33" d="M1511.712,573.258a1.038,1.038,0,0,1-1.035-1.034v-4.244a1.035,1.035,0,1,1,2.071,0v3.209h2.485a1.035,1.035,0,1,1,0,2.07Z" transform="translate(-1510.677 -566.944)" fill="#17499e"/>
  </g>
</svg>
