<svg xmlns="http://www.w3.org/2000/svg" width="13.004" height="12.398" viewBox="0 0 13.004 12.398">
  <path id="Path_889" data-name="Path 889" d="M32.253,26.417l-2.62,2.152a.51.51,0,0,0-.17.533l.788,3.238a.772.772,0,0,1-.724.959.753.753,0,0,1-.4-.128L26.267,31.4a.52.52,0,0,0-.554,0L22.88,33.149a.744.744,0,0,1-1.129-.831l.788-3.238a.554.554,0,0,0-.17-.533l-2.578-2.13a.776.776,0,0,1,.447-1.363l3.345-.234a.584.584,0,0,0,.447-.32l1.278-3.11a.78.78,0,0,1,1.449,0l1.278,3.11a.5.5,0,0,0,.447.32l3.345.234A.781.781,0,0,1,32.253,26.417Z" transform="translate(-19.518 -20.9)" fill="#fdcc0d"/>
</svg>
