<svg xmlns="http://www.w3.org/2000/svg" width="28.566" height="27.344" viewBox="0 0 28.566 27.344">
  <path id="Path_305" data-name="Path 305" d="M478.839,421.166l7.8,1.143a.788.788,0,0,1,.435,1.345l-5.652,5.5a.789.789,0,0,0-.228.7l1.324,7.772a.788.788,0,0,1-1.145.83l-6.974-3.677a.788.788,0,0,0-.734,0l-6.983,3.661a.788.788,0,0,1-1.143-.832l1.342-7.769a.788.788,0,0,0-.226-.7l-5.639-5.51a.788.788,0,0,1,.438-1.344l7.8-1.125a.788.788,0,0,0,.594-.43l3.5-7.066a.788.788,0,0,1,1.414,0l3.481,7.074A.788.788,0,0,0,478.839,421.166Z" transform="translate(-459.764 -412.22)" fill="#f4c914" stroke="#f4c914" stroke-width="2"/>
</svg>
