<svg xmlns="http://www.w3.org/2000/svg" width="70.764" height="70.764" viewBox="0 0 70.764 70.764">
  <g id="Group_455" data-name="Group 455" transform="translate(-6.5 -6.5)">
    <path id="Path_627" data-name="Path 627" d="M41.882,6.5A35.382,35.382,0,1,0,77.264,41.882,35.383,35.383,0,0,0,41.882,6.5Zm0,66.6A31.22,31.22,0,1,1,73.1,41.882,31.22,31.22,0,0,1,41.882,73.1ZM59.407,30.5a2.081,2.081,0,0,1,.083,2.942L41.313,52.622a6.3,6.3,0,0,1-4.537,1.943h-.153A6.257,6.257,0,0,1,32.045,52.4L24.2,43.27a2.1,2.1,0,1,1,3.164-2.775h0l7.826,9.1a2.112,2.112,0,0,0,1.54.722,2.141,2.141,0,0,0,1.554-.652L56.465,30.491A2.081,2.081,0,0,1,59.407,30.5Z" fill="#28b463"/>
  </g>
</svg>
