<svg xmlns="http://www.w3.org/2000/svg" width="21.235" height="24.061" viewBox="0 0 21.235 24.061">
  <g id="sync-line" transform="translate(-3 -1)">
    <path id="Path_574" data-name="Path 574" d="M24.719,15.467a.715.715,0,0,0-1.415.205,9.306,9.306,0,0,1,.113,1.366A9.2,9.2,0,0,1,7.636,23.449h3.793a.708.708,0,1,0,0-1.415H5.06V28.4a.708.708,0,1,0,1.415,0V24.3a10.615,10.615,0,0,0,18.244-8.832Z" transform="translate(-0.602 -4.05)" fill="#17499e"/>
    <path id="Path_575" data-name="Path 575" d="M22.149,1a.743.743,0,0,0-.75.708V5.833A10.573,10.573,0,0,0,3,12.988a10.728,10.728,0,0,0,.142,1.755.708.708,0,0,0,.708.594h.113a.708.708,0,0,0,.58-.814,9.363,9.363,0,0,1-.127-1.536,9.2,9.2,0,0,1,9.2-9.2A9.108,9.108,0,0,1,20.3,6.661H16.488a.708.708,0,1,0,0,1.415h6.327V1.708A.708.708,0,0,0,22.149,1Z" transform="translate(0)" fill="#17499e"/>
  </g>
</svg>
