<svg xmlns="http://www.w3.org/2000/svg" width="26" height="22.131" viewBox="0 0 26 22.131">
  <g id="Group_422" data-name="Group 422" transform="translate(-1469.334 -74.349)">
    <path id="Path_596" data-name="Path 596" d="M1473.778,88.284a9.533,9.533,0,0,1,5.628-2.452c.236-.021.475-.028.706-.036a8.95,8.95,0,0,0,.926-.061,5.71,5.71,0,0,0,4.911-6.244,5.717,5.717,0,1,0-10.345,3.887,8.657,8.657,0,0,0,.786.9c.13.136.264.276.393.419l.166.184-.233.084-.118.041c-.1.034-.208.072-.315.116A11.057,11.057,0,0,0,1469.4,93.2a2.468,2.468,0,0,0,1.723,2.89c.087.025.175.047.263.069l.105.026h9.172l.014-.006.09-.038a.675.675,0,0,0,.452-.636.629.629,0,0,0-.392-.64,1.028,1.028,0,0,0-.413-.075q-2.865-.005-5.73,0h-2.8a1.061,1.061,0,0,1-1.1-1.363A9.5,9.5,0,0,1,1473.778,88.284Zm2.156-8.222a4.329,4.329,0,0,1,4.327-4.316h.006a4.32,4.32,0,0,1,3.057,7.369,4.163,4.163,0,0,1-2.979,1.277h-.007A4.323,4.323,0,0,1,1475.934,80.062Z" transform="translate(0 0)" fill="#17499e"/>
    <g id="Group_426" data-name="Group 426" transform="translate(1482.989 82.588)">
      <g id="Group_424" data-name="Group 424" transform="translate(5.532 0)">
        <path id="Path_597" data-name="Path 597" d="M1701.476,174.624a.6.6,0,0,1,.408.65c-.008,1.8,0,3.606-.005,5.409a.907.907,0,0,1-.033.275.509.509,0,0,1-.986-.131c0-.057,0-.115,0-.173,0-1.794,0-3.588,0-5.383a.594.594,0,0,1,.412-.647Z" transform="translate(-1700.726 -174.499)" fill="#17499e"/>
        <path id="Path_598" data-name="Path 598" d="M1699.99,180.042a.721.721,0,0,1-.093-.006.627.627,0,0,1-.536-.574c-.005-.064-.005-.13-.005-.183q0-.719,0-1.439c0-1.292,0-2.629,0-3.943a.717.717,0,0,1,.5-.766l.02-.007h.256l.021.007a.722.722,0,0,1,.491.768c-.005,1.2-.005,2.419,0,3.6q0,.905,0,1.811a1.02,1.02,0,0,1-.039.313A.618.618,0,0,1,1699.99,180.042Zm-.079-6.668a.47.47,0,0,0-.308.522c.006,1.315.005,2.652,0,3.944q0,.719,0,1.439c0,.061,0,.113,0,.163a.38.38,0,0,0,.318.346.375.375,0,0,0,.424-.244.8.8,0,0,0,.027-.236q0-.905,0-1.81c0-1.18,0-2.4,0-3.6a.475.475,0,0,0-.306-.524Z" transform="translate(-1699.352 -173.124)" fill="#17499e"/>
      </g>
      <g id="Group_425" data-name="Group 425" transform="translate(0 3.196)">
        <path id="Path_599" data-name="Path 599" d="M1645.611,217.248a4.877,4.877,0,0,0-1.252-3.187c-.071-.08-.145-.156-.214-.238a.515.515,0,1,1,.753-.7,5.824,5.824,0,0,1,.93,1.212,6,6,0,0,1-.529,6.824,5.8,5.8,0,0,1-3.739,2.159,5.943,5.943,0,0,1-6.609-3.9,5.86,5.86,0,0,1,1.365-6.283.514.514,0,1,1,.758.692,6.012,6.012,0,0,0-.8,1.059,4.828,4.828,0,0,0-.615,1.843,4.9,4.9,0,0,0,1.408,4.162,4.8,4.8,0,0,0,2.813,1.419,4.992,4.992,0,0,0,5.2-2.691A5.1,5.1,0,0,0,1645.611,217.248Z" transform="translate(-1634.436 -212.822)" fill="#17499e"/>
        <path id="Path_600" data-name="Path 600" d="M1639.176,222.129a6.16,6.16,0,0,1-4.354-10.471.639.639,0,1,1,.942.862,5.966,5.966,0,0,0-.786,1.036,4.723,4.723,0,0,0-.6,1.8,4.786,4.786,0,0,0,1.373,4.061,4.685,4.685,0,0,0,2.741,1.383,4.866,4.866,0,0,0,5.07-2.624,4.98,4.98,0,0,0,.521-2.31,4.761,4.761,0,0,0-1.221-3.105l-.091-.1c-.042-.046-.084-.091-.124-.138a.64.64,0,1,1,.937-.871,5.961,5.961,0,0,1,.95,1.238,6.09,6.09,0,0,1-.54,6.964,5.921,5.921,0,0,1-3.818,2.2A6.56,6.56,0,0,1,1639.176,222.129Zm-3.866-10.444a.416.416,0,0,0-.3.143,5.732,5.732,0,0,0-1.339,6.157,5.806,5.806,0,0,0,6.471,3.819,5.677,5.677,0,0,0,3.661-2.114,5.844,5.844,0,0,0,.517-6.683,5.713,5.713,0,0,0-.91-1.186.39.39,0,1,0-.569.532c.038.045.078.088.118.131l.1.105a5.009,5.009,0,0,1,1.284,3.268v0a5.223,5.223,0,0,1-.548,2.424,5.116,5.116,0,0,1-5.329,2.758,4.931,4.931,0,0,1-2.884-1.456,5.027,5.027,0,0,1-1.443-4.264,4.974,4.974,0,0,1,.63-1.89,6.2,6.2,0,0,1,.818-1.081.391.391,0,0,0-.269-.667Z" transform="translate(-1633.034 -211.433)" fill="#17499e"/>
      </g>
    </g>
  </g>
</svg>
