<svg xmlns="http://www.w3.org/2000/svg" width="14.575" height="15.855" viewBox="0 0 14.575 15.855">
  <g id="Group_719" data-name="Group 719" transform="translate(6336.8 -2355.181)">
    <path id="Path_268" data-name="Path 268" d="M132.154,212.569a6.029,6.029,0,0,0-2.741-4.829.655.655,0,0,0-.483-.05.669.669,0,0,0-.156,1.227,4.336,4.336,0,0,1,1.941,2.936l.1.633H118.927l.119-.644a4.516,4.516,0,0,1,1.973-2.946.663.663,0,0,0-.211-1.209.674.674,0,0,0-.144-.016.659.659,0,0,0-.356.1,6.185,6.185,0,0,0-2.712,5.348.667.667,0,0,0,.661.682H131.5a.661.661,0,0,0,.66-.66C132.173,212.953,132.163,212.762,132.154,212.569Z" transform="translate(-6454.391 2157.228)" fill="#7b7b7b"/>
    <path id="Path_269" data-name="Path 269" d="M129.9,193.552a4.772,4.772,0,0,0-1.218-.942,4.7,4.7,0,0,0-2.229-.56h-.088a4.665,4.665,0,1,0-.01,9.328h.1a4.693,4.693,0,0,0,2.056-.478,4.769,4.769,0,0,0,1.281-.908,4.549,4.549,0,0,0,.11-6.441Zm-1.341,5.783a3.363,3.363,0,0,1-1.273.621,3.4,3.4,0,0,1-.892.1h-.058a3.345,3.345,0,1,1,.068-6.688h.049a3.36,3.36,0,0,1,.943.149,3.434,3.434,0,0,1,2.466,3.19A3.441,3.441,0,0,1,128.56,199.334Z" transform="translate(-6455.917 2163.131)" fill="#7b7b7b"/>
  </g>
</svg>