<svg xmlns="http://www.w3.org/2000/svg" width="12.121" height="13.185" viewBox="0 0 12.121 13.185">
  <g id="Group_741" data-name="Group 741" transform="translate(-99.378 -515.643)">
    <path id="Path_913" data-name="Path 913" d="M129.7,211.744a5.014,5.014,0,0,0-2.28-4.016.544.544,0,0,0-.4-.041.557.557,0,0,0-.129,1.021,3.606,3.606,0,0,1,1.614,2.442l.087.527H118.7l.1-.536a3.756,3.756,0,0,1,1.641-2.45.552.552,0,0,0-.175-1.005.56.56,0,0,0-.12-.013.548.548,0,0,0-.3.087,5.144,5.144,0,0,0-2.255,4.447.554.554,0,0,0,.549.567H129.16a.549.549,0,0,0,.549-.549C129.717,212.063,129.709,211.9,129.7,211.744Z" transform="translate(-18.213 316.054)" fill="#040506"/>
    <path id="Path_914" data-name="Path 914" d="M128.508,193.3a3.968,3.968,0,0,0-1.013-.783,3.909,3.909,0,0,0-1.853-.466h-.073a3.879,3.879,0,1,0-.008,7.757h.082a3.9,3.9,0,0,0,1.71-.4,3.965,3.965,0,0,0,1.066-.755,3.783,3.783,0,0,0,.092-5.356Zm-1.115,4.809a2.8,2.8,0,0,1-1.058.516,2.828,2.828,0,0,1-.742.086h-.049a2.782,2.782,0,1,1,.056-5.562h.041a2.794,2.794,0,0,1,.784.124,2.856,2.856,0,0,1,2.051,2.653A2.861,2.861,0,0,1,127.393,198.108Z" transform="translate(-20.161 323.593)" fill="#040506"/>
  </g>
</svg>
