<svg xmlns="http://www.w3.org/2000/svg" width="25.933" height="20.171" viewBox="0 0 25.933 20.171">
  <g id="Group_863" data-name="Group 863" transform="translate(-117.591 -192.05)">
    <path id="Path_268" data-name="Path 268" d="M136.055,213.882a7.643,7.643,0,0,0-3.475-6.122.83.83,0,0,0-.613-.063.849.849,0,0,0-.2,1.556,5.5,5.5,0,0,1,2.46,3.723l.132.8H119.284l.151-.817a5.726,5.726,0,0,1,2.5-3.735.841.841,0,0,0-.267-1.532.855.855,0,0,0-.183-.02.836.836,0,0,0-.451.132,7.842,7.842,0,0,0-3.438,6.78.845.845,0,0,0,.837.864h16.793a.838.838,0,0,0,.837-.837C136.078,214.369,136.065,214.126,136.055,213.882Z" transform="translate(0 -3.302)" fill="#040506"/>
    <path id="Path_269" data-name="Path 269" d="M132.117,193.954a6.049,6.049,0,0,0-1.545-1.194,5.96,5.96,0,0,0-2.825-.71h-.112a5.914,5.914,0,1,0-.013,11.826h.125a5.95,5.95,0,0,0,2.606-.606,6.046,6.046,0,0,0,1.624-1.151,5.767,5.767,0,0,0,.14-8.166Zm-1.7,7.331a4.264,4.264,0,0,1-1.613.787,4.309,4.309,0,0,1-1.131.131H127.6a4.241,4.241,0,1,1,.086-8.479h.062a4.259,4.259,0,0,1,1.2.189,4.354,4.354,0,0,1,3.127,4.044A4.362,4.362,0,0,1,130.417,201.285Z" transform="translate(-0.854)" fill="#252525"/>
    <path id="Path_270" data-name="Path 270" d="M145.542,207.85a.853.853,0,0,0-1.126.335.849.849,0,0,0,.315,1.158,5.5,5.5,0,0,1,2.46,3.724l.132.8h-3.657v1.673h4.523a.838.838,0,0,0,.837-.837A7.666,7.666,0,0,0,145.542,207.85Z" transform="translate(-5.513 -3.321)" fill="#040506"/>
    <path id="Path_271" data-name="Path 271" d="M139.409,193.208h-.164v1.516l.013.1h.151a3.578,3.578,0,0,1,3.559,3.482,3.533,3.533,0,0,1-3.549,3.5h-.173v1.515l0,.114.113-.016h.05a5.1,5.1,0,1,0,0-10.206Z" transform="translate(-4.578 -0.245)" fill="#161615"/>
  </g>
</svg>
