<svg xmlns="http://www.w3.org/2000/svg" width="28.51" height="15.984" viewBox="0 0 28.51 15.984">
  <g id="Group_1447" data-name="Group 1447" transform="translate(0 0)">
    <path id="Path_324" data-name="Path 324" d="M20.371,26.2a5.469,5.469,0,1,0,4.451-5.374A5.525,5.525,0,0,0,20.371,26.2Zm8.95,0a3.48,3.48,0,1,1-2.8-3.413A3.507,3.507,0,0,1,29.321,26.2Z" transform="translate(-11.586 -15.684)" fill="currentColor"/>
    <path id="Path_325" data-name="Path 325" d="M30.884,21a14.459,14.459,0,0,0-8.126-9.231A14.807,14.807,0,0,0,9.1,12.84a14.288,14.288,0,0,0-5.074,5.645,15.381,15.381,0,0,0-.865,1.836,4.747,4.747,0,0,0-.445,1.87,1.161,1.161,0,0,0,.034.114.992.992,0,0,0,1.307.615,1.151,1.151,0,0,0,.615-.74c.087-.237.148-.492.228-.725a13.284,13.284,0,0,1,.692-1.645c.167-.329.352-.646.544-.957l0-.005a12.076,12.076,0,0,1,4.847-4.717,13.048,13.048,0,0,1,13.371.9A12.082,12.082,0,0,1,28.5,20.306,13.042,13.042,0,0,1,29.06,22c.137.533.167,1.17.651,1.476a.822.822,0,0,0,.072.048,1,1,0,0,0,1.351-.515,1.068,1.068,0,0,0,.043-.111A4.728,4.728,0,0,0,30.884,21Z" transform="translate(-2.703 -10.583)" fill="currentColor"/>
  </g>
</svg>
