<svg xmlns="http://www.w3.org/2000/svg" width="11.179" height="14.936" viewBox="0 0 11.179 14.936">
  <g id="Group_128" data-name="Group 128" transform="translate(-271.142 -81.833)">
    <g id="Group_126" data-name="Group 126" transform="translate(271.142 81.833)">
      <path id="Path_73" data-name="Path 73" d="M88.214,130.337c-1.322,0-5.59-6.674-5.59-9.346a5.589,5.589,0,1,1,11.179,0C93.8,123.873,89.937,130.337,88.214,130.337Zm0-13.673a4.332,4.332,0,0,0-4.327,4.327c0,2.247,3.435,7.2,4.418,8.042,1.005-.568,4.235-5.592,4.235-8.042A4.332,4.332,0,0,0,88.214,116.664Z" transform="translate(-82.624 -115.401)" fill="#fff"/>
    </g>
    <g id="Group_127" data-name="Group 127" transform="translate(275.662 86.356)">
      <ellipse id="Ellipse_27" data-name="Ellipse 27" cx="1.069" cy="1.069" rx="1.069" ry="1.069" fill="#fff"/>
    </g>
  </g>
</svg>
